<?xml version="1.0" standalone="no"?>
<!DOCTYPE svg PUBLIC "-//W3C//DTD SVG 1.1//EN" "http://www.w3.org/Graphics/SVG/1.1/DTD/svg11.dtd" >
<svg xmlns="http://www.w3.org/2000/svg" xmlns:xlink="http://www.w3.org/1999/xlink" version="1.1">
<metadata>
Created by FontForge 20201107 at Thu Feb 17 10:07:05 2022
 By 
Copyright (c) 2020 by Fontcraft: Jutipong Poosumas. All rights reserved.
</metadata>
<defs>
<font id="FCIconic-Italic" horiz-adv-x="0" >
  <font-face 
    font-family="FC Iconic Italic"
    font-weight="400"
    font-style="italic"
    font-stretch="normal"
    units-per-em="1000"
    panose-1="2 11 5 0 4 2 0 2 0 3"
    ascent="800"
    descent="-200"
    x-height="510"
    cap-height="700"
    bbox="-475 -419 1097 1053"
    underline-thickness="50"
    underline-position="-176"
    slope="-12"
    unicode-range="U+0020-FB02"
  />
<missing-glyph horiz-adv-x="817" 
d="M68 0v675h681v-675h-681zM722 22q7 0 7 7v619q0 6 -7 6h-626q-7 0 -7 -6v-619q0 -7 7 -7h626z" />
    <glyph glyph-name="Agrave" unicode="A&#x300;" horiz-adv-x="640" 
d="M543 772h-89l-90 189h108zM529 0l-30 172h-300l-90 -172h-108l380 700h124l134 -700h-110zM490 248l-64 354h-3l-187 -354h254z" />
    <glyph glyph-name="Aacute" unicode="A&#x301;" horiz-adv-x="640" 
d="M394 772l140 189h109l-159 -189h-90zM529 0l-30 172h-300l-90 -172h-108l380 700h124l134 -700h-110zM490 248l-64 354h-3l-187 -354h254z" />
    <glyph glyph-name="Atilde" unicode="A&#x303;" horiz-adv-x="640" 
d="M383 858q-24 0 -43.5 -20.5t-27.5 -62.5h-76q14 76 52 116t98 40q30 0 51.5 -14t40.5 -30.5t37.5 -30.5t42.5 -14q27 0 50 23t31 64h75q-14 -74 -56.5 -115.5t-100.5 -41.5q-31 0 -53 13.5t-41 29.5t-37.5 29.5t-42.5 13.5zM529 0l-30 172h-300l-90 -172h-108l380 700
h124l134 -700h-110zM490 248l-64 354h-3l-187 -354h254z" />
    <glyph glyph-name="Egrave" unicode="E&#x300;" horiz-adv-x="564" 
d="M513 772h-89l-90 189h108zM263 619l-41 -230h313l-14 -79h-312l-41 -231h364l-13 -79h-467l123 700h466l-13 -81h-365z" />
    <glyph glyph-name="Eacute" unicode="E&#x301;" horiz-adv-x="564" 
d="M374 772l139 189h109l-158 -189h-90zM263 619l-41 -230h313l-14 -79h-312l-41 -231h364l-13 -79h-467l123 700h466l-13 -81h-365z" />
    <glyph glyph-name="Igrave" unicode="I&#x300;" horiz-adv-x="218" 
d="M295 772h-89l-90 189h108zM181 700h101l-122 -700h-101z" />
    <glyph glyph-name="Iacute" unicode="I&#x301;" horiz-adv-x="218" 
d="M194 772l139 189h109l-158 -189h-90zM181 700h101l-122 -700h-101z" />
    <glyph glyph-name="Ograve" unicode="O&#x300;" horiz-adv-x="711" 
d="M574 772h-90l-90 189h110zM480 708q75 0 130.5 -25t89.5 -71.5t44.5 -112.5t-3.5 -148q-15 -84 -49.5 -150.5t-84.5 -113t-114.5 -71t-139.5 -24.5q-76 0 -131.5 24.5t-89 71t-44 113t4.5 150.5q14 82 48 148t84 112.5t114.5 71.5t140.5 25zM368 76q51 0 95 19t78.5 54.5
t59 86.5t35.5 115q23 128 -23 199t-148 71q-52 0 -96 -18.5t-78 -53t-58 -85t-35 -113.5q-23 -129 22 -202t148 -73z" />
    <glyph glyph-name="Oacute" unicode="O&#x301;" horiz-adv-x="711" 
d="M422 772l140 189h108l-158 -189h-90zM480 708q75 0 130.5 -25t89.5 -71.5t44.5 -112.5t-3.5 -148q-15 -84 -49.5 -150.5t-84.5 -113t-114.5 -71t-139.5 -24.5q-76 0 -131.5 24.5t-89 71t-44 113t4.5 150.5q14 82 48 148t84 112.5t114.5 71.5t140.5 25zM368 76q51 0 95 19
t78.5 54.5t59 86.5t35.5 115q23 128 -23 199t-148 71q-52 0 -96 -18.5t-78 -53t-58 -85t-35 -113.5q-23 -129 22 -202t148 -73z" />
    <glyph glyph-name="Otilde" unicode="O&#x303;" horiz-adv-x="711" 
d="M422 858q-25 0 -45 -20.5t-28 -62.5h-75q14 76 52 116t98 40q30 0 51 -14t39.5 -30.5t37.5 -30.5t44 -14q27 0 50 23t31 64h73q-13 -74 -54.5 -115.5t-101.5 -41.5q-30 0 -52 13.5t-41 29.5t-37.5 29.5t-41.5 13.5zM480 708q75 0 130.5 -25t89.5 -71.5t44.5 -112.5
t-3.5 -148q-15 -84 -49.5 -150.5t-84.5 -113t-114.5 -71t-139.5 -24.5q-76 0 -131.5 24.5t-89 71t-44 113t4.5 150.5q14 82 48 148t84 112.5t114.5 71.5t140.5 25zM368 76q51 0 95 19t78.5 54.5t59 86.5t35.5 115q23 128 -23 199t-148 71q-52 0 -96 -18.5t-78 -53t-58 -85
t-35 -113.5q-23 -129 22 -202t148 -73z" />
    <glyph glyph-name="Ugrave" unicode="U&#x300;" horiz-adv-x="659" 
d="M377 961h109l71 -189h-90zM198 257q-16 -84 22.5 -131.5t121.5 -47.5q85 0 139.5 47t69.5 132l78 443h101l-80 -453q-10 -58 -38 -105.5t-70 -80.5t-97 -51t-119 -18q-63 0 -111 18t-78.5 51t-41.5 80.5t-1 105.5l81 453h101z" />
    <glyph glyph-name="Uacute" unicode="U&#x301;" horiz-adv-x="659" 
d="M651 961l-158 -189h-89l139 189h108zM198 257q-16 -84 22.5 -131.5t121.5 -47.5q85 0 139.5 47t69.5 132l78 443h101l-80 -453q-10 -58 -38 -105.5t-70 -80.5t-97 -51t-119 -18q-63 0 -111 18t-78.5 51t-41.5 80.5t-1 105.5l81 453h101z" />
    <glyph glyph-name="Yacute" unicode="Y&#x301;" horiz-adv-x="613" 
d="M539 961h108l-159 -189h-88zM412 315l-55 -315h-102l56 318l-183 382h120l130 -288h1l231 288h120z" />
    <glyph glyph-name="agrave" unicode="a&#x300;" horiz-adv-x="570" 
d="M494 595h-89l-90 188h108zM332 517q66 0 106.5 -28t54.5 -82h1l18 103h99l-88 -510h-96l18 101h-3q-29 -51 -83.5 -80t-119.5 -29q-44 0 -79.5 18t-58 51.5t-30 82.5t3.5 110q11 62 35.5 110.5t58.5 82.5t75.5 52t87.5 18zM288 70q33 0 62 13t53 37t40.5 58t23.5 76
q8 41 3.5 75t-19.5 58t-40 37.5t-58 13.5q-66 0 -114.5 -49.5t-63.5 -134.5q-14 -85 16 -134.5t97 -49.5z" />
    <glyph glyph-name="aacute" unicode="a&#x301;" horiz-adv-x="570" 
d="M349 595l139 188h110l-159 -188h-90zM332 517q66 0 106.5 -28t54.5 -82h1l18 103h99l-88 -510h-96l18 101h-3q-29 -51 -83.5 -80t-119.5 -29q-44 0 -79.5 18t-58 51.5t-30 82.5t3.5 110q11 62 35.5 110.5t58.5 82.5t75.5 52t87.5 18zM288 70q33 0 62 13t53 37t40.5 58
t23.5 76q8 41 3.5 75t-19.5 58t-40 37.5t-58 13.5q-66 0 -114.5 -49.5t-63.5 -134.5q-14 -85 16 -134.5t97 -49.5z" />
    <glyph glyph-name="atilde" unicode="a&#x303;" horiz-adv-x="570" 
d="M327 675q-24 0 -38 -17t-22 -59h-76q14 76 46.5 113t92.5 37q25 0 44.5 -12t37 -26t34.5 -26t36 -12q50 0 68 80h74q-14 -74 -49.5 -114t-94.5 -40q-27 0 -47.5 12t-38 26t-33.5 26t-34 12zM332 517q66 0 106.5 -28t54.5 -82h1l18 103h99l-88 -510h-96l18 101h-3
q-29 -51 -83.5 -80t-119.5 -29q-44 0 -79.5 18t-58 51.5t-30 82.5t3.5 110q11 62 35.5 110.5t58.5 82.5t75.5 52t87.5 18zM288 70q33 0 62 13t53 37t40.5 58t23.5 76q8 41 3.5 75t-19.5 58t-40 37.5t-58 13.5q-66 0 -114.5 -49.5t-63.5 -134.5q-14 -85 16 -134.5t97 -49.5z
" />
    <glyph glyph-name="egrave" unicode="e&#x300;" horiz-adv-x="549" 
d="M396 595l-90 188h107l73 -188h-90zM176 235q-13 -79 19.5 -123.5t97.5 -44.5q54 0 90.5 24t57.5 69h93q-32 -83 -96 -125.5t-160 -42.5q-114 0 -166 67.5t-30 195.5q11 61 36.5 109.5t62.5 82.5t84.5 52t102.5 18t95 -18t64 -51t32 -80t-2 -105l-6 -28h-375zM356 442
q-30 0 -57 -10.5t-49 -30t-38 -46.5t-24 -60h281q10 65 -21 106t-92 41z" />
    <glyph glyph-name="eacute" unicode="e&#x301;" horiz-adv-x="549" 
d="M468 783h109l-158 -188h-90zM176 235q-13 -79 19.5 -123.5t97.5 -44.5q54 0 90.5 24t57.5 69h93q-32 -83 -96 -125.5t-160 -42.5q-114 0 -166 67.5t-30 195.5q11 61 36.5 109.5t62.5 82.5t84.5 52t102.5 18t95 -18t64 -51t32 -80t-2 -105l-6 -28h-375zM356 442
q-30 0 -57 -10.5t-49 -30t-38 -46.5t-24 -60h281q10 65 -21 106t-92 41z" />
    <glyph glyph-name="igrave" unicode="i&#x300;" horiz-adv-x="235" 
d="M180 595l-90 188h108l72 -188h-90zM157 510h98l-89 -510h-98z" />
    <glyph glyph-name="iacute" unicode="i&#x301;" horiz-adv-x="235" 
d="M311 783h109l-158 -188h-90zM157 510h98l-89 -510h-98z" />
    <glyph glyph-name="ograve" unicode="o&#x300;" horiz-adv-x="549" 
d="M413 783l73 -188h-90l-90 188h107zM364 517q56 0 98.5 -17.5t68.5 -51.5t35 -83t-2 -111t-37 -110.5t-64.5 -82.5t-86.5 -51.5t-104 -17.5t-98 17.5t-68.5 51.5t-35 82.5t1.5 110.5q11 62 37.5 111t64.5 83t86.5 51.5t103.5 17.5zM285 68q32 0 62 12.5t54.5 36.5t42 58.5
t24.5 78.5q8 45 3 79.5t-21 58.5t-41.5 36.5t-57.5 12.5q-65 0 -115 -48.5t-67 -138.5q-15 -89 18 -137.5t98 -48.5z" />
    <glyph glyph-name="oacute" unicode="o&#x301;" horiz-adv-x="549" 
d="M420 595h-88l139 188h108zM364 517q56 0 98.5 -17.5t68.5 -51.5t35 -83t-2 -111t-37 -110.5t-64.5 -82.5t-86.5 -51.5t-104 -17.5t-98 17.5t-68.5 51.5t-35 82.5t1.5 110.5q11 62 37.5 111t64.5 83t86.5 51.5t103.5 17.5zM285 68q32 0 62 12.5t54.5 36.5t42 58.5
t24.5 78.5q8 45 3 79.5t-21 58.5t-41.5 36.5t-57.5 12.5q-65 0 -115 -48.5t-67 -138.5q-15 -89 18 -137.5t98 -48.5z" />
    <glyph glyph-name="otilde" unicode="o&#x303;" horiz-adv-x="549" 
d="M317 675q-25 0 -39 -17t-21 -59h-77q14 76 46.5 113t92.5 37q25 0 44.5 -12t37 -26t34.5 -26t36 -12q50 0 68 80h74q-14 -74 -49.5 -114t-94.5 -40q-27 0 -47.5 12t-37.5 26t-33 26t-34 12zM364 517q56 0 98.5 -17.5t68.5 -51.5t35 -83t-2 -111t-37 -110.5t-64.5 -82.5
t-86.5 -51.5t-104 -17.5t-98 17.5t-68.5 51.5t-35 82.5t1.5 110.5q11 62 37.5 111t64.5 83t86.5 51.5t103.5 17.5zM285 68q32 0 62 12.5t54.5 36.5t42 58.5t24.5 78.5q8 45 3 79.5t-21 58.5t-41.5 36.5t-57.5 12.5q-65 0 -115 -48.5t-67 -138.5q-15 -89 18 -137.5t98 -48.5z
" />
    <glyph glyph-name="ugrave" unicode="u&#x300;" horiz-adv-x="555" 
d="M302 783h109l71 -188h-90zM596 510l-88 -510h-96l19 113h-1q-18 -35 -42 -58t-51 -37t-54.5 -20t-53.5 -6q-88 0 -127 50t-20 157l54 311h99l-52 -296q-13 -73 11 -108.5t90 -35.5q31 0 58.5 13t49.5 36t37.5 55t22.5 70l46 266h98z" />
    <glyph glyph-name="uacute" unicode="u&#x301;" horiz-adv-x="555" 
d="M576 783l-158 -188h-91l140 188h109zM596 510l-88 -510h-96l19 113h-1q-18 -35 -42 -58t-51 -37t-54.5 -20t-53.5 -6q-88 0 -127 50t-20 157l54 311h99l-52 -296q-13 -73 11 -108.5t90 -35.5q31 0 58.5 13t49.5 36t37.5 55t22.5 70l46 266h98z" />
    <glyph glyph-name="yacute" unicode="y&#x301;" horiz-adv-x="498" 
d="M442 783h109l-158 -188h-90zM580 510q-7 -16 -22.5 -46t-36 -69t-45 -85t-50.5 -94.5t-52.5 -98t-50.5 -94.5q-34 -65 -63.5 -106t-61 -63.5t-67.5 -29.5t-82 -4q-11 0 -19 1t-19 6l12 69q11 -1 19.5 -1.5t18.5 -0.5q24 0 41.5 1.5t32.5 10t29.5 25.5t31.5 49l-100 530
h106l61 -429h2l211 429h104z" />
    <glyph glyph-name="Itilde" unicode="I&#x303;" horiz-adv-x="218" 
d="M168 858q-25 0 -44.5 -20.5t-26.5 -62.5h-77q14 76 52.5 116t98.5 40q30 0 51.5 -14t40 -30.5t37 -30.5t42.5 -14q27 0 50 23t31 64h75q-14 -74 -56 -115.5t-101 -41.5q-31 0 -53 13.5t-40.5 29.5t-37 29.5t-42.5 13.5zM181 700h101l-122 -700h-101z" />
    <glyph glyph-name="itilde" unicode="i&#x303;" horiz-adv-x="235" 
d="M157 675q-25 0 -39 -17t-21 -59h-77q14 76 46.5 113t93.5 37q25 0 44.5 -12t36.5 -26t34 -26t36 -12q50 0 68 80h74q-14 -74 -49 -114t-94 -40q-27 0 -47.5 12t-38 26t-33.5 26t-34 12zM157 510h98l-89 -510h-98z" />
    <glyph glyph-name="Utilde" unicode="U&#x303;" horiz-adv-x="659" 
d="M398 858q-24 0 -43.5 -20.5t-27.5 -62.5h-76q14 76 52 116t98 40q30 0 51.5 -14t40.5 -30.5t37.5 -30.5t42.5 -14q27 0 50 23t31 64h75q-14 -74 -56 -115.5t-101 -41.5q-31 0 -53 13.5t-41 29.5t-37.5 29.5t-42.5 13.5zM198 257q-16 -84 22.5 -131.5t121.5 -47.5
q85 0 139.5 47t69.5 132l78 443h101l-80 -453q-10 -58 -38 -105.5t-70 -80.5t-97 -51t-119 -18q-63 0 -111 18t-78.5 51t-41.5 80.5t-1 105.5l81 453h101z" />
    <glyph glyph-name="utilde" unicode="u&#x303;" horiz-adv-x="555" 
d="M330 675q-25 0 -39.5 -17t-21.5 -59h-75q13 76 45 113t93 37q26 0 45.5 -12t37 -26t34 -26t35.5 -12q51 0 67 80h75q-13 -74 -49.5 -114t-94.5 -40q-27 0 -47.5 12t-37.5 26t-33 26t-34 12zM596 510l-88 -510h-96l19 113h-1q-18 -35 -42 -58t-51 -37t-54.5 -20t-53.5 -6
q-88 0 -127 50t-20 157l54 311h99l-52 -296q-13 -73 11 -108.5t90 -35.5q31 0 58.5 13t49.5 36t37.5 55t22.5 70l46 266h98z" />
    <glyph glyph-name="uni1EA0" unicode="A&#x323;" horiz-adv-x="588" 
 />
    <glyph glyph-name="uni1EA1" unicode="a&#x323;" horiz-adv-x="517" 
 />
    <glyph glyph-name="uni1EA2" unicode="A&#x309;" horiz-adv-x="371" 
 />
    <glyph glyph-name="uni1EA3" unicode="a&#x309;" horiz-adv-x="469" 
 />
    <glyph glyph-name="uni1EA4" unicode="&#xc2;&#x301;" horiz-adv-x="546" 
 />
    <glyph glyph-name="uni1EA5" unicode="&#xe2;&#x301;" horiz-adv-x="469" 
 />
    <glyph glyph-name="uni1EA6" unicode="&#xc2;&#x300;" horiz-adv-x="546" 
 />
    <glyph glyph-name="uni1EA7" unicode="&#xe2;&#x300;" horiz-adv-x="469" 
 />
    <glyph glyph-name="uni1EA8" unicode="&#xc2;&#x309;" horiz-adv-x="546" 
 />
    <glyph glyph-name="uni1EA9" unicode="&#xe2;&#x309;" horiz-adv-x="469" 
 />
    <glyph glyph-name="uni1EAA" unicode="&#xc2;&#x303;" horiz-adv-x="546" 
 />
    <glyph glyph-name="uni1EAB" unicode="&#xe2;&#x303;" horiz-adv-x="469" 
 />
    <glyph glyph-name="uni1EAC" unicode="&#xc2;&#x323;" horiz-adv-x="546" 
 />
    <glyph glyph-name="uni1EAD" unicode="&#xe2;&#x323;" horiz-adv-x="469" 
 />
    <glyph glyph-name="uni1EAE" unicode="&#x102;&#x301;" horiz-adv-x="546" 
 />
    <glyph glyph-name="uni1EAF" unicode="&#x103;&#x301;" horiz-adv-x="469" 
 />
    <glyph glyph-name="uni1EB0" unicode="&#x102;&#x300;" horiz-adv-x="546" 
 />
    <glyph glyph-name="uni1EB1" unicode="&#x103;&#x300;" horiz-adv-x="469" 
 />
    <glyph glyph-name="uni1EB2" unicode="&#x102;&#x309;" horiz-adv-x="546" 
 />
    <glyph glyph-name="uni1EB3" unicode="&#x103;&#x309;" horiz-adv-x="469" 
 />
    <glyph glyph-name="uni1EB4" unicode="&#x102;&#x303;" horiz-adv-x="546" 
 />
    <glyph glyph-name="uni1EB5" unicode="&#x103;&#x303;" horiz-adv-x="469" 
 />
    <glyph glyph-name="uni1EB6" unicode="&#x102;&#x323;" horiz-adv-x="546" 
 />
    <glyph glyph-name="uni1EB7" unicode="&#x103;&#x323;" horiz-adv-x="469" 
 />
    <glyph glyph-name="uni1EB8" unicode="E&#x323;" horiz-adv-x="512" 
 />
    <glyph glyph-name="uni1EB9" unicode="e&#x323;" horiz-adv-x="520" 
 />
    <glyph glyph-name="uni1EBA" unicode="E&#x309;" horiz-adv-x="479" 
 />
    <glyph glyph-name="uni1EBB" unicode="e&#x309;" horiz-adv-x="510" 
 />
    <glyph glyph-name="uni1EBC" unicode="E&#x303;" horiz-adv-x="512" 
 />
    <glyph glyph-name="uni1EBD" unicode="e&#x303;" horiz-adv-x="520" 
 />
    <glyph glyph-name="uni1EBE" unicode="&#xca;&#x301;" horiz-adv-x="479" 
 />
    <glyph glyph-name="uni1EBF" unicode="&#xea;&#x301;" horiz-adv-x="510" 
 />
    <glyph glyph-name="uni1EC0" unicode="&#xca;&#x300;" horiz-adv-x="479" 
 />
    <glyph glyph-name="uni1EC1" unicode="&#xea;&#x300;" horiz-adv-x="510" 
 />
    <glyph glyph-name="uni1EC2" unicode="&#xca;&#x309;" horiz-adv-x="479" 
 />
    <glyph glyph-name="uni1EC3" unicode="&#xea;&#x309;" horiz-adv-x="510" 
 />
    <glyph glyph-name="uni1EC4" unicode="&#xca;&#x303;" horiz-adv-x="479" 
 />
    <glyph glyph-name="uni1EC5" unicode="&#xea;&#x303;" horiz-adv-x="510" 
 />
    <glyph glyph-name="uni1EC6" unicode="&#xca;&#x323;" horiz-adv-x="479" 
 />
    <glyph glyph-name="uni1EC7" unicode="&#xea;&#x323;" horiz-adv-x="510" 
 />
    <glyph glyph-name="uni1EC8" unicode="I&#x309;" horiz-adv-x="201" 
 />
    <glyph glyph-name="uni1EC9" unicode="i&#x309;" horiz-adv-x="195" 
 />
    <glyph glyph-name="uni1ECA" unicode="I&#x323;" horiz-adv-x="312" 
 />
    <glyph glyph-name="uni1ECB" unicode="i&#x323;" horiz-adv-x="237" 
 />
    <glyph glyph-name="uni1ECC" unicode="O&#x323;" horiz-adv-x="720" 
 />
    <glyph glyph-name="uni1ECD" unicode="o&#x323;" horiz-adv-x="558" 
 />
    <glyph glyph-name="uni1ECE" unicode="O&#x309;" horiz-adv-x="663" 
 />
    <glyph glyph-name="uni1ECF" unicode="o&#x309;" horiz-adv-x="543" 
 />
    <glyph glyph-name="uni1ED0" unicode="&#xd4;&#x301;" horiz-adv-x="663" 
 />
    <glyph glyph-name="uni1ED1" unicode="&#xf4;&#x301;" horiz-adv-x="543" 
 />
    <glyph glyph-name="uni1ED2" unicode="&#xd4;&#x300;" horiz-adv-x="663" 
 />
    <glyph glyph-name="uni1ED3" unicode="&#xf4;&#x300;" horiz-adv-x="543" 
 />
    <glyph glyph-name="uni1ED4" unicode="&#xd4;&#x309;" horiz-adv-x="663" 
 />
    <glyph glyph-name="uni1ED5" unicode="&#xf4;&#x309;" horiz-adv-x="543" 
 />
    <glyph glyph-name="uni1ED6" unicode="&#xd4;&#x303;" horiz-adv-x="663" 
 />
    <glyph glyph-name="uni1ED7" unicode="&#xf4;&#x303;" horiz-adv-x="543" 
 />
    <glyph glyph-name="uni1ED8" unicode="&#xd4;&#x323;" horiz-adv-x="663" 
 />
    <glyph glyph-name="uni1ED9" unicode="&#xf4;&#x323;" horiz-adv-x="543" 
 />
    <glyph glyph-name="uni1EDA" unicode="&#x1a0;&#x301;" horiz-adv-x="663" 
 />
    <glyph glyph-name="uni1EDB" unicode="&#x1a1;&#x301;" horiz-adv-x="543" 
 />
    <glyph glyph-name="uni1EDC" unicode="&#x1a0;&#x300;" horiz-adv-x="663" 
 />
    <glyph glyph-name="uni1EDD" unicode="&#x1a1;&#x300;" horiz-adv-x="543" 
 />
    <glyph glyph-name="uni1EDE" unicode="&#x1a0;&#x309;" horiz-adv-x="663" 
 />
    <glyph glyph-name="uni1EDF" unicode="&#x1a1;&#x309;" horiz-adv-x="543" 
 />
    <glyph glyph-name="uni1EE0" unicode="&#x1a0;&#x303;" horiz-adv-x="663" 
 />
    <glyph glyph-name="uni1EE1" unicode="&#x1a1;&#x303;" horiz-adv-x="543" 
 />
    <glyph glyph-name="uni1EE2" unicode="&#x1a0;&#x323;" horiz-adv-x="663" 
 />
    <glyph glyph-name="uni1EE3" unicode="&#x1a1;&#x323;" horiz-adv-x="543" 
 />
    <glyph glyph-name="uni1EE4" unicode="U&#x323;" horiz-adv-x="674" 
 />
    <glyph glyph-name="uni1EE5" unicode="u&#x323;" horiz-adv-x="570" 
 />
    <glyph glyph-name="uni1EE6" unicode="U&#x309;" horiz-adv-x="636" 
 />
    <glyph glyph-name="uni1EE7" unicode="u&#x309;" horiz-adv-x="532" 
 />
    <glyph glyph-name="uni1EE8" unicode="&#x1af;&#x301;" horiz-adv-x="636" 
 />
    <glyph glyph-name="uni1EE9" unicode="&#x1b0;&#x301;" horiz-adv-x="509" 
 />
    <glyph glyph-name="uni1EEA" unicode="&#x1af;&#x300;" horiz-adv-x="636" 
 />
    <glyph glyph-name="uni1EEB" unicode="&#x1b0;&#x300;" horiz-adv-x="509" 
 />
    <glyph glyph-name="uni1EEC" unicode="&#x1af;&#x309;" horiz-adv-x="636" 
 />
    <glyph glyph-name="uni1EED" unicode="&#x1b0;&#x309;" horiz-adv-x="509" 
 />
    <glyph glyph-name="uni1EEE" unicode="&#x1af;&#x303;" horiz-adv-x="636" 
 />
    <glyph glyph-name="uni1EEF" unicode="&#x1b0;&#x303;" horiz-adv-x="509" 
 />
    <glyph glyph-name="uni1EF0" unicode="&#x1af;&#x323;" horiz-adv-x="636" 
 />
    <glyph glyph-name="uni1EF1" unicode="&#x1b0;&#x323;" horiz-adv-x="509" 
 />
    <glyph glyph-name="Ygrave" unicode="Y&#x300;" horiz-adv-x="523" 
 />
    <glyph glyph-name="ygrave" unicode="y&#x300;" horiz-adv-x="472" 
 />
    <glyph glyph-name="uni1EF4" unicode="Y&#x323;" horiz-adv-x="499" 
 />
    <glyph glyph-name="uni1EF5" unicode="y&#x323;" horiz-adv-x="460" 
 />
    <glyph glyph-name="uni1EF6" unicode="Y&#x309;" horiz-adv-x="499" 
 />
    <glyph glyph-name="uni1EF7" unicode="y&#x309;" horiz-adv-x="460" 
 />
    <glyph glyph-name="uni1EF8" unicode="Y&#x303;" horiz-adv-x="523" 
 />
    <glyph glyph-name="uni1EF9" unicode="y&#x303;" horiz-adv-x="472" 
 />
    <glyph glyph-name="uniF880" unicode="&#xe4f;&#x22;" horiz-adv-x="539" 
d="M434 768h89l-41 -180h-73zM285 768h89l-41 -180h-72zM363 540q47 0 84.5 -17.5t63 -47.5t36 -70.5t2.5 -87.5t-33 -88.5t-61 -72t-80 -48t-91 -17.5q-46 0 -84 17.5t-63 48t-35 72t-2 88.5t32.5 87.5t60.5 70.5t80 47.5t90 17.5zM295 147q35 0 67.5 13.5t58.5 36.5
t44.5 54t24.5 66t-1.5 65t-26 52.5t-46.5 35.5t-63 13q-34 0 -67.5 -13t-60.5 -35.5t-46 -52.5t-25 -65t2 -66t27.5 -54t48 -36.5t63.5 -13.5zM347 442q26 0 46.5 -9.5t34.5 -26.5t19.5 -39.5t0.5 -49.5q-4 -26 -18 -49t-34 -40t-44 -27t-50 -10t-47 10t-35 27t-20 40t-2 49
q5 27 19 49.5t34.5 39.5t45 26.5t50.5 9.5zM310 239q16 0 31 6t27 16.5t20 25t10 30.5q7 32 -10.5 52.5t-50.5 20.5q-32 0 -58 -20.5t-32 -52.5q-5 -33 13 -55.5t50 -22.5z" />
    <glyph glyph-name="uniF881" unicode="&#xe24;&#xe32;" horiz-adv-x="936" 
d="M745 -195l105 591q5 27 -2 46.5t-21 32t-34.5 18.5t-44.5 6q-32 0 -62.5 -8t-63.5 -22q15 -49 3 -116l-97 -548h-100l96 539q14 78 -17.5 116.5t-113.5 38.5q-68 0 -117 -25.5t-73 -87.5h123l-7 -44q-51 -17 -85.5 -59.5t-45.5 -99.5q-6 -32 -2.5 -53t14 -33t28 -17
t39.5 -6q13 -2 25.5 -1t28.5 3l-13 -72q-23 -6 -45 -8.5t-42 -2.5q-35 1 -63.5 11.5t-47 32t-25.5 53t1 74.5q6 33 19.5 61t31.5 50t39 38t41 24h-113q21 121 99 182.5t206 61.5q125 0 179 -57q50 28 98 42.5t99 14.5q42 0 76 -10.5t56.5 -31.5t32.5 -53t2 -74l-107 -607
h-100z" />
    <glyph glyph-name="uniF882" unicode="&#xe26;&#xe32;" horiz-adv-x="946" 
d="M755 -195l105 591q5 27 -2 46.5t-21.5 32t-35 18.5t-44.5 6q-32 0 -62.5 -8t-62.5 -22q7 -24 8 -53.5t-6 -62.5l-96 -548h-99l96 539q14 78 -18 116.5t-114 38.5q-69 0 -117.5 -25.5t-71.5 -87.5h130l-7 -42q-40 -14 -63.5 -46t-31.5 -77l-14 -76q-5 -29 -15 -56
t-26.5 -48t-41 -33.5t-59.5 -12.5q-17 0 -34 1t-37 5l12 73q14 -3 23.5 -3.5t19.5 0.5q27 4 41.5 22t20.5 52l14 75q6 37 29.5 69.5t59.5 47.5h-122q22 121 100 182.5t206 61.5q64 0 108 -14.5t71 -42.5q49 28 97 42.5t99 14.5q42 0 76 -10.5t57 -31.5t32.5 -53t2.5 -74
l-108 -607h-99z" />
    <glyph glyph-name="fi" unicode="fi" horiz-adv-x="562" 
d="M438 628q-20 2 -35.5 2h-24.5q-34 -2 -49.5 -19t-22.5 -54l-9 -47h96l-11 -68h-95l-103 -578h-99l102 578h-85l11 68h85l8 47q14 81 61 115.5t119 34.5q16 0 31.5 -2t32.5 -6zM568 703q26 0 40.5 -16.5t9.5 -39.5q-4 -25 -23.5 -41.5t-45.5 -16.5q-28 0 -41.5 16.5
t-9.5 41.5q5 23 23.5 39.5t46.5 16.5zM484 510h99l-89 -510h-98z" />
    <glyph glyph-name="fl" unicode="fl" horiz-adv-x="611" 
d="M438 628q-20 2 -35.5 2h-24.5q-34 -2 -49.5 -19t-22.5 -54l-9 -47h96l-11 -68h-95l-103 -578h-99l102 578h-85l11 68h85l8 47q14 81 61 115.5t119 34.5q16 0 31.5 -2t32.5 -6zM609 75l-13 -71q-34 -7 -67 -7q-77 0 -100 42t-7 127l94 535h99l-96 -550q-8 -43 4.5 -61
t60.5 -18q6 0 11.5 1t13.5 2z" />
    <glyph glyph-name=".notdef" horiz-adv-x="817" 
d="M68 0v675h681v-675h-681zM722 22q7 0 7 7v619q0 6 -7 6h-626q-7 0 -7 -6v-619q0 -7 7 -7h626z" />
    <glyph glyph-name=".null" 
 />
    <glyph glyph-name=".null" 
 />
    <glyph glyph-name="uni000D" horiz-adv-x="295" 
 />
    <glyph glyph-name="space" unicode=" " horiz-adv-x="321" 
 />
    <glyph glyph-name="exclam" unicode="!" horiz-adv-x="251" 
d="M120 221l27 194l51 285h101l-51 -285l-41 -194h-87zM147 127q30 0 45.5 -18.5t10.5 -44.5t-26.5 -45t-50.5 -19q-31 0 -46 19t-10 45q4 26 25 44.5t52 18.5z" />
    <glyph glyph-name="quotedbl" unicode="&#x22;" horiz-adv-x="327" 
d="M168 700h89l-47 -216h-74zM317 700h88l-46 -216h-74z" />
    <glyph glyph-name="numbersign" unicode="#" horiz-adv-x="678" 
d="M595 438l-68 -181h121l-12 -65h-135l-73 -192h-90l71 192h-140l-73 -192h-91l72 192h-120l13 65h133l70 181h-123l12 66h137l75 196h90l-75 -196h140l77 196h90l-75 -196h121l-12 -66h-135zM505 438h-142l-70 -181h142z" />
    <glyph glyph-name="dollar" unicode="$" horiz-adv-x="602" 
d="M382 397q65 -14 110 -30.5t72 -39.5t36.5 -54t1.5 -74q-8 -44 -30 -80t-56 -62.5t-78.5 -43t-96.5 -20.5l-18 -97h-88l17 99q-95 11 -144.5 64.5t-39.5 138.5h97q-1 -56 38 -91t114 -35q72 0 120.5 31.5t57.5 86.5q8 45 -19.5 70.5t-104.5 43.5l-71 15q-99 24 -140 68.5
t-28 118.5q7 41 29 75t54.5 59.5t74 41.5t87.5 21l17 95h89l-18 -95q51 -5 86 -23.5t56.5 -46.5t29 -63.5t2.5 -75.5h-100q6 57 -28 94.5t-106 37.5q-33 0 -61.5 -8t-51 -23t-37.5 -36t-19 -46q-8 -47 26.5 -73t119.5 -43z" />
    <glyph glyph-name="percent" unicode="%" horiz-adv-x="716" 
d="M420 549q-6 -36 -22 -65t-39.5 -49.5t-52 -31.5t-59.5 -11t-55.5 11t-40.5 31.5t-21.5 49.5t0.5 65q6 37 22.5 66.5t39.5 50t51.5 31.5t59.5 11t56 -11t40.5 -31.5t21.5 -50t-1 -66.5zM734 700l-536 -700h-92l537 700h91zM203 549q-6 -39 9 -62.5t47 -23.5
q33 0 56.5 23.5t29.5 62.5q8 40 -7.5 62.5t-48.5 22.5q-34 0 -56 -22t-30 -63zM589 307q32 0 57 -11t41 -31.5t21.5 -50t-0.5 -65.5q-7 -36 -23 -65t-39 -49.5t-51.5 -31.5t-60.5 -11q-31 0 -56 11t-40.5 31.5t-21 49.5t1.5 65q6 36 22 65.5t38.5 50t51 31.5t59.5 11z
M547 63q32 0 55.5 23t30.5 63q8 40 -8 63.5t-48 23.5t-55 -23t-31 -64q-7 -40 8.5 -63t47.5 -23z" />
    <glyph glyph-name="ampersand" unicode="&#x26;" horiz-adv-x="689" 
d="M663 315q-6 -24 -16 -49t-22.5 -49.5t-27.5 -46.5t-31 -40l109 -130h-107l-69 76q-49 -41 -110.5 -62.5t-127.5 -21.5q-107 0 -153.5 50t-32.5 135q6 30 19.5 59.5t37 55.5t57.5 48.5t80 38.5q-24 28 -37.5 51t-20.5 43.5t-7 39.5t3 38q6 33 23.5 61.5t45 50t63.5 33.5
t77 12q42 0 72.5 -12t49.5 -33t26.5 -50t1.5 -63q-9 -51 -51 -96.5t-129 -87.5l130 -174q20 25 37.5 58t27.5 65h82zM291 546q-2 -13 -1.5 -26t6.5 -28t17.5 -33.5t31.5 -42.5q69 31 100.5 63t37.5 68q8 39 -14 65.5t-65 26.5q-42 0 -74 -27t-39 -66zM284 63q45 0 89.5 19
t78.5 50l-145 193l-41 -21q-52 -28 -72 -59.5t-25 -63.5q-4 -24 0.5 -45.5t19 -37.5t38 -25.5t57.5 -9.5z" />
    <glyph glyph-name="quotesingle" unicode="'" horiz-adv-x="179" 
d="M168 700h89l-47 -216h-74z" />
    <glyph glyph-name="parenleft" unicode="(" horiz-adv-x="310" 
d="M419 740q-34 -39 -64 -87t-55 -101.5t-43 -110t-28 -112.5t-11.5 -113t4 -110.5t19 -101.5t33.5 -86h-93q-46 82 -59 187t8 224q20 118 70.5 222.5t125.5 188.5h93z" />
    <glyph glyph-name="parenright" unicode=")" horiz-adv-x="310" 
d="M243 740q46 -84 59 -188.5t-7 -222.5q-21 -119 -71.5 -224t-125.5 -187h-93q34 38 64.5 86t55 101.5t42.5 110.5t28 113t12 112.5t-4 110t-19 101.5t-34 87h93z" />
    <glyph glyph-name="asterisk" unicode="*" horiz-adv-x="355" 
d="M317 534l53 -86l-60 -40l-45 93l-78 -93l-46 40l83 86l-101 30l31 61l97 -37l16 112h66l-25 -112l111 37l9 -61z" />
    <glyph glyph-name="plus" unicode="+" horiz-adv-x="568" 
d="M569 276h-192l-30 -174h-92l30 174h-191l15 80h191l30 175h92l-30 -175h192z" />
    <glyph glyph-name="comma" unicode="," horiz-adv-x="180" 
d="M-22 -123l93 224h101l-112 -224h-82z" />
    <glyph glyph-name="hyphen" unicode="-" horiz-adv-x="478" 
d="M479 276h-385l15 80h385z" />
    <glyph glyph-name="hyphen" unicode="&#xad;" horiz-adv-x="478" 
d="M479 276h-385l15 80h385z" />
    <glyph glyph-name="period" unicode="." horiz-adv-x="184" 
d="M35 64q5 26 26.5 44.5t53.5 18.5q29 0 44.5 -18.5t11.5 -44.5q-5 -26 -27 -45t-51 -19q-32 0 -47.5 19t-10.5 45z" />
    <glyph glyph-name="slash" unicode="/" horiz-adv-x="392" 
d="M497 700l-376 -700h-103l376 700h103z" />
    <glyph glyph-name="zero" unicode="0" horiz-adv-x="621" 
d="M93 351q15 84 46.5 150.5t76 112t100.5 69.5t119 24t110 -24t75.5 -69.5t37 -112t-6.5 -150.5t-47 -151t-76.5 -113t-100.5 -70.5t-119 -24.5t-110.5 24.5t-75.5 70.5t-36 113t7 151zM547 351q24 134 -12 203.5t-115 69.5t-139 -69.5t-83 -203.5q-24 -136 11 -206
t114 -70q39 0 75 18t65 52.5t50.5 86.5t33.5 119z" />
    <glyph glyph-name="one" unicode="1" horiz-adv-x="408" 
d="M418 700l-123 -700h-101l106 604l-187 -68l15 86l210 78h80z" />
    <glyph glyph-name="two" unicode="2" horiz-adv-x="555" 
d="M528 81l-14 -81h-474l9 60q23 20 59.5 51t78 66t83 70.5t74.5 64.5q44 38 72.5 65t46.5 48.5t26.5 39.5t11.5 37q10 54 -20 90t-96 36q-37 0 -67 -11t-51.5 -30.5t-35 -46t-18.5 -56.5h-93q9 46 30.5 86.5t56.5 71t82.5 48.5t108.5 18q57 0 98 -15.5t66.5 -42t34.5 -63
t1 -78.5q-5 -31 -16.5 -57t-33.5 -53.5t-56 -60t-84 -75.5l-212 -180v-2h332z" />
    <glyph glyph-name="three" unicode="3" horiz-adv-x="589" 
d="M457 355q69 -10 104 -52t23 -116q-7 -39 -29.5 -74.5t-60 -62.5t-89.5 -42.5t-118 -15.5q-63 0 -106.5 18.5t-69.5 49t-34.5 71t-1.5 85.5h94q-3 -26 3 -51.5t22.5 -46t43.5 -33.5t64 -13q75 0 122.5 34t58.5 93q5 29 -3 51t-27.5 36.5t-48.5 21.5t-67 7h-60l14 73h60
q31 0 59 9t50.5 25t38 38.5t20.5 49.5q10 56 -23 87.5t-96 31.5q-34 0 -62.5 -11.5t-51 -31t-37 -46t-20.5 -56.5h-93q9 48 33 89t59.5 71t82.5 47t102 17q58 0 100 -14.5t68 -39t35.5 -58t2.5 -71.5q-12 -71 -55 -111.5t-106 -56.5z" />
    <glyph glyph-name="four" unicode="4" horiz-adv-x="577" 
d="M581 138h-94l-23 -138h-102l23 138h-343l13 68l439 494h89l-85 -482h98zM405 217l59 336l-295 -336h236z" />
    <glyph glyph-name="five" unicode="5" horiz-adv-x="588" 
d="M403 464q50 0 88.5 -17.5t63.5 -48t35 -73t1 -92.5q-9 -51 -33 -95t-62 -76.5t-91 -51t-121 -18.5q-62 0 -105 18.5t-68.5 49t-34 71t-1.5 85.5h94q-3 -26 3 -51.5t22.5 -46t43 -33.5t64.5 -13t70 12t57 33t41.5 50t22.5 64t-0.5 64t-23.5 51t-44 34t-62 12
q-48 0 -87 -17.5t-71 -49.5h-99l107 375h424l-13 -81h-344l-70 -233h3q35 40 84 59t106 19z" />
    <glyph glyph-name="six" unicode="6" horiz-adv-x="604" 
d="M422 465q50 0 89 -17.5t63.5 -48t34.5 -72.5t1 -91q-9 -53 -36.5 -98t-67.5 -77.5t-90.5 -50.5t-105.5 -18t-102 19t-77.5 61t-41 109t6.5 163q15 86 45 154t74 114.5t100.5 71t123.5 24.5q54 0 94.5 -15.5t67 -42.5t39.5 -64t12 -81h-101q-4 59 -33 91t-92 32
q-93 0 -154 -75t-84 -213h2q34 60 94 92.5t138 32.5zM322 72q34 0 65 12.5t56.5 34.5t43 51t23.5 63q6 35 -1.5 64t-25 50.5t-44 33.5t-60.5 12t-65.5 -12t-57 -33t-43 -49t-23.5 -60q-6 -35 1 -65.5t25 -53t45 -35.5t61 -13z" />
    <glyph glyph-name="seven" unicode="7" horiz-adv-x="517" 
d="M628 700l-11 -63l-393 -637h-113l387 619h-377l14 81h493z" />
    <glyph glyph-name="eight" unicode="8" horiz-adv-x="600" 
d="M68 192q13 69 62 115t116 60v1q-55 18 -79.5 59.5t-13.5 99.5q6 37 27.5 70t57 57.5t82.5 39t104 14.5t99 -14.5t68.5 -39t36.5 -57.5t4 -70q-11 -56 -49.5 -98.5t-99.5 -60.5v-1q62 -14 94.5 -60t20.5 -115q-7 -41 -30.5 -77.5t-61.5 -63.5t-90.5 -43t-118.5 -16
q-65 0 -111.5 16t-75 43t-39 63.5t-3.5 77.5zM536 517q5 26 -1.5 47.5t-23 37.5t-42 25t-57.5 9t-60.5 -9t-50.5 -25t-36 -37.5t-19 -47.5q-8 -51 27 -80t98 -29q32 0 60 7.5t50 22t36.5 34.5t18.5 45zM502 203q9 57 -30.5 92t-114.5 35q-36 0 -68 -9.5t-57.5 -26t-41.5 -40
t-21 -51.5q-5 -29 3 -54t27 -43t47.5 -28.5t64.5 -10.5q37 0 69.5 10.5t57.5 28.5t42 43t22 54z" />
    <glyph glyph-name="nine" unicode="9" horiz-adv-x="604" 
d="M630 355q-31 -175 -120 -269t-223 -94q-54 0 -94.5 15t-67 41.5t-39 63.5t-11.5 82h98q5 -59 35 -91t94 -32q91 0 151 75t83 213h-1q-33 -61 -93 -94t-138 -33q-51 0 -89.5 17.5t-63.5 48.5t-34.5 73.5t-0.5 91.5q9 53 36.5 97.5t67.5 77.5t90.5 51.5t105.5 18.5
t101.5 -19.5t77 -61.5t41.5 -109t-6 -163zM213 464q-6 -34 1.5 -63.5t25.5 -51t45.5 -33.5t61.5 -12t65.5 12.5t57 33.5t43 49.5t23.5 60.5q6 35 -1 65.5t-25 52.5t-45.5 34.5t-61.5 12.5t-66 -12.5t-57.5 -34t-43 -51t-23.5 -63.5z" />
    <glyph glyph-name="colon" unicode=":" horiz-adv-x="254" 
d="M139 452q5 26 26 45t53 19q30 0 44.5 -19t10.5 -45q-5 -26 -26 -45t-51 -19q-32 0 -47 19t-10 45zM71 64q4 26 25.5 44.5t53.5 18.5q30 0 44.5 -18.5t10.5 -44.5q-5 -26 -26 -45t-51 -19q-32 0 -47 19t-10 45z" />
    <glyph glyph-name="semicolon" unicode=";" horiz-adv-x="254" 
d="M139 452q5 26 26 45t53 19q30 0 44.5 -19t10.5 -45q-5 -26 -26 -45t-51 -19q-32 0 -47 19t-10 45zM4 -123l94 224h101l-112 -224h-83z" />
    <glyph glyph-name="less" unicode="&#x3c;" horiz-adv-x="549" 
d="M98 284l13 65l498 273l-18 -97l-385 -207l-1 -1l312 -209l-16 -96z" />
    <glyph glyph-name="equal" unicode="=" horiz-adv-x="517" 
d="M126 450h424l-14 -77h-424zM516 258l-14 -77h-424l13 77h425z" />
    <glyph glyph-name="greater" unicode="&#x3e;" horiz-adv-x="549" 
d="M50 12l17 96l386 209l1 1l-313 207l17 97l403 -273l-12 -65z" />
    <glyph glyph-name="question" unicode="?" horiz-adv-x="525" 
d="M386 708q109 0 155 -46.5t29 -136.5q-6 -34 -21.5 -59t-36.5 -45t-44.5 -38t-44.5 -37.5t-37 -43.5t-22 -56l-4 -25h-106l3 16q6 44 23 75t39.5 54.5t48 41t47.5 35t38 36.5t20 45q8 45 -15 73.5t-81 28.5q-64 0 -101.5 -36.5t-53.5 -96.5h-91q9 44 31 83.5t55 68.5
t75.5 46t93.5 17zM292 127q30 0 45 -18.5t11 -44.5q-5 -26 -26.5 -45t-51.5 -19q-31 0 -46 19t-10 45t26 44.5t52 18.5z" />
    <glyph glyph-name="at" unicode="@" horiz-adv-x="841" 
d="M543 667q75 0 140 -22.5t110.5 -66t66 -108t5.5 -148.5q-22 -125 -76 -185.5t-129 -60.5q-40 0 -67 22.5t-32 61.5h-2q-24 -41 -62 -59.5t-78 -18.5q-38 0 -68.5 13.5t-49.5 39t-26 62.5t2 85q7 39 24 75.5t44 64.5t63.5 45t81.5 17q38 0 67 -17t38 -51h1l11 59h67
l-45 -258q-4 -23 -1.5 -37.5t9 -23t15.5 -11.5t19 -3q85 0 118 180q11 63 -2 114t-47 87.5t-87.5 56t-124.5 19.5q-69 0 -130.5 -21t-110.5 -61t-82.5 -97.5t-46.5 -130.5q-26 -149 44.5 -229t225.5 -80q26 0 53 1t57 5l-13 -71q-29 -3 -55.5 -4t-54.5 -1q-91 0 -160.5 25.5
t-113 74t-59.5 119t0 160.5q15 86 55 155.5t100 119t138 76.5t168 27zM438 149q48 0 82 36t46 102q11 63 -10.5 97t-71.5 34q-48 0 -83 -37t-46 -99q-4 -23 -2 -47t11.5 -43t27.5 -31t46 -12z" />
    <glyph glyph-name="A" unicode="A" horiz-adv-x="640" 
d="M529 0l-30 172h-300l-90 -172h-108l380 700h124l134 -700h-110zM490 248l-64 354h-3l-187 -354h254z" />
    <glyph glyph-name="B" unicode="B" horiz-adv-x="617" 
d="M476 355q73 -6 109.5 -51.5t23.5 -119.5q-16 -88 -88.5 -136t-184.5 -48h-284l123 700h241q115 0 175 -42t45 -129q-6 -31 -19.5 -60t-33.5 -52t-46.5 -39t-58.5 -21zM364 385q67 0 111.5 34t53.5 89q10 52 -23 82.5t-101 30.5h-143l-42 -236h144zM325 79
q78 0 124.5 28.5t56.5 88.5q11 60 -28 89.5t-118 29.5h-153l-41 -236h159z" />
    <glyph glyph-name="C" unicode="C" horiz-adv-x="673" 
d="M368 75q70 0 124.5 34.5t81.5 97.5h103q-18 -49 -49 -89t-73 -68t-93.5 -43t-108.5 -15q-75 0 -129.5 24.5t-87 71t-42 113.5t5.5 151q15 83 48 149t82 112t112.5 70.5t137.5 24.5q56 0 101 -16.5t77.5 -46t50 -70.5t17.5 -91h-102q-5 63 -47.5 101.5t-111.5 38.5
q-102 0 -171 -71.5t-92 -200.5q-11 -65 -5.5 -116.5t26.5 -87t57.5 -54.5t87.5 -19z" />
    <glyph glyph-name="D" unicode="D" horiz-adv-x="665" 
d="M403 700q80 0 139.5 -23t97 -67.5t50.5 -109.5t-2 -148q-15 -84 -51 -149.5t-89 -110.5t-121.5 -68.5t-148.5 -23.5h-226l123 700h228zM280 79q59 0 109 18t89 52.5t65 85.5t38 116q23 129 -31.5 198.5t-171.5 69.5h-115l-95 -540h112z" />
    <glyph glyph-name="E" unicode="E" horiz-adv-x="564" 
d="M263 619l-41 -230h313l-14 -79h-312l-41 -231h364l-13 -79h-467l123 700h466l-13 -81h-365z" />
    <glyph glyph-name="F" unicode="F" horiz-adv-x="557" 
d="M262 619l-41 -230h314l-14 -79h-314l-54 -310h-101l123 700h466l-13 -81h-366z" />
    <glyph glyph-name="G" unicode="G" horiz-adv-x="692" 
d="M703 288q-11 -62 -37 -116t-69 -94t-103 -63t-139 -23q-74 0 -129 24.5t-88 71t-43 113.5t5 151q15 83 49 149t84 112t114 70.5t137 24.5q56 0 102.5 -16.5t80.5 -46t52.5 -70.5t18.5 -91h-102q-3 32 -16 57.5t-35 44t-51.5 28.5t-64.5 10q-50 0 -93.5 -18.5t-78.5 -53.5
t-59.5 -85.5t-35.5 -114.5q-11 -65 -5 -116.5t27.5 -87t58.5 -54.5t87 -19q51 0 90 15t67.5 41.5t46 61t24.5 73.5l4 25h-175l14 75h275z" />
    <glyph glyph-name="H" unicode="H" horiz-adv-x="677" 
d="M748 700l-123 -700h-102l54 310h-370l-54 -310h-101l123 700h101l-55 -311h370l54 311h103z" />
    <glyph glyph-name="I" unicode="I" horiz-adv-x="218" 
d="M181 700h101l-122 -700h-101z" />
    <glyph glyph-name="J" unicode="J" horiz-adv-x="529" 
d="M595 700l-86 -489q-20 -111 -91 -165t-176 -54q-49 0 -87.5 15t-64 43t-36 68t-1.5 89h100q-6 -36 0.5 -61t22 -41t37 -23t44.5 -7q24 0 48 6.5t44.5 22.5t36 43t22.5 67l86 486h101z" />
    <glyph glyph-name="K" unicode="K" horiz-adv-x="621" 
d="M604 0h-111q-25 59 -49 112q-10 23 -20 46.5t-20 45.5t-18.5 41t-14.5 32q-11 25 -30 42t-50 22l-90 -74l-47 -267h-102l123 700h102l-55 -311l372 311h122l-357 -299q34 -5 62.5 -24.5t42.5 -50.5z" />
    <glyph glyph-name="L" unicode="L" horiz-adv-x="509" 
d="M175 700h101l-110 -621h338l-14 -79h-438z" />
    <glyph glyph-name="M" unicode="M" horiz-adv-x="808" 
d="M879 700l-123 -700h-100l94 539h-2l-314 -539h-59l-128 539h-3l-94 -539h-98l123 700h128l125 -553h3l317 553h131z" />
    <glyph glyph-name="N" unicode="N" horiz-adv-x="670" 
d="M741 700l-123 -700h-91l-279 536h-2l-95 -536h-99l123 700h91l277 -532h3l94 532h101z" />
    <glyph glyph-name="O" unicode="O" horiz-adv-x="711" 
d="M480 708q75 0 130.5 -25t89.5 -71.5t44.5 -112.5t-3.5 -148q-15 -84 -49.5 -150.5t-84.5 -113t-114.5 -71t-139.5 -24.5q-76 0 -131.5 24.5t-89 71t-44 113t4.5 150.5q14 82 48 148t84 112.5t114.5 71.5t140.5 25zM368 76q51 0 95 19t78.5 54.5t59 86.5t35.5 115
q23 128 -23 199t-148 71q-52 0 -96 -18.5t-78 -53t-58 -85t-35 -113.5q-23 -129 22 -202t148 -73z" />
    <glyph glyph-name="P" unicode="P" horiz-adv-x="568" 
d="M435 700q103 0 153 -49.5t33 -146.5t-85 -147.5t-172 -50.5h-158l-53 -306h-101l123 700h260zM359 385q69 0 112 28.5t54 90.5q11 64 -24 89.5t-109 25.5h-130l-42 -234h139z" />
    <glyph glyph-name="Q" unicode="Q" horiz-adv-x="711" 
d="M704 33l-15 -85l-349 44q-45 5 -80 13.5t-64 25.5q-74 42 -99 123.5t-4 196.5q14 82 48 148t84 112.5t114.5 71.5t140.5 25q75 0 130.5 -25t89.5 -71.5t44.5 -112.5t-3.5 -148q-22 -121 -87 -196t-157 -106l-2 -4zM198 351q-23 -128 21.5 -200t146.5 -72q52 0 96.5 18.5
t79 53t59 85.5t35.5 115q23 128 -23 199t-148 71q-52 0 -96 -18.5t-78 -53t-58 -85t-35 -113.5z" />
    <glyph glyph-name="R" unicode="R" horiz-adv-x="609" 
d="M461 0l-119 306h-136l-53 -306h-101l123 700h279q104 0 154 -49.5t33 -146.5q-14 -78 -64.5 -126.5t-131.5 -59.5l125 -318h-109zM220 385h158q70 0 112.5 28.5t53.5 90.5q11 61 -21.5 88t-102.5 27h-158z" />
    <glyph glyph-name="S" unicode="S" horiz-adv-x="602" 
d="M426 386q105 -22 147 -66t29 -121q-8 -48 -33.5 -86t-65.5 -65t-91.5 -41.5t-112.5 -14.5q-59 0 -104.5 15t-75.5 42t-43.5 65t-7.5 84h97q-1 -56 38 -91t114 -35q72 0 120.5 32t57.5 86q8 45 -20 71t-104 43l-71 15q-99 23 -140 68t-28 119q8 45 34 82t64.5 64t87 41.5
t101.5 14.5q62 0 106.5 -16.5t71.5 -45.5t37.5 -68t4.5 -84h-100q6 57 -28 94.5t-106 37.5q-33 0 -61.5 -8t-51 -23t-37.5 -36t-19 -46q-8 -45 20 -70t100 -40z" />
    <glyph glyph-name="T" unicode="T" horiz-adv-x="551" 
d="M651 619h-216l-109 -619h-101l109 619h-215l13 81h533z" />
    <glyph glyph-name="U" unicode="U" horiz-adv-x="659" 
d="M198 257q-16 -84 22.5 -131.5t121.5 -47.5q85 0 139.5 47t69.5 132l78 443h101l-80 -453q-10 -58 -38 -105.5t-70 -80.5t-97 -51t-119 -18q-63 0 -111 18t-78.5 51t-41.5 80.5t-1 105.5l81 453h101z" />
    <glyph glyph-name="V" unicode="V" horiz-adv-x="640" 
d="M258 0l-134 700h108l102 -600h3l315 600h109l-379 -700h-124z" />
    <glyph glyph-name="W" unicode="W" horiz-adv-x="914" 
d="M1025 700l-309 -700h-102l-60 547h-4l-250 -547h-102l-63 700h105l38 -561h3l254 561h90l55 -561h2l238 561h105z" />
    <glyph glyph-name="X" unicode="X" horiz-adv-x="632" 
d="M498 0l-131 285h-3l-230 -285h-119l293 351l-169 349h119l130 -288h2l231 288h119l-292 -349l169 -351h-119z" />
    <glyph glyph-name="Y" unicode="Y" horiz-adv-x="613" 
d="M412 315l-55 -315h-102l56 318l-183 382h120l130 -288h1l231 288h120z" />
    <glyph glyph-name="Z" unicode="Z" horiz-adv-x="609" 
d="M577 81l-13 -81h-519l11 67l486 552h-378l13 81h503l-13 -68l-480 -550v-1h390z" />
    <glyph glyph-name="bracketleft" unicode="[" horiz-adv-x="357" 
d="M310 667l-120 -679h140l-12 -70h-233l144 822h234l-13 -73h-140z" />
    <glyph glyph-name="backslash" unicode="\" horiz-adv-x="392" 
d="M374 0h-104l-129 700h102z" />
    <glyph glyph-name="bracketright" unicode="]" horiz-adv-x="357" 
d="M154 740h234l-145 -822h-233l12 70h140l120 679h-140z" />
    <glyph glyph-name="asciicircum" unicode="^" horiz-adv-x="400" 
d="M458 484h-87l-63 134h-2l-110 -134h-85l174 216h74z" />
    <glyph glyph-name="underscore" unicode="_" horiz-adv-x="580" 
d="M534 -111h-529l14 77h528z" />
    <glyph glyph-name="grave" unicode="`" horiz-adv-x="228" 
d="M303 484h-89l-82 216h110z" />
    <glyph glyph-name="a" unicode="a" horiz-adv-x="569" 
d="M332 517q74 0 114 -29.5t51 -80.5h1l18 103h94l-89 -510h-98l16 97h-1q-29 -53 -80 -79t-107 -26q-47 0 -84.5 16.5t-61.5 49.5t-32.5 82t2.5 114q11 62 36 110.5t59.5 82.5t76 52t85.5 18zM289 71q33 0 62.5 13.5t52.5 37.5t39.5 58t23.5 75q8 42 3.5 76t-19.5 58
t-40 37t-58 13t-62.5 -13t-53 -37t-40 -58.5t-24.5 -76.5q-14 -85 18 -134t98 -49z" />
    <glyph glyph-name="b" unicode="b" horiz-adv-x="569" 
d="M418 517q45 0 80.5 -18t57.5 -52t29 -82.5t-4 -110.5q-10 -61 -35 -110t-59.5 -82.5t-75.5 -51.5t-85 -18q-65 0 -108 29t-56 80h-1l-18 -101h-95l123 700h99l-52 -293h2q32 54 82.5 82t115.5 28zM303 70q33 0 63 13t53.5 37t40 58t23.5 76q16 85 -16 134.5t-99 49.5
q-33 0 -61.5 -13.5t-52 -37.5t-39.5 -58t-24 -75q-14 -85 16 -134.5t96 -49.5z" />
    <glyph glyph-name="c" unicode="c" horiz-adv-x="535" 
d="M293 68q48 0 87 24t57 68h94q-25 -79 -92.5 -123.5t-160.5 -44.5q-113 0 -165.5 68t-30.5 194q11 62 36.5 111t63 83t85 51.5t103.5 17.5q46 0 82.5 -12t62 -34.5t38.5 -54.5t11 -71h-93q-3 44 -33.5 70t-78.5 26q-67 0 -115 -49.5t-64 -137.5q-15 -87 16 -136.5
t97 -49.5z" />
    <glyph glyph-name="d" unicode="d" horiz-adv-x="570" 
d="M332 517q66 0 106.5 -28t54.5 -82h1l52 293h99l-122 -700h-96l18 101h-3q-29 -51 -83.5 -80t-119.5 -29q-44 0 -79.5 18t-58 51.5t-30 82.5t3.5 110q11 62 35.5 110.5t58.5 82.5t75.5 52t87.5 18zM288 70q33 0 62 13t53 37t40.5 58t23.5 76q8 41 3.5 75t-19.5 58
t-40 37.5t-58 13.5q-66 0 -114.5 -49.5t-63.5 -134.5q-14 -85 16 -134.5t97 -49.5z" />
    <glyph glyph-name="e" unicode="e" horiz-adv-x="549" 
d="M176 235q-13 -79 19.5 -123.5t97.5 -44.5q54 0 90.5 24t57.5 69h93q-32 -83 -96 -125.5t-160 -42.5q-114 0 -166 67.5t-30 195.5q11 61 36.5 109.5t62.5 82.5t84.5 52t102.5 18t95 -18t64 -51t32 -80t-2 -105l-6 -28h-375zM356 442q-30 0 -57 -10.5t-49 -30t-38 -46.5
t-24 -60h281q10 65 -21 106t-92 41z" />
    <glyph glyph-name="f" unicode="f" horiz-adv-x="327" 
d="M438 628q-20 2 -35.5 2h-24.5q-34 -2 -49.5 -19t-22.5 -54l-9 -47h96l-11 -68h-95l-103 -578h-99l102 578h-85l11 68h85l8 47q14 81 61 115.5t119 34.5q16 0 31.5 -2t32.5 -6z" />
    <glyph glyph-name="g" unicode="g" horiz-adv-x="569" 
d="M610 510l-86 -494q-9 -50 -34 -87.5t-61 -62t-81.5 -37t-95.5 -12.5q-43 0 -80 8t-64 26t-43.5 46.5t-19.5 68.5h97q5 -22 16 -36t27.5 -22t36 -11t40.5 -3q30 0 57 6.5t49 21.5t37 40.5t22 63.5l15 90h-1q-32 -60 -82.5 -84.5t-114.5 -24.5q-45 0 -80.5 17.5t-58.5 50.5
t-31 79.5t2 104.5q11 60 36 108t60 81.5t76.5 51t85.5 17.5q65 0 107.5 -26t55.5 -83h1l18 102h94zM291 85q33 0 62 12.5t52.5 35.5t40 55.5t23.5 72.5q7 39 2.5 72t-20 56.5t-40.5 36.5t-58 13t-62 -13t-52 -36.5t-39.5 -56.5t-23.5 -74q-14 -79 17.5 -126.5t97.5 -47.5z
" />
    <glyph glyph-name="h" unicode="h" horiz-adv-x="555" 
d="M409 517q89 0 130.5 -49.5t22.5 -157.5l-54 -310h-97l50 293q27 146 -102 146q-31 0 -58.5 -13t-49.5 -36t-37 -55t-22 -70l-46 -265h-98l123 700h96l-53 -304q30 63 80 92t115 29z" />
    <glyph glyph-name="i" unicode="i" horiz-adv-x="235" 
d="M240 703q27 0 41 -16.5t10 -39.5q-5 -25 -24 -41.5t-46 -16.5q-28 0 -41.5 16.5t-8.5 41.5q4 23 22.5 39.5t46.5 16.5zM157 510h98l-89 -510h-98z" />
    <glyph glyph-name="j" unicode="j" horiz-adv-x="239" 
d="M244 703q27 0 41 -16.5t10 -39.5q-5 -25 -24 -41.5t-46 -16.5q-29 0 -42 16.5t-8 41.5q4 23 22 39.5t47 16.5zM160 510h98l-96 -545q-14 -81 -60.5 -114.5t-115.5 -33.5q-16 0 -33 1.5t-32 5.5l12 72q11 -2 20 -3t18 -1q38 0 62 16t31 59z" />
    <glyph glyph-name="k" unicode="k" horiz-adv-x="523" 
d="M504 0h-111q-7 17 -19.5 44t-26 55.5t-26 55.5t-19.5 44q-8 19 -21 29t-31 15l-73 -57l-31 -186h-98l123 700h98l-73 -408l267 218h120l-266 -213q24 -4 43.5 -16t29.5 -35z" />
    <glyph glyph-name="l" unicode="l" horiz-adv-x="284" 
d="M281 75l-12 -71q-35 -7 -67 -7q-78 0 -100.5 42t-7.5 127l94 535h100l-97 -550q-8 -43 4.5 -61t61.5 -18q6 0 11.5 1t12.5 2z" />
    <glyph glyph-name="m" unicode="m" horiz-adv-x="831" 
d="M708 520q79 0 114 -49t20 -134l-59 -337h-98l55 315q10 57 -11 91.5t-74 34.5q-27 0 -50 -11t-40.5 -30t-29.5 -44.5t-18 -55.5l-52 -300h-98l55 315q10 57 -12.5 91.5t-73.5 34.5q-26 0 -49 -11t-41.5 -31t-31 -47.5t-18.5 -59.5l-50 -292h-98l88 510h95l-18 -101h1
q26 53 70 82t105 29q60 0 93 -30.5t41 -81.5h1q28 53 74.5 82.5t109.5 29.5z" />
    <glyph glyph-name="n" unicode="n" horiz-adv-x="555" 
d="M409 517q89 0 130.5 -49.5t22.5 -157.5l-54 -310h-97l50 293q27 146 -102 146q-31 0 -58.5 -13t-49.5 -36t-37 -55t-22 -70l-46 -265h-98l88 510h97l-19 -114q30 63 80 92t115 29z" />
    <glyph glyph-name="o" unicode="o" horiz-adv-x="549" 
d="M364 517q56 0 98.5 -17.5t68.5 -51.5t35 -83t-2 -111t-37 -110.5t-64.5 -82.5t-86.5 -51.5t-104 -17.5t-98 17.5t-68.5 51.5t-35 82.5t1.5 110.5q11 62 37.5 111t64.5 83t86.5 51.5t103.5 17.5zM285 68q32 0 62 12.5t54.5 36.5t42 58.5t24.5 78.5q8 45 3 79.5t-21 58.5
t-41.5 36.5t-57.5 12.5q-65 0 -115 -48.5t-67 -138.5q-15 -89 18 -137.5t98 -48.5z" />
    <glyph glyph-name="p" unicode="p" horiz-adv-x="569" 
d="M418 517q44 0 79 -18t57.5 -52t30 -82.5t-3.5 -110.5q-11 -65 -37 -114t-61.5 -82t-79.5 -49.5t-91 -16.5q-55 0 -96.5 26t-51.5 79h-2l-47 -274h-99l120 687h95l-18 -103h1q29 51 79 80.5t125 29.5zM304 71q33 0 62.5 13t53 36.5t40 57.5t23.5 76q16 85 -16 135t-99 50
q-66 0 -114.5 -50t-63.5 -134q-14 -83 17 -133.5t97 -50.5z" />
    <glyph glyph-name="q" unicode="q" horiz-adv-x="569" 
d="M332 517q74 0 114 -29.5t51 -80.5h1l18 103h94l-120 -687h-98l47 274h-1q-29 -53 -80 -79t-107 -26q-47 0 -84.5 16.5t-61.5 49.5t-32.5 82t2.5 114q11 62 36 110.5t59.5 82.5t76 52t85.5 18zM289 71q33 0 62.5 13.5t52.5 37.5t39.5 58t23.5 75q8 42 3.5 76t-19.5 58
t-40 37t-58 13t-62.5 -13t-53 -37t-40 -58.5t-24.5 -76.5q-14 -85 18 -134t98 -49z" />
    <glyph glyph-name="r" unicode="r" horiz-adv-x="349" 
d="M221 411q23 49 64.5 77.5t98.5 28.5q22 0 42 -4l-14 -79q-16 4 -36 4q-35 0 -65.5 -14t-54.5 -37.5t-40 -55t-22 -66.5l-47 -265h-97l89 510h96l-17 -99h3z" />
    <glyph glyph-name="s" unicode="s" horiz-adv-x="488" 
d="M315 291q47 -10 80.5 -22t54 -28.5t28 -38.5t2.5 -53q-13 -72 -76 -114.5t-160 -42.5q-38 0 -72.5 9t-60.5 28t-40 48.5t-11 71.5h94q-1 -39 27.5 -63.5t76.5 -24.5t81 21t39 57q5 26 -12.5 43.5t-68.5 28.5l-65 14q-145 33 -127 138q7 36 28 64t52 47.5t69 29.5t78 10
q37 0 69.5 -9t56.5 -28t36 -49.5t8 -72.5h-90q3 43 -23 65.5t-71 22.5q-43 0 -76.5 -21t-39.5 -54q-5 -29 21 -45.5t92 -31.5z" />
    <glyph glyph-name="t" unicode="t" horiz-adv-x="340" 
d="M278 72q11 0 21.5 1t23.5 3l-12 -72q-14 -3 -26.5 -5t-26.5 -2q-40 -2 -68 6t-43.5 27.5t-19.5 52t5 81.5l49 278h-83l11 68h86l23 127h97l-23 -127h101l-11 -68h-101l-52 -291q-7 -41 2.5 -59t46.5 -20z" />
    <glyph glyph-name="u" unicode="u" horiz-adv-x="555" 
d="M596 510l-88 -510h-96l19 113h-1q-18 -35 -42 -58t-51 -37t-54.5 -20t-53.5 -6q-88 0 -127 50t-20 157l54 311h99l-52 -296q-13 -73 11 -108.5t90 -35.5q31 0 58.5 13t49.5 36t37.5 55t22.5 70l46 266h98z" />
    <glyph glyph-name="v" unicode="v" horiz-adv-x="499" 
d="M314 0h-126l-94 510h105l66 -429h1l214 429h103z" />
    <glyph glyph-name="w" unicode="w" horiz-adv-x="745" 
d="M599 0h-112l-41 413h-3l-185 -413h-112l-45 510h101l23 -420h3l185 420h97l40 -420h3l170 420h98z" />
    <glyph glyph-name="x" unicode="x" horiz-adv-x="509" 
d="M379 0l-90 203h-1l-158 -203h-110l212 257l-123 253h109l89 -200h1l160 200h109l-214 -253l125 -257h-109z" />
    <glyph glyph-name="y" unicode="y" horiz-adv-x="498" 
d="M580 510q-7 -16 -22.5 -46t-36 -69t-45 -85t-50.5 -94.5t-52.5 -98t-50.5 -94.5q-34 -65 -63.5 -106t-61 -63.5t-67.5 -29.5t-82 -4q-11 0 -19 1t-19 6l12 69q11 -1 19.5 -1.5t18.5 -0.5q24 0 41.5 1.5t32.5 10t29.5 25.5t31.5 49l-100 530h106l61 -429h2l211 429h104z
" />
    <glyph glyph-name="z" unicode="z" horiz-adv-x="491" 
d="M458 74l-12 -74h-401l10 56l350 379h-284l13 75h401l-11 -64l-344 -370v-2h278z" />
    <glyph glyph-name="braceleft" unicode="{" horiz-adv-x="383" 
d="M311 458q-5 -29 -18.5 -51t-30 -38.5t-34 -26.5t-30.5 -15v-1q39 -11 58 -41.5t9 -86.5l-23 -135q-8 -46 11.5 -60.5t61.5 -14.5h41l-12 -70h-56q-84 0 -118.5 33.5t-20.5 115.5l22 121q8 48 -11 76t-70 32l11 64q53 5 82 32.5t37 75.5l20 120q16 84 63 118t130 34h55
l-12 -73h-41q-25 0 -43 -4.5t-30 -16.5t-19.5 -33t-13.5 -55z" />
    <glyph glyph-name="bar" unicode="|" horiz-adv-x="288" 
d="M329 798l-160 -902h-88l159 902h89z" />
    <glyph glyph-name="braceright" unicode="}" horiz-adv-x="383" 
d="M247 543q7 38 8 62.5t-5.5 38t-22.5 18.5t-44 5h-41l12 73h55q90 0 121.5 -37.5t14.5 -130.5l-18 -104q-8 -48 11 -75.5t70 -32.5l-11 -64q-53 -4 -82 -32t-37 -76l-19 -105q-7 -45 -21.5 -76.5t-37.5 -51t-56.5 -28.5t-79.5 -9h-54l12 70h41q41 0 66 14.5t33 60.5
l24 135q10 56 40.5 86.5t73.5 41.5q-12 5 -26.5 15.5t-25.5 26.5t-16 38t0 52z" />
    <glyph glyph-name="asciitilde" unicode="~" horiz-adv-x="570" 
d="M243 323q-27 0 -48 -22t-29 -66h-79q14 79 55 124t106 45q32 0 55.5 -14.5t44 -32t40.5 -32t45 -14.5q29 0 51.5 23t31.5 69h79q-7 -39 -22.5 -70.5t-37.5 -54t-49 -35t-58 -12.5q-33 0 -57 14.5t-44.5 31.5t-40 31.5t-43.5 14.5z" />
    <glyph glyph-name="uni008E" horiz-adv-x="609" 
d="M408 755l-101 210h86l63 -134h2l110 134h87l-175 -210h-72zM577 81l-13 -81h-519l11 67l486 552h-378l13 81h503l-13 -68l-480 -550v-1h390z" />
    <glyph glyph-name="uni008E" unicode="&#x17d;" horiz-adv-x="609" 
d="M408 755l-101 210h86l63 -134h2l110 134h87l-175 -210h-72zM577 81l-13 -81h-519l11 67l486 552h-378l13 81h503l-13 -68l-480 -550v-1h390z" />
    <glyph glyph-name="uni009E" horiz-adv-x="491" 
d="M319 576l-99 210h84l63 -135h4l109 135h88l-176 -210h-73zM458 74l-12 -74h-401l10 56l350 379h-284l13 75h401l-11 -64l-344 -370v-2h278z" />
    <glyph glyph-name="uni009E" unicode="&#x17e;" horiz-adv-x="491" 
d="M319 576l-99 210h84l63 -135h4l109 135h88l-176 -210h-73zM458 74l-12 -74h-401l10 56l350 379h-284l13 75h401l-11 -64l-344 -370v-2h278z" />
    <glyph glyph-name="uni00A0" unicode="&#xa0;" horiz-adv-x="321" 
 />
    <glyph glyph-name="exclamdown" unicode="&#xa1;" horiz-adv-x="251" 
d="M205 454q-31 0 -45.5 19.5t-9.5 45.5t26 45t52 19q29 0 44.5 -19t11.5 -45q-5 -26 -27.5 -45.5t-51.5 -19.5zM205 168l-51 -285h-101l51 285l41 194h87z" />
    <glyph glyph-name="cent" unicode="&#xa2;" horiz-adv-x="535" 
d="M434 613l-18 -100q71 -9 110 -54.5t38 -113.5h-93q-3 44 -33.5 70t-78.5 26q-67 0 -115 -49.5t-64 -137.5q-15 -87 16 -136.5t97 -49.5q48 0 87 24t57 68h94q-24 -69 -77.5 -112t-128.5 -53l-18 -99h-90l18 99q-91 11 -132 78.5t-21 180.5t85 180.5t159 78.5l18 100h90z
" />
    <glyph glyph-name="sterling" unicode="&#xa3;" horiz-adv-x="585" 
d="M116 347h85q-4 21 -10.5 43.5t-12 44t-8 42.5t0.5 40q7 41 26.5 76t51 60.5t75 40t100.5 14.5q61 0 101.5 -18t63.5 -48.5t29.5 -71t-0.5 -86.5h-93q5 30 1.5 56.5t-16.5 46t-37.5 30.5t-61.5 11q-65 0 -100.5 -32.5t-43.5 -83.5q-2 -14 1.5 -32.5t9.5 -40t12 -45
t7 -47.5h219l-12 -71h-212q-7 -34 -18 -60t-25.5 -48t-31.5 -42.5t-37 -42.5v-2h379l-13 -81h-494l9 61q24 25 46 47t40.5 46t33.5 53t24 69h-101z" />
    <glyph glyph-name="currency" unicode="&#xa4;" horiz-adv-x="524" 
d="M120 323q11 61 55 110l-45 54l61 52l45 -55q26 18 56 27t60 9q62 0 102 -36l63 55l48 -51l-68 -55q13 -24 17.5 -52t-0.5 -58q-5 -31 -19 -58t-37 -51l47 -54l-63 -54l-45 55q-26 -19 -55 -26.5t-60 -7.5q-29 0 -56 8.5t-47 25.5l-66 -56l-39 55l62 54q-14 24 -17.5 51
t1.5 58zM192 323q-4 -25 1.5 -47.5t19.5 -39.5t35 -27.5t47 -10.5t50.5 10.5t44.5 27.5t33.5 39.5t17.5 47.5q5 25 -1 47.5t-20 40t-35 27.5t-47 10t-50 -10t-44 -27.5t-33.5 -40t-18.5 -47.5z" />
    <glyph glyph-name="yen" unicode="&#xa5;" horiz-adv-x="613" 
d="M292 370l-164 330h120l130 -288h1l231 288h120l-281 -330h134l-11 -67h-161l-14 -76h161l-12 -67h-161l-28 -160h-102l27 160h-161l13 67h161l13 76h-161l11 67h134z" />
    <glyph glyph-name="brokenbar" unicode="&#xa6;" horiz-adv-x="288" 
d="M329 798l-57 -320h-89l57 320h89zM225 214l-56 -318h-88l55 318h89z" />
    <glyph glyph-name="section" unicode="&#xa7;" horiz-adv-x="495" 
d="M291 154q-63 14 -105 29.5t-66.5 34.5t-32 43t-1.5 57q4 24 15.5 44.5t28 36t36.5 27t41 17.5q-46 18 -64 53.5t-11 77.5q6 35 27.5 62.5t53.5 47t73 29.5t87 10q39 0 76 -8t64 -26.5t42 -49.5t11 -77h-86q-5 45 -36 63.5t-87 18.5q-51 0 -86.5 -19t-41.5 -53
q-4 -28 15.5 -46t73.5 -31q63 -14 105 -29t66.5 -33.5t32.5 -42.5t2 -57q-9 -51 -45 -84t-79 -46q42 -20 64 -51.5t15 -73.5q-6 -35 -27 -62.5t-53 -47t-74 -29.5t-89 -10q-39 0 -75.5 8t-64 26t-42.5 48.5t-12 75.5h86q8 -45 39.5 -62.5t80.5 -17.5q22 0 44 5t40.5 14
t31 22.5t15.5 29.5q5 28 -14.5 46.5t-73.5 29.5zM430 325q4 23 -5 39t-26.5 27t-41 16t-47.5 5q-58 0 -91 -25t-40 -62q-6 -35 22 -61.5t99 -26.5q57 0 90.5 25.5t39.5 62.5z" />
    <glyph glyph-name="dieresis" unicode="&#xa8;" horiz-adv-x="460" 
d="M171 639q4 23 25 41.5t47 18.5q25 0 39 -18.5t10 -41.5q-4 -26 -25 -44.5t-46 -18.5q-26 0 -40.5 18.5t-9.5 44.5zM392 639q4 23 25 41.5t47 18.5q12 0 22 -5t16.5 -13.5t9.5 -19t1 -22.5q-2 -13 -9 -24.5t-17 -20t-21.5 -13.5t-23.5 -5q-26 0 -40.5 18.5t-9.5 44.5z" />
    <glyph glyph-name="copyright" unicode="&#xa9;" horiz-adv-x="819" 
d="M91 342q14 78 56 147t102 120.5t134.5 81t152.5 29.5t142 -29.5t106 -81t59.5 -120.5t3.5 -147q-13 -78 -55 -146.5t-102.5 -120t-134.5 -81t-152 -29.5t-142 29.5t-106 81t-59.5 120t-4.5 146.5zM160 342q-11 -64 3 -120.5t48.5 -98.5t87 -66t116.5 -24q65 0 125.5 24
t110 66t84 98.5t45.5 120.5q12 65 -2.5 121.5t-49.5 99t-87 67t-117 24.5q-64 0 -125 -24.5t-110.5 -67t-83.5 -99t-45 -121.5zM450 195q39 0 69 19.5t46 55.5h74q-21 -63 -74.5 -99t-125.5 -36q-91 0 -133 57t-24 159t79.5 158t152.5 56q35 0 63 -10t48 -28t31 -43.5
t11 -56.5h-73q-4 35 -27.5 56.5t-61.5 21.5q-57 0 -96 -40.5t-52 -113.5q-13 -75 11.5 -115.5t81.5 -40.5z" />
    <glyph glyph-name="ordfeminine" unicode="&#xaa;" horiz-adv-x="370" 
d="M318 708q60 0 90 -29.5t22 -78.5l-36 -204h-69l9 54h-1q-17 -29 -51 -44.5t-66 -15.5q-45 0 -69.5 25t-16.5 67q7 43 41.5 66t94.5 28l89 5l2 15q5 28 -8.5 44t-42.5 16q-58 0 -75 -46h-66q14 45 54 71.5t99 26.5zM347 540l-77 -5q-31 -2 -48 -15t-21 -33q-4 -22 9.5 -35
t36.5 -13q17 0 33 6.5t29 17t22 24.5t11 29z" />
    <glyph glyph-name="guillemotleft" unicode="&#xab;" horiz-adv-x="914" 
d="M609 622l-18 -97l-385 -207l-1 -1l312 -209l-16 -96l-403 272l13 65zM974 622l-17 -97l-385 -207l-2 -1l313 -209l-17 -96l-402 272l12 65z" />
    <glyph glyph-name="logicalnot" unicode="&#xac;" horiz-adv-x="478" 
d="M364 150l22 126h-292l15 80h385l-37 -206h-93z" />
    <glyph glyph-name="registered" unicode="&#xae;" horiz-adv-x="819" 
d="M91 342q14 78 56 147t102 120.5t134.5 81t152.5 29.5t142 -29.5t106 -81t59.5 -120.5t3.5 -147q-13 -78 -55 -146.5t-102.5 -120t-134.5 -81t-152 -29.5t-142 29.5t-106 81t-59.5 120t-4.5 146.5zM160 342q-11 -64 3 -120.5t48.5 -98.5t87 -66t116.5 -24q65 0 125.5 24
t110 66t84 98.5t45.5 120.5q12 65 -2.5 121.5t-49.5 99t-87 67t-117 24.5q-64 0 -125 -24.5t-110.5 -67t-83.5 -99t-45 -121.5zM542 141l-69 177h-69l-31 -177h-74l74 418h176q61 0 91.5 -30.5t19.5 -89.5q-8 -46 -36.5 -75t-76.5 -37l74 -186h-79zM413 375h88q38 0 61.5 16
t28.5 48q6 33 -12 48t-56 15h-88z" />
    <glyph glyph-name="macron" unicode="&#xaf;" horiz-adv-x="580" 
d="M685 748h-528l14 76h528z" />
    <glyph glyph-name="degree" unicode="&#xb0;" horiz-adv-x="397" 
d="M267 393q-74 0 -111 43.5t-25 113.5q6 35 22.5 64t41.5 50t57.5 32.5t70.5 11.5q36 0 64.5 -11.5t46.5 -32.5t25 -50t1 -64t-23.5 -64t-43 -49.5t-58 -32t-68.5 -11.5zM281 465q45 0 68.5 23.5t31.5 61.5q7 41 -10.5 64t-59.5 23q-45 0 -69 -23t-32 -64q-7 -38 9.5 -61.5
t61.5 -23.5z" />
    <glyph glyph-name="plusminus" unicode="&#xb1;" horiz-adv-x="568" 
d="M574 307h-192l-30 -169h-91l30 169h-191l13 75h191l30 169h92l-30 -169h192zM521 0h-475l13 74h475z" />
    <glyph glyph-name="twosuperior" unicode="&#xb2;" horiz-adv-x="386" 
d="M415 423l-10 -57h-292l7 42q11 10 33 28t47.5 39.5t51 43.5t44.5 39q25 21 41.5 36.5t26.5 27.5t15 22.5t6 20.5q6 30 -10 49.5t-54 19.5q-42 0 -65.5 -24.5t-28.5 -57.5h-67q5 28 18 53t34.5 44t51 30t68.5 11q72 0 102.5 -34.5t21.5 -85.5q-3 -19 -10 -34.5t-20 -32
t-33.5 -35t-50.5 -44.5l-117 -100v-1h190z" />
    <glyph glyph-name="threesuperior" unicode="&#xb3;" horiz-adv-x="408" 
d="M374 579q39 -7 59.5 -31t12.5 -69q-4 -24 -17.5 -45.5t-36 -38t-55 -26t-74.5 -9.5q-39 0 -66 11.5t-43 30.5t-21 44t-1 52h69q-2 -14 1 -28t12 -25.5t24 -18.5t36 -7q42 0 68.5 17.5t32.5 51.5q5 32 -17 47.5t-62 15.5h-37l8 51h36q33 0 60.5 18.5t32.5 48.5
q5 31 -13 48t-54 17q-38 0 -62.5 -24t-31.5 -58h-67q6 30 20.5 55t36.5 43.5t51 29t64 10.5q37 0 63 -8.5t42 -23.5t21.5 -35t1.5 -42q-8 -43 -32.5 -66.5t-61.5 -34.5v-1z" />
    <glyph glyph-name="acute" unicode="&#xb4;" horiz-adv-x="304" 
d="M149 595l139 188h109l-160 -188h-88z" />
    <glyph glyph-name="uni00B5" unicode="&#xb5;" horiz-adv-x="555" 
d="M412 0l18 108h-2q-30 -67 -72 -91.5t-99 -24.5q-38 0 -66 15.5t-38 48.5h-2l-40 -233h-95l120 687h99l-51 -292q-14 -72 14 -110t86 -38q27 0 53.5 11t49.5 33t40 54t25 74l46 268h98l-88 -510h-96z" />
    <glyph glyph-name="paragraph" unicode="&#xb6;" horiz-adv-x="660" 
d="M574 0h-86l110 625h-110l-109 -625h-86l52 295q-14 -5 -33.5 -7.5t-34.5 -2.5q-42 0 -75 10.5t-54 34.5t-27.5 63.5t3.5 96.5q11 62 33 102.5t52.5 64.5t70 33.5t84.5 9.5h333z" />
    <glyph glyph-name="periodcentered" unicode="&#xb7;" horiz-adv-x="303" 
d="M127 317q6 32 33 54.5t61 22.5q33 0 51.5 -22.5t12.5 -54.5q-3 -17 -11.5 -32t-20.5 -26t-27.5 -17.5t-31.5 -6.5q-34 0 -53 24t-14 58z" />
    <glyph glyph-name="cedilla" unicode="&#xb8;" horiz-adv-x="340" 
d="M12 -280l139 189h110l-160 -189h-89z" />
    <glyph glyph-name="onesuperior" unicode="&#xb9;" horiz-adv-x="267" 
d="M360 782l-75 -419h-74l63 351l-110 -37l11 61l128 44h57z" />
    <glyph glyph-name="ordmasculine" unicode="&#xba;" horiz-adv-x="434" 
d="M146 577q19 103 75.5 158t134.5 55t115 -55t19 -158q-9 -51 -28 -90.5t-47 -67t-62 -42t-73 -14.5q-78 0 -115.5 55.5t-18.5 158.5zM413 577q14 78 -4.5 116t-63.5 38q-44 0 -76.5 -38t-46.5 -116q-13 -78 5.5 -116.5t63.5 -38.5q44 0 76.5 38.5t45.5 116.5z" />
    <glyph glyph-name="guillemotright" unicode="&#xbb;" horiz-adv-x="914" 
d="M926 349l-12 -65l-498 -272l17 96l386 209l1 1l-314 207l18 97zM561 349l-12 -65l-499 -272l17 96l386 209l1 1l-313 207l17 97z" />
    <glyph glyph-name="onequarter" unicode="&#xbc;" horiz-adv-x="733" 
d="M630 700l-375 -700h-82l377 700h80zM319 700l-73 -419h-74l61 351l-110 -37l11 61l128 44h57zM727 81h-54l-14 -81h-74l14 81h-205l9 47l263 291h64l-50 -281h57zM613 136l31 181l-158 -181h127z" />
    <glyph glyph-name="onehalf" unicode="&#xbd;" horiz-adv-x="793" 
d="M632 700l-375 -700h-82l376 700h81zM319 700l-73 -419h-74l61 351l-110 -37l11 61l128 44h57zM761 57l-9 -57h-292l7 42q11 10 32.5 28t47 39.5t51 43.5t43.5 39q26 22 42.5 37.5t26.5 27.5t15 22t6 20q5 31 -10.5 50t-53.5 19q-42 0 -65.5 -24.5t-28.5 -56.5h-67
q5 27 18 52t34 44t50.5 30t68.5 11q72 0 103.5 -34t21.5 -86q-3 -19 -10 -34.5t-19.5 -31.5t-33 -35t-50.5 -45l-117 -99v-2h189z" />
    <glyph glyph-name="threequarters" unicode="&#xbe;" horiz-adv-x="845" 
d="M353 497q39 -7 59.5 -31t13.5 -69q-4 -24 -17.5 -45.5t-37 -38t-55.5 -26t-74 -9.5q-39 0 -66 11.5t-43 30.5t-21.5 44t-0.5 52h68q-1 -14 2 -28t12 -25.5t23.5 -18.5t35.5 -7q42 0 68.5 18t32.5 52q7 32 -16 47t-63 15h-37l10 51h35q33 0 60 18.5t32 48.5q6 31 -12 48
t-54 17q-38 0 -63 -24t-32 -58h-67q6 30 20.5 55.5t36.5 43.5t51 28.5t64 10.5q37 0 63 -8.5t42 -23.5t22 -35t3 -42q-8 -43 -32.5 -66.5t-62.5 -34.5v-1zM742 700l-375 -700h-82l377 700h80zM839 81h-54l-14 -81h-74l14 81h-205l8 47l264 291h64l-51 -281h58zM725 136
l31 181l-158 -181h127z" />
    <glyph glyph-name="questiondown" unicode="&#xbf;" horiz-adv-x="525" 
d="M334 456q-31 0 -45 18.5t-9 44.5q4 26 25.5 45t51.5 19q31 0 46 -19t10 -45t-26.5 -44.5t-52.5 -18.5zM240 -126q-110 0 -155 47t-29 136q6 34 22 59t37 45.5t44.5 38t44.5 37.5t36.5 43.5t21.5 56.5l4 25h105l-3 -17q-6 -44 -23 -75t-39.5 -54.5t-48 -41t-47.5 -34.5
t-38.5 -36t-20.5 -45q-7 -45 16.5 -74t80.5 -29q64 0 102.5 37t52.5 97h92q-9 -45 -30.5 -84t-54.5 -68.5t-76 -46.5t-94 -17z" />
    <glyph glyph-name="Acircumflex" unicode="&#xc2;" horiz-adv-x="640" 
d="M625 755h-87l-63 133h-3l-109 -133h-86l175 210h72zM529 0l-30 172h-300l-90 -172h-108l380 700h124l134 -700h-110zM490 248l-64 354h-3l-187 -354h254z" />
    <glyph glyph-name="Adieresis" unicode="&#xc4;" horiz-adv-x="640" 
d="M297 862q5 24 26.5 41.5t47.5 17.5q24 0 38 -17.5t10 -41.5q-5 -26 -25.5 -44t-44.5 -18q-26 0 -41 18t-11 44zM520 862q4 24 25 41.5t47 17.5q24 0 39 -17.5t10 -41.5q-4 -26 -25.5 -44t-45.5 -18q-26 0 -40.5 18t-9.5 44zM529 0l-30 172h-300l-90 -172h-108l380 700
h124l134 -700h-110zM490 248l-64 354h-3l-187 -354h254z" />
    <glyph glyph-name="Aring" unicode="&#xc5;" horiz-adv-x="640" 
d="M334 765q5 25 17.5 46.5t31.5 37.5t42.5 25t49.5 9t46 -9t32.5 -25t18 -37.5t0.5 -46.5q-5 -29 -21.5 -53t-41.5 -39l130 -673h-110l-30 172h-300l-90 -172h-108l363 671q-18 16 -26.5 40.5t-3.5 53.5zM443 711q25 0 42.5 15t22.5 39q5 26 -7 41t-37 15q-26 0 -44 -15
t-23 -41q-4 -24 8 -39t38 -15zM490 248l-64 354h-3l-187 -354h254z" />
    <glyph glyph-name="AE" unicode="&#xc6;" horiz-adv-x="991" 
d="M690 619l-40 -230h313l-13 -79h-314l-41 -231h364l-13 -79h-467l30 172h-255l-141 -172h-112l569 700h498l-13 -81h-365zM523 248l57 326l-268 -326h211z" />
    <glyph glyph-name="Ccedilla" unicode="&#xc7;" horiz-adv-x="673" 
d="M368 75q70 0 124.5 34.5t81.5 97.5h103q-18 -49 -49 -89t-73 -68t-93.5 -43t-108.5 -15q-75 0 -129.5 24.5t-87 71t-42 113.5t5.5 151q15 83 48 149t82 112t112.5 70.5t137.5 24.5q56 0 101 -16.5t77.5 -46t50 -70.5t17.5 -91h-102q-5 63 -47.5 101.5t-111.5 38.5
q-102 0 -171 -71.5t-92 -200.5q-11 -65 -5.5 -116.5t26.5 -87t57.5 -54.5t87.5 -19zM272 -280h-89l139 189h109z" />
    <glyph glyph-name="Ecircumflex" unicode="&#xca;" horiz-adv-x="564" 
d="M592 755h-87l-63 133h-3l-109 -133h-86l175 210h72zM263 619l-41 -230h313l-14 -79h-312l-41 -231h364l-13 -79h-467l123 700h466l-13 -81h-365z" />
    <glyph glyph-name="Edieresis" unicode="&#xcb;" horiz-adv-x="564" 
d="M270 862q5 24 26.5 41.5t47.5 17.5q23 0 37.5 -17.5t10.5 -41.5q-2 -13 -9 -24t-16.5 -19.5t-21 -13.5t-23.5 -5q-26 0 -41 18t-11 44zM493 862q4 24 25 41.5t47 17.5q23 0 38 -17.5t11 -41.5q-2 -13 -9 -24t-17 -19.5t-21.5 -13.5t-23.5 -5q-26 0 -40.5 18t-9.5 44z
M263 619l-41 -230h313l-14 -79h-312l-41 -231h364l-13 -79h-467l123 700h466l-13 -81h-365z" />
    <glyph glyph-name="Icircumflex" unicode="&#xce;" horiz-adv-x="218" 
d="M416 755h-87l-63 133h-3l-109 -133h-86l175 210h72zM181 700h101l-122 -700h-101z" />
    <glyph glyph-name="Idieresis" unicode="&#xcf;" horiz-adv-x="218" 
d="M89 862q4 24 25.5 41.5t47.5 17.5q24 0 38.5 -17.5t9.5 -41.5q-4 -25 -25 -43.5t-44 -18.5q-26 0 -41.5 18t-10.5 44zM311 862q5 24 25.5 41.5t46.5 17.5q24 0 39 -17.5t11 -41.5q-2 -13 -9 -24t-17 -19.5t-21.5 -13.5t-23.5 -5q-26 0 -40.5 18t-10.5 44zM181 700h101
l-122 -700h-101z" />
    <glyph glyph-name="Eth" unicode="&#xd0;" horiz-adv-x="740" 
d="M91 383h103l56 317h228q80 0 139.5 -23t97 -67.5t50.5 -109.5t-2 -148q-15 -84 -51 -149.5t-89 -110.5t-121.5 -68.5t-148.5 -23.5h-226l54 317h-102zM355 79q59 0 109 18t89 52.5t65 85.5t38 116q23 129 -31.5 198.5t-171.5 69.5h-115l-42 -236h190l-13 -66h-189
l-41 -238h112z" />
    <glyph glyph-name="Ntilde" unicode="&#xd1;" horiz-adv-x="670" 
d="M398 858q-24 0 -43.5 -20.5t-27.5 -62.5h-75q14 76 52 116t99 40q30 0 51 -14t39.5 -30.5t37 -30.5t43.5 -14q26 0 49 23t32 64h74q-14 -74 -55.5 -115.5t-101.5 -41.5q-30 0 -52.5 13.5t-41.5 29.5t-37.5 29.5t-42.5 13.5zM640 700h101l-123 -700h-91l-279 536h-2
l-95 -536h-99l123 700h91l277 -532h3z" />
    <glyph glyph-name="Ocircumflex" unicode="&#xd4;" horiz-adv-x="711" 
d="M562 965l101 -210h-87l-63 133h-3l-109 -133h-86l175 210h72zM480 708q75 0 130.5 -25t89.5 -71.5t44.5 -112.5t-3.5 -148q-15 -84 -49.5 -150.5t-84.5 -113t-114.5 -71t-139.5 -24.5q-76 0 -131.5 24.5t-89 71t-44 113t4.5 150.5q14 82 48 148t84 112.5t114.5 71.5
t140.5 25zM368 76q51 0 95 19t78.5 54.5t59 86.5t35.5 115q23 128 -23 199t-148 71q-52 0 -96 -18.5t-78 -53t-58 -85t-35 -113.5q-23 -129 22 -202t148 -73z" />
    <glyph glyph-name="Odieresis" unicode="&#xd6;" horiz-adv-x="711" 
d="M333 862q4 24 26 41.5t48 17.5q23 0 38 -17.5t11 -41.5q-2 -13 -9 -24t-17 -19.5t-21.5 -13.5t-23.5 -5q-26 0 -41.5 18t-10.5 44zM555 862q5 24 26 41.5t47 17.5q24 0 38.5 -17.5t10.5 -41.5q-5 -26 -25.5 -44t-45.5 -18q-26 0 -40.5 18t-10.5 44zM480 708
q75 0 130.5 -25t89.5 -71.5t44.5 -112.5t-3.5 -148q-15 -84 -49.5 -150.5t-84.5 -113t-114.5 -71t-139.5 -24.5q-76 0 -131.5 24.5t-89 71t-44 113t4.5 150.5q14 82 48 148t84 112.5t114.5 71.5t140.5 25zM368 76q51 0 95 19t78.5 54.5t59 86.5t35.5 115q23 128 -23 199
t-148 71q-52 0 -96 -18.5t-78 -53t-58 -85t-35 -113.5q-23 -129 22 -202t148 -73z" />
    <glyph glyph-name="multiply" unicode="&#xd7;" horiz-adv-x="525" 
d="M375 317l131 -157l-71 -60l-128 158l-186 -158l-47 60l185 157l-129 158l66 57l131 -158l186 158l49 -57z" />
    <glyph glyph-name="Oslash" unicode="&#xd8;" horiz-adv-x="711" 
d="M480 708q75 0 130.5 -25t89.5 -71.5t44.5 -112.5t-3.5 -148q-15 -84 -49.5 -150.5t-84.5 -113t-114.5 -71t-139.5 -24.5q-76 0 -131.5 24.5t-89 71t-44 113t4.5 150.5q14 82 48 148t84 112.5t114.5 71.5t140.5 25zM198 351q-14 -84 -0.5 -143t52.5 -92l270 498
q-14 3 -27.5 5t-27.5 2q-52 0 -96 -18.5t-78 -53t-58 -85t-35 -113.5zM368 76q51 0 95 19t78.5 54.5t59 86.5t35.5 115q14 77 1 134t-48 89l-264 -493q10 -2 20.5 -3.5t22.5 -1.5z" />
    <glyph glyph-name="Ucircumflex" unicode="&#xdb;" horiz-adv-x="659" 
d="M535 965l101 -210h-87l-63 133h-3l-109 -133h-86l175 210h72zM198 257q-16 -84 22.5 -131.5t121.5 -47.5q85 0 139.5 47t69.5 132l78 443h101l-80 -453q-10 -58 -38 -105.5t-70 -80.5t-97 -51t-119 -18q-63 0 -111 18t-78.5 51t-41.5 80.5t-1 105.5l81 453h101z" />
    <glyph glyph-name="Udieresis" unicode="&#xdc;" horiz-adv-x="659" 
d="M529 862q5 24 26.5 41.5t47.5 17.5q23 0 38.5 -17.5t10.5 -41.5q-4 -26 -25.5 -44t-45.5 -18q-26 0 -41 18t-11 44zM310 862q4 24 25 41.5t47 17.5q23 0 38.5 -17.5t10.5 -41.5q-4 -26 -25.5 -44t-45.5 -18q-26 0 -40.5 18t-9.5 44zM198 257q-16 -84 22.5 -131.5
t121.5 -47.5q85 0 139.5 47t69.5 132l78 443h101l-80 -453q-10 -58 -38 -105.5t-70 -80.5t-97 -51t-119 -18q-63 0 -111 18t-78.5 51t-41.5 80.5t-1 105.5l81 453h101z" />
    <glyph glyph-name="Thorn" unicode="&#xde;" horiz-adv-x="568" 
d="M248 544h160q103 0 152.5 -49t33.5 -146q-18 -97 -85.5 -147.5t-171.5 -50.5h-158l-26 -151h-101l123 700h101zM233 464l-41 -233h140q69 0 112 27.5t54 90.5q11 61 -22.5 88t-102.5 27h-140z" />
    <glyph glyph-name="germandbls" unicode="&#xdf;" horiz-adv-x="621" 
d="M50 0l84 473q11 64 33 109t55.5 73t80.5 40.5t108 12.5q62 0 105.5 -14.5t69 -40.5t34.5 -62t2 -79q-10 -56 -45.5 -96t-89.5 -50q31 -6 57 -20.5t43.5 -36.5t25 -51t1.5 -64q-10 -58 -37.5 -97t-65 -62t-81 -33t-87.5 -10q-49 0 -91 9l13 71q14 -2 28.5 -3.5t28.5 -1.5
q33 0 65 7t58 22.5t44 39.5t24 58q5 31 -6 55.5t-32.5 41.5t-49.5 26t-57 9h-42l14 81h42q21 0 44.5 5.5t43.5 17.5t35 32t19 48q5 25 2 46t-17 36.5t-41.5 24t-71.5 8.5t-73 -11.5t-48 -33t-29 -52.5t-17 -70l-80 -458h-99z" />
    <glyph glyph-name="acircumflex" unicode="&#xe2;" horiz-adv-x="570" 
d="M564 576h-88l-63 132h-2l-109 -132h-86l174 210h73zM332 517q66 0 106.5 -28t54.5 -82h1l18 103h99l-88 -510h-96l18 101h-3q-29 -51 -83.5 -80t-119.5 -29q-44 0 -79.5 18t-58 51.5t-30 82.5t3.5 110q11 62 35.5 110.5t58.5 82.5t75.5 52t87.5 18zM288 70q33 0 62 13
t53 37t40.5 58t23.5 76q8 41 3.5 75t-19.5 58t-40 37.5t-58 13.5q-66 0 -114.5 -49.5t-63.5 -134.5q-14 -85 16 -134.5t97 -49.5z" />
    <glyph glyph-name="adieresis" unicode="&#xe4;" horiz-adv-x="570" 
d="M239 670q4 23 25 41.5t47 18.5q12 0 22 -5t16.5 -13.5t9.5 -19t1 -22.5q-4 -26 -25.5 -44.5t-45.5 -18.5q-26 0 -40.5 18.5t-9.5 44.5zM458 670q5 23 26.5 41.5t47.5 18.5q12 0 22 -5t17 -13.5t9.5 -19t0.5 -22.5q-4 -26 -25.5 -44.5t-45.5 -18.5q-26 0 -41 18.5
t-11 44.5zM332 517q66 0 106.5 -28t54.5 -82h1l18 103h99l-88 -510h-96l18 101h-3q-29 -51 -83.5 -80t-119.5 -29q-44 0 -79.5 18t-58 51.5t-30 82.5t3.5 110q11 62 35.5 110.5t58.5 82.5t75.5 52t87.5 18zM288 70q33 0 62 13t53 37t40.5 58t23.5 76q8 41 3.5 75t-19.5 58
t-40 37.5t-58 13.5q-66 0 -114.5 -49.5t-63.5 -134.5q-14 -85 16 -134.5t97 -49.5z" />
    <glyph glyph-name="aring" unicode="&#xe5;" horiz-adv-x="570" 
d="M293 697q4 25 16.5 46.5t31.5 37.5t42.5 25t50.5 9q51 0 78 -34t19 -84q-4 -25 -17 -46.5t-31 -37t-41 -24t-49 -8.5q-53 0 -81 32.5t-19 83.5zM403 640q26 0 43.5 15.5t22.5 41.5q5 27 -7.5 43t-38.5 16t-45 -16t-23 -43q-5 -26 8 -41.5t40 -15.5zM332 517
q66 0 106.5 -28t54.5 -82h1l18 103h99l-88 -510h-96l18 101h-3q-29 -51 -83.5 -80t-119.5 -29q-44 0 -79.5 18t-58 51.5t-30 82.5t3.5 110q11 62 35.5 110.5t58.5 82.5t75.5 52t87.5 18zM288 70q33 0 62 13t53 37t40.5 58t23.5 76q8 41 3.5 75t-19.5 58t-40 37.5t-58 13.5
q-66 0 -114.5 -49.5t-63.5 -134.5q-14 -85 16 -134.5t97 -49.5z" />
    <glyph glyph-name="ae" unicode="&#xe6;" horiz-adv-x="899" 
d="M525 235q-13 -79 19.5 -123.5t99.5 -44.5q53 0 89.5 24t56.5 69h93q-32 -83 -95.5 -125.5t-158.5 -42.5q-146 0 -186 114q-23 -33 -52 -55t-60.5 -35t-62.5 -18.5t-57 -5.5q-37 0 -67.5 11t-51.5 30.5t-30 47.5t-3 61q7 40 27 68t53 46.5t78.5 28.5t103.5 14l121 7l6 28
q9 52 -20 81.5t-81 29.5t-88 -23.5t-50 -65.5h-90q10 36 31.5 66t53 51t72 32.5t87.5 11.5q60 0 104 -23t60 -64q35 42 84 64.5t108 22.5q55 0 94.5 -18t63.5 -51t31.5 -80t-2.5 -105l-5 -28h-376zM705 442q-30 0 -56.5 -10.5t-48.5 -30t-37.5 -46.5t-24.5 -60h282
q8 65 -22.5 106t-92.5 41zM431 247l-147 -11q-56 -3 -88.5 -26.5t-38.5 -62.5q-7 -37 20.5 -61.5t72.5 -24.5q30 0 59 11.5t53 31t40.5 44.5t20.5 53z" />
    <glyph glyph-name="ccedilla" unicode="&#xe7;" horiz-adv-x="535" 
d="M293 68q48 0 87 24t57 68h94q-25 -79 -92.5 -123.5t-160.5 -44.5q-113 0 -165.5 68t-30.5 194q11 62 36.5 111t63 83t85 51.5t103.5 17.5q46 0 82.5 -12t62 -34.5t38.5 -54.5t11 -71h-93q-3 44 -33.5 70t-78.5 26q-67 0 -115 -49.5t-64 -137.5q-15 -87 16 -136.5
t97 -49.5zM191 -280h-89l140 189h109z" />
    <glyph glyph-name="ecircumflex" unicode="&#xea;" horiz-adv-x="549" 
d="M557 576h-88l-62 132h-4l-110 -132h-84l173 210h72zM176 235q-13 -79 19.5 -123.5t97.5 -44.5q54 0 90.5 24t57.5 69h93q-32 -83 -96 -125.5t-160 -42.5q-114 0 -166 67.5t-30 195.5q11 61 36.5 109.5t62.5 82.5t84.5 52t102.5 18t95 -18t64 -51t32 -80t-2 -105l-6 -28
h-375zM356 442q-30 0 -57 -10.5t-49 -30t-38 -46.5t-24 -60h281q10 65 -21 106t-92 41z" />
    <glyph glyph-name="edieresis" unicode="&#xeb;" horiz-adv-x="549" 
d="M227 670q4 23 25 41.5t47 18.5q23 0 38 -18.5t11 -41.5q-2 -13 -9 -24.5t-17 -20t-21.5 -13.5t-23.5 -5q-26 0 -40.5 18.5t-9.5 44.5zM448 670q4 23 25.5 41.5t47.5 18.5q24 0 38 -18.5t10 -41.5q-4 -26 -25 -44.5t-45 -18.5q-26 0 -41 18.5t-10 44.5zM176 235
q-13 -79 19.5 -123.5t97.5 -44.5q54 0 90.5 24t57.5 69h93q-32 -83 -96 -125.5t-160 -42.5q-114 0 -166 67.5t-30 195.5q11 61 36.5 109.5t62.5 82.5t84.5 52t102.5 18t95 -18t64 -51t32 -80t-2 -105l-6 -28h-375zM356 442q-30 0 -57 -10.5t-49 -30t-38 -46.5t-24 -60h281
q10 65 -21 106t-92 41z" />
    <glyph glyph-name="icircumflex" unicode="&#xee;" horiz-adv-x="235" 
d="M392 576h-86l-63 132h-4l-109 -132h-85l173 210h73zM157 510h98l-89 -510h-98z" />
    <glyph glyph-name="idieresis" unicode="&#xef;" horiz-adv-x="235" 
d="M64 670q5 23 25.5 41.5t46.5 18.5q24 0 39 -18.5t11 -41.5q-2 -13 -9 -24.5t-17 -20t-21.5 -13.5t-23.5 -5q-26 0 -40.5 18.5t-10.5 44.5zM284 670q4 23 25.5 41.5t47.5 18.5q24 0 38.5 -18.5t9.5 -41.5q-4 -25 -25 -44t-44 -19q-26 0 -41.5 18.5t-10.5 44.5zM157 510h98
l-89 -510h-98z" />
    <glyph glyph-name="eth" unicode="&#xf0;" horiz-adv-x="621" 
d="M707 674l-123 -64q38 -46 54 -113.5t1 -152.5q-17 -96 -51.5 -163t-80 -109t-99.5 -61t-109 -19t-99 17.5t-72.5 49t-40 75.5t-2.5 98q8 45 32.5 86t60.5 72t81.5 49.5t95.5 18.5q78 0 129 -32.5t63 -91.5q14 75 1.5 134t-44.5 98l-155 -79l-13 41l133 70
q-24 18 -53.5 28t-63.5 10l12 72q55 0 103 -16.5t86 -48.5l137 72zM315 67q34 0 65.5 12.5t57 35t43.5 53t25 65.5q6 32 -2 60t-26 49t-45.5 33.5t-61.5 12.5t-65.5 -12t-56.5 -33.5t-42.5 -51t-23.5 -63.5t1 -63t24.5 -51t45 -34.5t61.5 -12.5z" />
    <glyph glyph-name="ntilde" unicode="&#xf1;" horiz-adv-x="555" 
d="M329 675q-25 0 -39 -17t-21 -59h-77q14 76 46.5 113t93.5 37q25 0 44.5 -12t36.5 -26t34 -26t36 -12q50 0 68 80h74q-14 -74 -49.5 -114t-93.5 -40q-27 0 -47.5 12t-38 26t-33.5 26t-34 12zM409 517q89 0 130.5 -49.5t22.5 -157.5l-54 -310h-97l50 293q27 146 -102 146
q-31 0 -58.5 -13t-49.5 -36t-37 -55t-22 -70l-46 -265h-98l88 510h97l-19 -114q30 63 80 92t115 29z" />
    <glyph glyph-name="ocircumflex" unicode="&#xf4;" horiz-adv-x="549" 
d="M549 576h-88l-63 132h-2l-109 -132h-86l173 210h74zM364 517q56 0 98.5 -17.5t68.5 -51.5t35 -83t-2 -111t-37 -110.5t-64.5 -82.5t-86.5 -51.5t-104 -17.5t-98 17.5t-68.5 51.5t-35 82.5t1.5 110.5q11 62 37.5 111t64.5 83t86.5 51.5t103.5 17.5zM285 68q32 0 62 12.5
t54.5 36.5t42 58.5t24.5 78.5q8 45 3 79.5t-21 58.5t-41.5 36.5t-57.5 12.5q-65 0 -115 -48.5t-67 -138.5q-15 -89 18 -137.5t98 -48.5z" />
    <glyph glyph-name="odieresis" unicode="&#xf6;" horiz-adv-x="549" 
d="M221 670q5 23 26.5 41.5t47.5 18.5q23 0 37.5 -18.5t9.5 -41.5q-4 -25 -25 -44t-44 -19q-26 0 -41 18.5t-11 44.5zM442 670q5 23 25.5 41.5t46.5 18.5q25 0 39.5 -18.5t10.5 -41.5q-5 -26 -26 -44.5t-45 -18.5q-26 0 -40.5 18.5t-10.5 44.5zM364 517q56 0 98.5 -17.5
t68.5 -51.5t35 -83t-2 -111t-37 -110.5t-64.5 -82.5t-86.5 -51.5t-104 -17.5t-98 17.5t-68.5 51.5t-35 82.5t1.5 110.5q11 62 37.5 111t64.5 83t86.5 51.5t103.5 17.5zM285 68q32 0 62 12.5t54.5 36.5t42 58.5t24.5 78.5q8 45 3 79.5t-21 58.5t-41.5 36.5t-57.5 12.5
q-65 0 -115 -48.5t-67 -138.5q-15 -89 18 -137.5t98 -48.5z" />
    <glyph glyph-name="divide" unicode="&#xf7;" horiz-adv-x="568" 
d="M300 471q5 26 26 43.5t51 17.5q29 0 43.5 -17.5t9.5 -43.5t-25.5 -44.5t-49.5 -18.5q-30 0 -44.5 18.5t-10.5 44.5zM570 280h-474l12 73h475zM246 161q5 26 25.5 43.5t50.5 17.5q29 0 43.5 -17.5t9.5 -43.5q-4 -26 -25 -43.5t-50 -17.5t-44 17.5t-10 43.5z" />
    <glyph glyph-name="oslash" unicode="&#xf8;" horiz-adv-x="549" 
d="M364 517q56 0 98.5 -17.5t68.5 -51.5t35 -83t-2 -111t-37 -110.5t-64.5 -82.5t-86.5 -51.5t-104 -17.5t-98 17.5t-68.5 51.5t-35 82.5t1.5 110.5q11 62 37.5 111t64.5 83t86.5 51.5t103.5 17.5zM169 254q-8 -48 -1 -84t27 -59l176 327l-10 2t-10 1q-65 0 -115 -48.5
t-67 -138.5zM285 68q32 0 62 12.5t54.5 36.5t42 58.5t24.5 78.5q9 49 1.5 85.5t-27.5 60.5l-176 -329q3 -1 8 -2t11 -1z" />
    <glyph glyph-name="ucircumflex" unicode="&#xfb;" horiz-adv-x="555" 
d="M450 786l101 -210h-87l-63 132h-3l-109 -132h-86l175 210h72zM596 510l-88 -510h-96l19 113h-1q-18 -35 -42 -58t-51 -37t-54.5 -20t-53.5 -6q-88 0 -127 50t-20 157l54 311h99l-52 -296q-13 -73 11 -108.5t90 -35.5q31 0 58.5 13t49.5 36t37.5 55t22.5 70l46 266h98z
" />
    <glyph glyph-name="udieresis" unicode="&#xfc;" horiz-adv-x="555" 
d="M448 670q4 23 25 41.5t47 18.5q23 0 38 -18.5t11 -41.5q-2 -13 -9 -24.5t-17 -20t-21.5 -13.5t-23.5 -5q-26 0 -40.5 18.5t-9.5 44.5zM227 670q4 23 25 41.5t47 18.5q25 0 39 -18.5t10 -41.5q-5 -26 -25.5 -44.5t-45.5 -18.5q-26 0 -40.5 18.5t-9.5 44.5zM596 510
l-88 -510h-96l19 113h-1q-18 -35 -42 -58t-51 -37t-54.5 -20t-53.5 -6q-88 0 -127 50t-20 157l54 311h99l-52 -296q-13 -73 11 -108.5t90 -35.5q31 0 58.5 13t49.5 36t37.5 55t22.5 70l46 266h98z" />
    <glyph glyph-name="thorn" unicode="&#xfe;" horiz-adv-x="569" 
d="M581 254q-11 -65 -37 -114t-61.5 -82t-79.5 -49.5t-91 -16.5q-55 0 -96.5 26t-51.5 79h-2l-47 -274h-99l152 859h98l-48 -271h2q29 52 79.5 79t105.5 27q47 0 85 -17t62 -50t32.5 -82t-3.5 -114zM483 254q8 42 3.5 76t-20 58t-40.5 37t-58 13t-62 -13.5t-52 -37.5
t-39.5 -57.5t-24.5 -74.5q-14 -83 17 -133.5t97 -50.5q33 0 62.5 13t53 36.5t40 57.5t23.5 76z" />
    <glyph glyph-name="ydieresis" unicode="&#xff;" horiz-adv-x="498" 
d="M422 670q4 23 25 41.5t47 18.5q12 0 22 -5t16.5 -13.5t9.5 -19t1 -22.5q-4 -26 -25.5 -44.5t-45.5 -18.5q-26 0 -40.5 18.5t-9.5 44.5zM201 670q4 23 25 41.5t47 18.5q25 0 39 -18.5t10 -41.5q-4 -26 -25 -44.5t-46 -18.5q-26 0 -40.5 18.5t-9.5 44.5zM580 510
q-7 -16 -22.5 -46t-36 -69t-45 -85t-50.5 -94.5t-52.5 -98t-50.5 -94.5q-34 -65 -63.5 -106t-61 -63.5t-67.5 -29.5t-82 -4q-11 0 -19 1t-19 6l12 69q11 -1 19.5 -1.5t18.5 -0.5q24 0 41.5 1.5t32.5 10t29.5 25.5t31.5 49l-100 530h106l61 -429h2l211 429h104z" />
    <glyph glyph-name="Abreve" unicode="&#x102;" horiz-adv-x="640" 
d="M543 902h72q-5 -28 -19.5 -53t-35.5 -43t-47.5 -28.5t-56.5 -10.5t-54 10.5t-39 28.5t-21 43t-1 53h71q-5 -29 10 -46.5t46 -17.5q29 0 49.5 17.5t25.5 46.5zM529 0l-30 172h-300l-90 -172h-108l380 700h124l134 -700h-110zM490 248l-64 354h-3l-187 -354h254z" />
    <glyph glyph-name="abreve" unicode="&#x103;" horiz-adv-x="570" 
d="M480 715h73q-5 -28 -19.5 -52.5t-36 -42.5t-48 -28.5t-56.5 -10.5t-54 10.5t-39 28.5t-21 42.5t-1 52.5h71q-5 -29 10 -46.5t46 -17.5q30 0 50 17.5t25 46.5zM332 517q66 0 106.5 -28t54.5 -82h1l18 103h99l-88 -510h-96l18 101h-3q-29 -51 -83.5 -80t-119.5 -29
q-44 0 -79.5 18t-58 51.5t-30 82.5t3.5 110q11 62 35.5 110.5t58.5 82.5t75.5 52t87.5 18zM288 70q33 0 62 13t53 37t40.5 58t23.5 76q8 41 3.5 75t-19.5 58t-40 37.5t-58 13.5q-66 0 -114.5 -49.5t-63.5 -134.5q-14 -85 16 -134.5t97 -49.5z" />
    <glyph glyph-name="Cacute" unicode="&#x106;" horiz-adv-x="673" 
d="M438 772l139 189h109l-158 -189h-90zM368 75q70 0 124.5 34.5t81.5 97.5h103q-18 -49 -49 -89t-73 -68t-93.5 -43t-108.5 -15q-75 0 -129.5 24.5t-87 71t-42 113.5t5.5 151q15 83 48 149t82 112t112.5 70.5t137.5 24.5q56 0 101 -16.5t77.5 -46t50 -70.5t17.5 -91h-102
q-5 63 -47.5 101.5t-111.5 38.5q-102 0 -171 -71.5t-92 -200.5q-11 -65 -5.5 -116.5t26.5 -87t57.5 -54.5t87.5 -19z" />
    <glyph glyph-name="cacute" unicode="&#x107;" horiz-adv-x="535" 
d="M482 783h109l-158 -188h-91zM293 68q48 0 87 24t57 68h94q-25 -79 -92.5 -123.5t-160.5 -44.5q-113 0 -165.5 68t-30.5 194q11 62 36.5 111t63 83t85 51.5t103.5 17.5q46 0 82.5 -12t62 -34.5t38.5 -54.5t11 -71h-93q-3 44 -33.5 70t-78.5 26q-67 0 -115 -49.5
t-64 -137.5q-15 -87 16 -136.5t97 -49.5z" />
    <glyph glyph-name="Ccaron" unicode="&#x10c;" horiz-adv-x="673" 
d="M453 755l-101 210h86l63 -134h3l109 134h87l-175 -210h-72zM368 75q70 0 124.5 34.5t81.5 97.5h103q-18 -49 -49 -89t-73 -68t-93.5 -43t-108.5 -15q-75 0 -129.5 24.5t-87 71t-42 113.5t5.5 151q15 83 48 149t82 112t112.5 70.5t137.5 24.5q56 0 101 -16.5t77.5 -46
t50 -70.5t17.5 -91h-102q-5 63 -47.5 101.5t-111.5 38.5q-102 0 -171 -71.5t-92 -200.5q-11 -65 -5.5 -116.5t26.5 -87t57.5 -54.5t87.5 -19z" />
    <glyph glyph-name="ccaron" unicode="&#x10d;" horiz-adv-x="535" 
d="M347 576l-100 210h85l62 -135h4l110 135h87l-176 -210h-72zM293 68q48 0 87 24t57 68h94q-25 -79 -92.5 -123.5t-160.5 -44.5q-113 0 -165.5 68t-30.5 194q11 62 36.5 111t63 83t85 51.5t103.5 17.5q46 0 82.5 -12t62 -34.5t38.5 -54.5t11 -71h-93q-3 44 -33.5 70
t-78.5 26q-67 0 -115 -49.5t-64 -137.5q-15 -87 16 -136.5t97 -49.5z" />
    <glyph glyph-name="Dcroat" unicode="&#x110;" horiz-adv-x="740" 
d="M91 383h103l56 317h228q80 0 139.5 -23t97 -67.5t50.5 -109.5t-2 -148q-15 -84 -51 -149.5t-89 -110.5t-121.5 -68.5t-148.5 -23.5h-226l54 317h-102zM355 79q59 0 109 18t89 52.5t65 85.5t38 116q23 129 -31.5 198.5t-171.5 69.5h-115l-42 -236h190l-13 -66h-189
l-41 -238h112z" />
    <glyph glyph-name="dcroat" unicode="&#x111;" horiz-adv-x="570" 
d="M332 517q66 0 106.5 -28t54.5 -82h1l30 172h-281l9 55h282l15 80h99l-15 -80h72l-9 -55h-72l-101 -579h-96l18 101h-3q-29 -51 -83.5 -80t-119.5 -29q-44 0 -79.5 18t-58 51.5t-30 82.5t3.5 110q11 62 35.5 110.5t58.5 82.5t75.5 52t87.5 18zM288 70q33 0 62 13t53 37
t40.5 58t23.5 76q8 41 3.5 75t-19.5 58t-40 37.5t-58 13.5q-66 0 -114.5 -49.5t-63.5 -134.5q-14 -85 16 -134.5t97 -49.5z" />
    <glyph glyph-name="Gbreve" unicode="&#x11e;" horiz-adv-x="692" 
d="M583 902h72q-5 -28 -19.5 -53t-36 -43t-48 -28.5t-56.5 -10.5t-53.5 10.5t-38.5 28.5t-21 43t-1 53h71q-5 -29 10 -46.5t46 -17.5q29 0 49.5 17.5t25.5 46.5zM703 288q-11 -62 -37 -116t-69 -94t-103 -63t-139 -23q-74 0 -129 24.5t-88 71t-43 113.5t5 151q15 83 49 149
t84 112t114 70.5t137 24.5q56 0 102.5 -16.5t80.5 -46t52.5 -70.5t18.5 -91h-102q-3 32 -16 57.5t-35 44t-51.5 28.5t-64.5 10q-50 0 -93.5 -18.5t-78.5 -53.5t-59.5 -85.5t-35.5 -114.5q-11 -65 -5 -116.5t27.5 -87t58.5 -54.5t87 -19q51 0 90 15t67.5 41.5t46 61
t24.5 73.5l4 25h-175l14 75h275z" />
    <glyph glyph-name="gbreve" unicode="&#x11f;" horiz-adv-x="569" 
d="M471 715h72q-5 -28 -19.5 -52.5t-36 -42.5t-48.5 -28.5t-57 -10.5t-53.5 10.5t-38.5 28.5t-20.5 42.5t-0.5 52.5h69q-5 -29 11 -46.5t45 -17.5q30 0 51 17.5t26 46.5zM610 510l-86 -494q-9 -50 -34 -87.5t-61 -62t-81.5 -37t-95.5 -12.5q-43 0 -80 8t-64 26t-43.5 46.5
t-19.5 68.5h97q5 -22 16 -36t27.5 -22t36 -11t40.5 -3q30 0 57 6.5t49 21.5t37 40.5t22 63.5l15 90h-1q-32 -60 -82.5 -84.5t-114.5 -24.5q-45 0 -80.5 17.5t-58.5 50.5t-31 79.5t2 104.5q11 60 36 108t60 81.5t76.5 51t85.5 17.5q65 0 107.5 -26t55.5 -83h1l18 102h94z
M291 85q33 0 62 12.5t52.5 35.5t40 55.5t23.5 72.5q7 39 2.5 72t-20 56.5t-40.5 36.5t-58 13t-62 -13t-52 -36.5t-39.5 -56.5t-23.5 -74q-14 -79 17.5 -126.5t97.5 -47.5z" />
    <glyph glyph-name="Idotaccent" unicode="&#x130;" horiz-adv-x="218" 
d="M266 892q27 0 41 -16t10 -40q-5 -24 -25 -40.5t-46 -16.5q-28 0 -41.5 16.5t-8.5 40.5t23.5 40t46.5 16zM181 700h101l-122 -700h-101z" />
    <glyph glyph-name="dotlessi" unicode="&#x131;" horiz-adv-x="235" 
d="M157 510h98l-89 -510h-98z" />
    <glyph glyph-name="Lslash" unicode="&#x141;" horiz-adv-x="584" 
d="M183 317h-102l12 66h102l56 317h101l-56 -317h206l-12 -66h-206l-41 -238h337l-14 -79h-438z" />
    <glyph glyph-name="lslash" unicode="&#x142;" horiz-adv-x="433" 
d="M83 383h150l56 317h101l-56 -317h149l-12 -66h-149l-55 -317h-101l55 317h-150z" />
    <glyph glyph-name="OE" unicode="&#x152;" horiz-adv-x="1019" 
d="M480 708q41 0 79 -8h538l-14 -81h-402q42 -35 57.5 -93.5t6.5 -136.5h247l-14 -79h-247q-18 -79 -55 -138t-91 -93h403l-14 -79h-537q-21 -4 -42 -6t-42 -2q-76 0 -131.5 24.5t-89 71t-44 113t4.5 150.5q14 82 48 148t84 112.5t114.5 71.5t140.5 25zM368 76q51 0 95 19
t78.5 54.5t59 86.5t35.5 115q23 128 -23 199t-148 71q-52 0 -96 -18.5t-78 -53t-58 -85t-35 -113.5q-23 -129 22 -202t148 -73z" />
    <glyph glyph-name="oe" unicode="&#x153;" horiz-adv-x="935" 
d="M561 235q-14 -79 20 -123.5t99 -44.5q52 0 89 24t57 69h94q-32 -83 -96 -125.5t-159 -42.5q-140 0 -177 109q-38 -53 -94 -81t-122 -28q-56 0 -98 17.5t-68.5 51.5t-35 82.5t1.5 110.5q11 62 37.5 111t64.5 83t86.5 51.5t103.5 17.5q68 0 113.5 -29t64.5 -81
q38 51 92 80.5t121 29.5q55 0 95 -18t64 -51.5t31.5 -80.5t-2.5 -104l-6 -28h-376zM741 442q-61 0 -106 -40.5t-62 -106.5h283q9 65 -22 106t-93 41zM285 68q32 0 62 12.5t54.5 36.5t42 58.5t24.5 78.5q8 45 3 79.5t-21 58.5t-41.5 36.5t-57.5 12.5q-65 0 -115 -48.5
t-67 -138.5q-15 -89 18 -137.5t98 -48.5z" />
    <glyph glyph-name="Scedilla" unicode="&#x15e;" horiz-adv-x="602" 
d="M426 386q105 -22 147 -66t29 -121q-8 -48 -33.5 -86t-65.5 -65t-91.5 -41.5t-112.5 -14.5q-59 0 -104.5 15t-75.5 42t-43.5 65t-7.5 84h97q-1 -56 38 -91t114 -35q72 0 120.5 32t57.5 86q8 45 -20 71t-104 43l-71 15q-99 23 -140 68t-28 119q8 45 34 82t64.5 64t87 41.5
t101.5 14.5q62 0 106.5 -16.5t71.5 -45.5t37.5 -68t4.5 -84h-100q6 57 -28 94.5t-106 37.5q-33 0 -61.5 -8t-51 -23t-37.5 -36t-19 -46q-8 -45 20 -70t100 -40zM278 -91h110l-160 -189h-89z" />
    <glyph glyph-name="scedilla" unicode="&#x15f;" horiz-adv-x="488" 
d="M315 291q47 -10 80.5 -22t54 -28.5t28 -38.5t2.5 -53q-13 -72 -76 -114.5t-160 -42.5q-38 0 -72.5 9t-60.5 28t-40 48.5t-11 71.5h94q-1 -39 27.5 -63.5t76.5 -24.5t81 21t39 57q5 26 -12.5 43.5t-68.5 28.5l-65 14q-145 33 -127 138q7 36 28 64t52 47.5t69 29.5t78 10
q37 0 69.5 -9t56.5 -28t36 -49.5t8 -72.5h-90q3 43 -23 65.5t-71 22.5q-43 0 -76.5 -21t-39.5 -54q-5 -29 21 -45.5t92 -31.5zM70 -280l139 189h109l-160 -189h-88z" />
    <glyph glyph-name="Scaron" unicode="&#x160;" horiz-adv-x="602" 
d="M467 755h-73l-101 210h86l63 -134h3l109 134h87zM426 386q105 -22 147 -66t29 -121q-8 -48 -33.5 -86t-65.5 -65t-91.5 -41.5t-112.5 -14.5q-59 0 -104.5 15t-75.5 42t-43.5 65t-7.5 84h97q-1 -56 38 -91t114 -35q72 0 120.5 32t57.5 86q8 45 -20 71t-104 43l-71 15
q-99 23 -140 68t-28 119q8 45 34 82t64.5 64t87 41.5t101.5 14.5q62 0 106.5 -16.5t71.5 -45.5t37.5 -68t4.5 -84h-100q6 57 -28 94.5t-106 37.5q-33 0 -61.5 -8t-51 -23t-37.5 -36t-19 -46q-8 -45 20 -70t100 -40z" />
    <glyph glyph-name="scaron" unicode="&#x161;" horiz-adv-x="488" 
d="M308 576l-99 210h84l63 -135h4l109 135h88l-176 -210h-73zM315 291q47 -10 80.5 -22t54 -28.5t28 -38.5t2.5 -53q-13 -72 -76 -114.5t-160 -42.5q-38 0 -72.5 9t-60.5 28t-40 48.5t-11 71.5h94q-1 -39 27.5 -63.5t76.5 -24.5t81 21t39 57q5 26 -12.5 43.5t-68.5 28.5
l-65 14q-145 33 -127 138q7 36 28 64t52 47.5t69 29.5t78 10q37 0 69.5 -9t56.5 -28t36 -49.5t8 -72.5h-90q3 43 -23 65.5t-71 22.5q-43 0 -76.5 -21t-39.5 -54q-5 -29 21 -45.5t92 -31.5z" />
    <glyph glyph-name="Ydieresis" unicode="&#x178;" horiz-adv-x="613" 
d="M287 862q4 24 25.5 41.5t47.5 17.5q24 0 38 -17.5t10 -41.5q-4 -26 -25 -44t-45 -18q-26 0 -41 18t-10 44zM509 862q4 24 25 41.5t47 17.5q24 0 39 -17.5t10 -41.5q-4 -26 -25.5 -44t-45.5 -18q-26 0 -40 18t-10 44zM412 315l-55 -315h-102l56 318l-183 382h120l130 -288
h1l231 288h120z" />
    <glyph glyph-name="florin" unicode="&#x192;" horiz-adv-x="383" 
d="M426 505l-13 -68h-95l-51 -288q-16 -89 -66.5 -124.5t-130.5 -32.5q-11 1 -23.5 2.5t-24.5 5.5l12 71q14 -1 25.5 -2.5t22.5 -1.5q42 1 59.5 18t24.5 57l52 295h-84l12 68h85l8 52q15 85 67.5 119t128.5 29q11 -1 23.5 -2t25.5 -6l-12 -69q-15 1 -26.5 2.5t-22.5 -0.5
q-42 -1 -59.5 -17.5t-25.5 -57.5l-8 -50h96z" />
    <glyph glyph-name="Ohorn" unicode="&#x1a0;" horiz-adv-x="723" 
 />
    <glyph glyph-name="ohorn" unicode="&#x1a1;" horiz-adv-x="568" 
 />
    <glyph glyph-name="Uhorn" unicode="&#x1af;" horiz-adv-x="719" 
 />
    <glyph glyph-name="uhorn" unicode="&#x1b0;" horiz-adv-x="622" 
 />
    <glyph glyph-name="circumflex" unicode="&#x2c6;" horiz-adv-x="473" 
d="M512 576h-88l-62 132h-5l-109 -132h-84l173 210h72z" />
    <glyph glyph-name="caron" unicode="&#x2c7;" horiz-adv-x="473" 
d="M300 576l-99 210h84l63 -134h4l109 134h88l-176 -210h-73z" />
    <glyph glyph-name="breve" unicode="&#x2d8;" horiz-adv-x="400" 
d="M463 715q-5 -28 -19.5 -52.5t-36 -42.5t-48.5 -28.5t-57 -10.5t-53.5 10.5t-38.5 28.5t-21 42.5t-1 52.5h70q-5 -29 10.5 -46.5t45.5 -17.5q29 0 50 17.5t26 46.5h73z" />
    <glyph glyph-name="dotaccent" unicode="&#x2d9;" horiz-adv-x="237" 
d="M242 693q21 0 35 -15.5t10 -38.5q-5 -25 -24 -41.5t-41 -16.5q-24 0 -38 16.5t-9 41.5q4 23 23 38.5t44 15.5z" />
    <glyph glyph-name="ring" unicode="&#x2da;" horiz-adv-x="363" 
d="M186 697q4 25 16 46.5t31 37.5t42.5 25t49.5 9q51 0 78.5 -34t19.5 -84q-4 -25 -17 -46.5t-31.5 -37t-41.5 -24t-49 -8.5q-53 0 -80.5 32.5t-17.5 83.5zM293 640q26 0 45 15.5t24 41.5q4 27 -9 43t-39 16q-27 0 -45.5 -16t-22.5 -43q-5 -26 8 -41.5t39 -15.5z" />
    <glyph glyph-name="ogonek" unicode="&#x2db;" horiz-adv-x="227" 
 />
    <glyph glyph-name="tilde" unicode="&#x2dc;" horiz-adv-x="531" 
d="M304 675q-24 0 -39 -17t-22 -59h-75q14 76 45.5 113t92.5 37q26 0 45.5 -12t37 -26t34 -26t35.5 -12q51 0 67 80h75q-13 -74 -49 -114t-95 -40q-27 0 -47.5 12t-37.5 26t-33 26t-34 12z" />
    <glyph glyph-name="hungarumlaut" unicode="&#x2dd;" horiz-adv-x="497" 
d="M404 783l-160 -188h-78l140 188h98zM572 783l-159 -188h-79l139 188h99z" />
    <glyph glyph-name="gravecomb" unicode="&#x300;" 
d="M-37 595h-90l-90 188h109z" />
    <glyph glyph-name="acutecomb" unicode="&#x301;" 
d="M-206 595l139 188h108l-158 -188h-89z" />
    <glyph glyph-name="tildecomb" unicode="&#x303;" 
d="M-221 675q-25 0 -39 -17t-21 -59h-75q14 76 45.5 113t92.5 37q25 0 44.5 -12t37 -26t33.5 -26t36 -12q27 0 43 19.5t24 60.5h74q-14 -74 -49.5 -114t-92.5 -40q-27 0 -47.5 12t-38 26t-33.5 26t-34 12z" />
    <glyph glyph-name="hookabovecomb" unicode="&#x309;" 
 />
    <glyph glyph-name="dotbelowcomb" unicode="&#x323;" 
d="M-273 -90q27 0 40.5 -16.5t8.5 -40.5q-4 -24 -23.5 -41t-45.5 -17q-28 0 -41.5 17t-9.5 41q5 24 24 40.5t47 16.5z" />
    <glyph glyph-name="uni0E00" unicode="&#xe00;" 
 />
    <glyph glyph-name="uni0E01" unicode="&#xe01;" horiz-adv-x="617" 
d="M409 581q131 0 183.5 -58t32.5 -170l-61 -353h-100l60 344q14 78 -17.5 116.5t-113.5 38.5q-68 0 -116.5 -25.5t-71.5 -87.5h118l-6 -42q-48 -17 -74 -49t-37 -86l-35 -209h-99l33 192q11 55 40 94.5t77 50.5h-118q21 121 99 182.5t206 61.5z" />
    <glyph glyph-name="uni0E02" unicode="&#xe02;" horiz-adv-x="573" 
d="M621 577l-66 -375q-10 -59 -33.5 -99.5t-58.5 -65t-81 -35t-102 -10.5t-98.5 10t-68.5 34t-35 63.5t1 98.5l7 37q8 46 33 79t52 59t50 47.5t27 44.5q3 21 -7 29t-49 8h-49l14 75h65q78 0 109.5 -21t20.5 -78q-6 -32 -30 -59t-52 -55t-53 -59.5t-33 -73.5q-6 -37 -6 -66.5
t11 -50t36 -31.5t70 -11q44 0 73 12t47.5 33.5t28.5 51.5t17 66l60 342h100z" />
    <glyph glyph-name="uni0E03" unicode="&#xe03;" horiz-adv-x="592" 
d="M640 577l-66 -375q-10 -59 -33.5 -99.5t-58.5 -65t-81 -35t-102 -10.5t-98 10t-68 34t-34.5 63.5t1.5 98.5l6 37q8 43 34 76t56 60.5t57 50.5t36 46q5 14 5.5 27t-12.5 15q-20 5 -30.5 -11t-20.5 -39h-55l-64 117h76l29 -72q8 34 30.5 53t60.5 19q18 0 34.5 -4t27.5 -14
t16.5 -25.5t1.5 -39.5q-7 -40 -33.5 -71t-57.5 -60.5t-58 -61.5t-34 -74q-6 -36 -6.5 -64.5t10.5 -48.5t36 -31t69 -11q45 0 74 11.5t47.5 33t28.5 51.5t16 67l60 342h100z" />
    <glyph glyph-name="uni0E04" unicode="&#xe04;" horiz-adv-x="625" 
d="M415 581q62 0 107 -12.5t72.5 -40.5t36.5 -72.5t-2 -108.5l-60 -347h-100l59 334q7 38 4.5 68t-17 51.5t-42.5 33t-73 11.5t-77 -11.5t-54 -33t-35 -51.5t-20 -68l-20 -117q28 45 73 65.5t90 20.5h48l-15 -83h-53q-30 0 -57.5 -9t-50 -24.5t-37.5 -36.5t-19 -45v1
l-17 -106h-100l60 347q11 64 36 108.5t63 72.5t88.5 40.5t111.5 12.5z" />
    <glyph glyph-name="uni0E05" unicode="&#xe05;" horiz-adv-x="624" 
d="M296 581q45 0 73.5 -21.5t30.5 -62.5q17 41 52 62.5t80 21.5q42 0 67 -11.5t36 -34.5t10.5 -57t-8.5 -80l-69 -398h-100l74 423q2 12 3 25t-2.5 24.5t-15 19t-34.5 7.5q-29 0 -45 -22t-26 -51h-69q0 29 -9 51t-38 22q-23 0 -37 -7.5t-22.5 -19t-12 -25t-5.5 -24.5
l-35 -206q13 22 31.5 38.5t40.5 27t45.5 15.5t45.5 5h48l-15 -83h-53q-30 0 -57 -8.5t-48.5 -23.5t-36.5 -35.5t-20 -43.5l-19 -109h-100l70 398q8 46 19.5 80t31 57t48.5 34.5t71 11.5z" />
    <glyph glyph-name="uni0E06" unicode="&#xe06;" horiz-adv-x="633" 
d="M119 235q8 43 33 76t54 60.5t55 50.5t35 46q5 14 5.5 27t-12.5 15q-20 5 -30.5 -11t-21.5 -39h-54l-64 117h75l30 -72q18 76 95 76q42 0 62 -25t9 -73q-10 -37 -35.5 -66.5t-53.5 -58t-52.5 -59t-31.5 -70.5q-5 -31 3.5 -59t28 -50t49 -35t66.5 -13q62 0 101.5 34
t53.5 110l64 361h98l-68 -389q-8 -47 -29 -83.5t-51 -61.5t-66.5 -38t-77.5 -13q-85 0 -135.5 29t-59.5 83h-3l-18 -104h-95z" />
    <glyph glyph-name="uni0E07" unicode="&#xe07;" horiz-adv-x="588" 
d="M375 579q69 6 118.5 -3t79 -36t39 -73.5t-2.5 -115.5q-7 -40 -27.5 -86t-53.5 -92t-78.5 -90.5t-104.5 -82.5h-108l-132 577h101l108 -506q51 39 86.5 79t59 76t35.5 67.5t15 53.5q7 40 5 70.5t-18.5 50t-49 27.5t-85.5 3z" />
    <glyph glyph-name="uni0E08" unicode="&#xe08;" horiz-adv-x="583" 
d="M379 581q74 0 119.5 -24t69.5 -63t28.5 -89t-4.5 -101q-12 -66 -41.5 -122t-72 -96.5t-96 -63t-112.5 -22.5h-65l-45 237h-74l14 74h142l40 -232q47 2 83.5 22t62.5 51.5t42.5 71.5t23.5 82t2.5 77.5t-20.5 61t-44 39.5t-68 14q-47 0 -93.5 -22.5t-69.5 -67.5h-96
q14 41 42 73t65 54t80.5 34t86.5 12z" />
    <glyph glyph-name="uni0E09" unicode="&#xe09;" horiz-adv-x="625" 
d="M89 312h148l-20 -114q-6 -35 -1 -59t19 -39t36.5 -21.5t51.5 -6.5q37 0 69.5 13t57 34.5t41 50.5t22.5 61l22 118q5 32 0.5 59t-21.5 47t-47 31.5t-75 11.5q-23 0 -47.5 -6t-47 -17.5t-41 -28.5t-29.5 -38h-97q15 40 43.5 72t66 54.5t81 34.5t86.5 12q61 0 107.5 -14
t76 -43t41 -73t0.5 -104l-60 -347h-97l18 102h-2q-29 -54 -87 -84.5t-146 -24.5q-34 2 -63 15.5t-48.5 36.5t-28 55.5t-1.5 72.5l13 67h-54z" />
    <glyph glyph-name="uni0E0A" unicode="&#xe0a;" horiz-adv-x="568" 
d="M465 261q5 30 6.5 53t-6.5 40t-27 27t-55 13l13 66q35 1 58 10t39 25t25.5 37.5t15.5 48.5h92q-13 -73 -44 -108.5t-87 -49.5q27 -10 43.5 -24.5t24 -36.5t6.5 -53t-8 -73l-7 -35q-10 -60 -33 -100t-58 -64t-81 -34.5t-102 -10.5t-98.5 10t-68.5 34t-35 63.5t1 98.5l7 37
q8 46 33 79t52 59t50 47.5t27 44.5q3 21 -7 29t-49 8h-49l14 75h65q78 0 109.5 -21t20.5 -78q-6 -32 -30 -59t-52 -55t-53 -59.5t-33 -73.5q-6 -37 -6 -66.5t11 -50t36 -31.5t70 -11q44 0 73 11.5t47.5 32.5t28.5 50.5t17 66.5z" />
    <glyph glyph-name="uni0E0B" unicode="&#xe0b;" horiz-adv-x="587" 
d="M514 423q26 -9 42.5 -23.5t24 -35.5t7.5 -50.5t-7 -69.5l-8 -43q-10 -60 -33 -100t-58 -64t-81 -34.5t-102 -10.5t-98 10t-68 34t-34.5 63.5t1.5 98.5l6 37q8 43 34 76t56 60.5t57 50.5t36 46q5 14 5.5 27t-12.5 15q-20 5 -30.5 -11t-20.5 -39h-55l-64 117h76l29 -72
q18 76 95 76q39 0 61.5 -20t14.5 -67q-7 -40 -33.5 -71t-57.5 -60.5t-58 -61.5t-34 -74q-6 -36 -6.5 -64.5t10.5 -48.5t36 -31t69 -11q45 0 74 11.5t47.5 32.5t28.5 50.5t16 66.5l4 28q5 30 6.5 53t-6.5 40t-27 27t-54 13l12 66q35 1 58.5 10t39 25t25 37.5t15.5 48.5h92
q-13 -73 -44 -108.5t-87 -49.5z" />
    <glyph glyph-name="uni0E0C" unicode="&#xe0c;" horiz-adv-x="948" 
d="M504 344q13 78 -14.5 116.5t-107.5 38.5q-67 0 -111 -25.5t-68 -87.5h123l-7 -44q-51 -17 -85.5 -59.5t-45.5 -99.5q-6 -33 -2.5 -53.5t14 -32.5t28 -17t39.5 -6q13 -2 25.5 -1t28.5 3l-13 -73q-44 -10 -87 -10q-35 1 -63.5 11.5t-47 32t-25.5 53t1 74.5q6 33 19.5 61
t31.5 50t39 38t41 24h-113q21 121 94.5 182.5t199.5 61.5q128 0 176.5 -58t28.5 -170l-19 -109q-6 -33 1 -64t23.5 -55t41 -38.5t53.5 -14.5t50 6t36.5 21t25.5 39.5t16 60.5l67 378h98l-70 -397q-16 -94 -72 -141t-135 -47q-37 0 -65 9t-48 24.5t-31.5 36t-15.5 42.5h-2
l-18 -104h-96z" />
    <glyph glyph-name="uni0E0D" unicode="&#xe0d;" horiz-adv-x="948" 
d="M910 89q-20 -114 -83.5 -176.5t-186.5 -62.5q-42 0 -77.5 9.5t-61 28t-39.5 46.5t-14 66h94q1 -42 34 -60.5t76 -18.5q61 0 103 35t56 107l15 90h-3q-11 -22 -28 -42.5t-40.5 -36t-53.5 -25t-67 -9.5q-39 0 -71 11.5t-52.5 35t-28.5 59.5t1 85l21 113q13 78 -14.5 116.5
t-107.5 38.5q-67 0 -111 -25.5t-68 -87.5h123l-7 -44q-51 -17 -85.5 -59.5t-45.5 -99.5q-6 -33 -2.5 -53.5t14 -32.5t28 -17t39.5 -6q13 -2 25.5 -1t28.5 3l-13 -72q-23 -6 -45 -8.5t-42 -2.5q-35 1 -63.5 11.5t-47 32t-25.5 53t1 74.5q6 33 19.5 61t31.5 50t39 38t41 24
h-113q21 121 94.5 182.5t199.5 61.5q128 0 177 -58t29 -170l-17 -103q-7 -39 -3.5 -64t16 -39.5t33 -20t47.5 -5.5t54 12.5t50 34.5t39.5 52t22.5 65l52 292h98z" />
    <glyph glyph-name="uni0E0E" unicode="&#xe0e;" horiz-adv-x="626" 
d="M419 581q130 0 182.5 -58t32.5 -170l-96 -548h-80q-49 41 -94 59.5t-84 18.5q-48 0 -80.5 -22t-49.5 -56h-91q14 43 38 72t54 46t64 24.5t69 6.5q45 -2 90 -18t80 -44l80 452q13 78 -18 116.5t-113 38.5q-69 0 -117 -25.5t-72 -87.5h130l-7 -42q-40 -14 -63.5 -46
t-31.5 -77l-14 -76q-5 -29 -15 -56t-26.5 -48t-41 -33.5t-59.5 -12.5q-17 0 -34 1t-37 5l12 73q14 -3 23.5 -3.5t19.5 0.5q27 4 41.5 22t20.5 52l14 75q6 37 29.5 69.5t59.5 47.5h-122q24 121 101.5 182.5t204.5 61.5z" />
    <glyph glyph-name="uni0E0F" unicode="&#xe0f;" horiz-adv-x="626" 
d="M419 581q130 0 182.5 -58t32.5 -170l-65 -372q-6 -36 -19.5 -68t-35 -56t-52 -38t-70.5 -14q-44 0 -81.5 20.5t-48.5 57.5l-201 -77h-20l14 73l211 80h45q5 -32 28 -53t54 -19q23 1 44.5 18t27.5 49l69 390q13 78 -18 116.5t-113 38.5q-69 0 -117 -25.5t-72 -87.5h130
l-7 -42q-43 -14 -66 -48.5t-31 -82.5l-8 -48q-6 -33 -15 -64t-25.5 -54.5t-42 -37.5t-63.5 -14q-17 0 -34 1t-37 5l12 73q14 -3 23.5 -3.5t19.5 0.5q27 4 41.5 22t20.5 52l14 75q6 37 29.5 69.5t59.5 47.5h-122q24 121 101.5 182.5t204.5 61.5z" />
    <glyph glyph-name="uni0E10" unicode="&#xe10;" horiz-adv-x="589" 
d="M426 -57q3 21 -4 34t-20 20t-30 8.5t-32 -0.5q-22 -3 -39 -4t-25 -1h-67l-47 237h-72l14 74h142l39 -232q47 2 82.5 22.5t62 52.5t43 73t24.5 83q6 38 2.5 72t-19.5 60t-44.5 41.5t-71.5 15.5q-22 0 -45.5 -6t-45.5 -17.5t-40.5 -28.5t-30.5 -39h-97q15 41 42 71.5t63 52
t79.5 34t91.5 15.5l296 28l-12 -74l-168 -12v-2q65 -23 88.5 -79t9.5 -132q-17 -93 -63.5 -162.5t-115.5 -106.5q53 -2 82.5 -29t20.5 -82q-11 -60 -55 -96.5t-111 -36.5q-21 0 -42.5 5t-39.5 14.5t-31 24t-18 32.5l-191 -76h-19l14 73l202 81h44q5 -34 25.5 -54t46.5 -20
q13 0 26 2.5t24 10t19.5 20.5t12.5 33z" />
    <glyph glyph-name="uni0E11" unicode="&#xe11;" horiz-adv-x="624" 
d="M557 581q35 0 55.5 -11.5t29.5 -33.5t8 -52t-7 -68l-73 -416h-98l72 418q5 23 4 38t-7 23.5t-18 11.5t-29 3q-18 0 -40 -10t-46 -27t-49.5 -39t-50.5 -45q-15 -14 -30.5 -30.5t-29.5 -35.5t-24.5 -41t-14.5 -46l-38 -220h-97l41 235q8 43 32.5 76t53 60.5t54 51
t34.5 46.5q5 14 4.5 26.5t-11.5 14.5q-10 2 -17.5 -1.5t-13.5 -11t-10.5 -17.5t-7.5 -20h-57l-64 117h76l29 -72q18 76 95 76q58 0 62 -42q2 -22 -8 -48q46 42 91 66t100 24z" />
    <glyph glyph-name="uni0E12" unicode="&#xe12;" horiz-adv-x="976" 
d="M544 423q2 11 4 24.5t-1.5 25t-14 19t-33.5 7.5q-29 0 -44.5 -22t-26.5 -51h-68q-1 31 -9.5 52t-38.5 21q-29 0 -49 -18.5t-33.5 -47.5t-22 -66t-15.5 -75q-7 -40 -7.5 -78t10 -67.5t35 -48.5t67.5 -23q14 -2 30 -0.5t30 3.5l-13 -77q-14 -3 -30.5 -4t-31.5 -1
q-56 0 -98 17.5t-66.5 53.5t-32 90.5t5.5 127.5q12 69 29.5 123.5t43 93t62.5 59t88 20.5q45 0 67.5 -22t25.5 -64q32 86 121 86q46 0 72 -11.5t37.5 -35t10.5 -58t-9 -80.5l-29 -160q-6 -32 2 -62t25.5 -52.5t41.5 -36t51 -13.5q29 0 50 6t36.5 21t25.5 39.5t16 60.5
l67 378h98l-69 -397q-17 -94 -73 -141t-135 -47q-37 0 -65 9t-48 24.5t-31.5 36t-14.5 42.5h-3l-18 -104h-95z" />
    <glyph glyph-name="uni0E13" unicode="&#xe13;" horiz-adv-x="948" 
d="M800 0l17 104h-2q-12 -22 -29 -42.5t-40.5 -36t-53 -24.5t-67.5 -9q-39 0 -70.5 11t-52.5 33.5t-29 57t0 81.5l31 169q13 78 -14.5 116.5t-107.5 38.5q-67 0 -111 -25.5t-68 -87.5h123l-7 -44q-51 -17 -85.5 -59.5t-45.5 -99.5q-6 -33 -2.5 -53.5t14 -32.5t28 -17
t39.5 -6q13 -2 25.5 -1t28.5 3l-13 -72q-23 -6 -45 -8.5t-42 -2.5q-35 1 -63.5 11.5t-47 32t-25.5 53t1 74.5q6 33 19.5 61t31.5 50t39 38t41 24h-113q21 121 94.5 182.5t199.5 61.5q128 0 177 -58t29 -170l-27 -159q-7 -36 -3 -59.5t16.5 -37.5t33 -19.5t47.5 -5.5
q28 0 55 12.5t50 34.5t39.5 52t22.5 65l60 341h98l-101 -577h-95z" />
    <glyph glyph-name="uni0E14" unicode="&#xe14;" horiz-adv-x="626" 
d="M418 581q49 0 93.5 -11.5t75.5 -38t45.5 -68.5t3.5 -103l-63 -360h-98l63 359q6 39 -3.5 65.5t-29 43t-46.5 23.5t-56 7q-46 0 -82 -17.5t-62 -47t-42.5 -68t-24.5 -80.5q-7 -40 -7 -78.5t12.5 -67.5t40 -47t74.5 -18q11 0 25.5 1t25.5 3l-14 -77q-14 -3 -32 -4t-32 -1
q-56 0 -98 17.5t-67.5 53.5t-33.5 90.5t5 127.5q13 72 42.5 127t72 92.5t96.5 57t116 19.5z" />
    <glyph glyph-name="uni0E15" unicode="&#xe15;" horiz-adv-x="626" 
d="M529 581q44 0 70 -10.5t39 -32t14 -53t-7 -73.5l-72 -412h-100l74 423q2 11 4 24.5t-1.5 25t-14.5 19t-34 7.5q-29 0 -45 -22t-26 -51h-68q0 31 -9.5 52t-38.5 21t-49.5 -18.5t-34 -47.5t-22.5 -66t-16 -75q-7 -40 -7.5 -78t10 -67.5t35 -48.5t67.5 -23q14 -2 30 -0.5
t30 3.5l-13 -77q-14 -3 -30.5 -4t-31.5 -1q-56 0 -98 17.5t-66.5 53.5t-32 90.5t5.5 127.5q12 69 29.5 123.5t44 93t63 59t87.5 20.5q45 0 67.5 -22t25.5 -64q17 42 46.5 64t74.5 22z" />
    <glyph glyph-name="uni0E16" unicode="&#xe16;" horiz-adv-x="617" 
d="M409 581q131 0 183.5 -58t32.5 -170l-61 -353h-100l60 344q14 78 -17.5 116.5t-113.5 38.5q-68 0 -117 -25.5t-73 -87.5h123l-7 -44q-51 -17 -85.5 -59.5t-45.5 -99.5q-6 -33 -2.5 -53.5t14.5 -32.5t28 -17t39 -6q13 -2 25.5 -1t28.5 3l-13 -72q-23 -6 -45 -8.5t-42 -2.5
q-35 1 -63.5 12t-47 32t-25.5 52.5t1 74.5q6 33 19.5 61t31.5 50t39 38t41 24h-113q21 121 99 182.5t206 61.5z" />
    <glyph glyph-name="uni0E17" unicode="&#xe17;" horiz-adv-x="617" 
d="M465 583q41 0 75 -12.5t57.5 -36.5t33 -59.5t1.5 -81.5l-68 -393h-99l64 367q6 36 -1 62t-23.5 42t-41.5 23.5t-54 7.5q-77 0 -131 -44.5t-68 -119.5l-59 -338h-98l101 577h94l-19 -106h3q26 52 88.5 82t144.5 30z" />
    <glyph glyph-name="uni0E18" unicode="&#xe18;" horiz-adv-x="564" 
d="M217 401q97 -18 163.5 -40t106.5 -50.5t54 -64.5t6 -81q-7 -44 -31 -76t-59.5 -53t-81 -31t-97.5 -10q-48 0 -88.5 11t-68.5 32t-41.5 52t-7.5 71q5 30 16.5 53t22.5 40h87q-11 -19 -20.5 -41.5t-13.5 -50.5q-3 -23 6.5 -40t28 -27.5t43 -15.5t51.5 -5q28 0 54.5 5
t48.5 16t37.5 29t19.5 45q5 29 -7.5 53t-51 45t-107 41t-174.5 41l4 29q10 53 37 91.5t64.5 63.5t81 36.5t86.5 11.5q44 0 82.5 -12.5t66.5 -35t42.5 -52.5t10.5 -66h-94q0 18 -9.5 34t-26.5 27.5t-39 18t-48 6.5q-25 0 -50 -6t-45.5 -18.5t-36 -31.5t-22.5 -44z" />
    <glyph glyph-name="uni0E19" unicode="&#xe19;" horiz-adv-x="609" 
d="M555 0h-95l18 104h-2q-36 -55 -90.5 -83.5t-138.5 -28.5q-40 0 -73 12.5t-55.5 36.5t-32 60t-1.5 83l69 393h98l-65 -368q-6 -36 0.5 -62t23 -42.5t40.5 -24.5t52 -8q37 0 69.5 13t58.5 34.5t43 50.5t23 61l61 346h98z" />
    <glyph glyph-name="uni0E1A" unicode="&#xe1a;" horiz-adv-x="615" 
d="M663 577l-63 -353q-10 -63 -34.5 -107.5t-62 -72t-87 -40t-110.5 -12.5t-106.5 12.5t-73 40t-36.5 72t1 107.5l63 353h100l-60 -341q-7 -37 -4.5 -67.5t16.5 -52t42 -33t73 -11.5q44 0 75.5 11.5t53 33t34.5 52t20 67.5l60 341h99z" />
    <glyph glyph-name="uni0E1B" unicode="&#xe1b;" horiz-adv-x="615" 
d="M686 708l-86 -484q-10 -63 -34.5 -107.5t-62 -72t-87 -40t-110.5 -12.5t-106.5 12.5t-73 40t-36.5 72t1 107.5l63 353h100l-60 -341q-7 -37 -4.5 -67.5t16.5 -52t42 -33t73 -11.5q44 0 75.5 11.5t53 33t34.5 52t20 67.5l83 472h99z" />
    <glyph glyph-name="uni0E1C" unicode="&#xe1c;" horiz-adv-x="628" 
d="M673 577l-101 -577h-89l-132 211l-205 -211h-90l72 415q17 86 69.5 126t128.5 40q12 0 24.5 -1.5t26.5 -3.5l-13 -71q-10 2 -18 2.5t-16 0.5q-26 0 -44 -8t-30.5 -22t-19.5 -33t-11 -41l-50 -283l172 181h38l109 -181l80 456h99z" />
    <glyph glyph-name="uni0E1D" unicode="&#xe1d;" horiz-adv-x="628" 
d="M696 708l-124 -708h-89l-132 211l-205 -211h-90l72 415q17 86 69.5 126t128.5 40q12 0 24.5 -1.5t26.5 -3.5l-13 -71q-10 2 -18 2.5t-16 0.5q-26 0 -44 -8t-30.5 -22t-19.5 -33t-11 -41l-50 -283l172 181h38l109 -181l104 587h98z" />
    <glyph glyph-name="uni0E1E" unicode="&#xe1e;" horiz-adv-x="763" 
d="M846 577l-233 -577h-88l-65 448l-224 -448h-87l-30 577h101l9 -434l212 421h78l64 -421l162 434h101z" />
    <glyph glyph-name="uni0E1F" unicode="&#xe1f;" horiz-adv-x="761" 
d="M898 708l-285 -708h-88l-65 448l-224 -448h-87l-30 577h101l9 -434l212 421h78l64 -421l217 565h98z" />
    <glyph glyph-name="uni0E20" unicode="&#xe20;" horiz-adv-x="626" 
d="M419 581q130 0 182.5 -58t32.5 -170l-61 -353h-98l60 344q14 78 -18 116.5t-114 38.5q-69 0 -117.5 -25.5t-71.5 -87.5h130l-7 -42q-40 -14 -63.5 -46t-31.5 -77l-14 -76q-5 -30 -15 -57t-26.5 -47.5t-41 -33t-59.5 -12.5q-17 0 -34 1t-37 5l12 73q14 -3 23.5 -3.5
t19.5 0.5q27 4 41.5 22t20.5 52l14 75q6 37 29.5 69.5t59.5 47.5h-122q22 121 100 182.5t206 61.5z" />
    <glyph glyph-name="uni0E21" unicode="&#xe21;" horiz-adv-x="609" 
d="M53 0l101 577h98l-61 -346q-6 -32 3.5 -61t30 -50.5t50.5 -34.5t67 -13q57 0 97.5 30.5t53.5 103.5l65 371h98l-69 -391q-8 -47 -28.5 -83t-50 -61t-65.5 -37.5t-75 -12.5q-83 0 -135.5 28t-63.5 84h-3l-17 -104h-96z" />
    <glyph glyph-name="uni0E22" unicode="&#xe22;" horiz-adv-x="603" 
d="M651 577l-62 -346q-23 -128 -94 -183.5t-195 -55.5t-181 45t-40 135q11 60 48 94t91 49q-47 13 -71.5 43t-16.5 81q11 75 59.5 109.5t119.5 34.5q37 0 79 -9l-14 -75q-14 2 -25.5 3.5t-22.5 1.5q-76 0 -94 -61q-8 -25 0 -42.5t25.5 -29t41.5 -17t48 -5.5h36l-13 -72h-33
q-22 0 -47.5 -4.5t-48.5 -15.5t-39.5 -28.5t-21.5 -44.5q-4 -24 0 -44.5t19 -35.5t43 -23.5t73 -8.5q47 0 78.5 12.5t51.5 36.5t31.5 57.5t18.5 75.5l58 323h98z" />
    <glyph glyph-name="uni0E23" unicode="&#xe23;" horiz-adv-x="536" 
d="M397 310q32 -11 57.5 -24t42 -31t23.5 -41t1 -54q-7 -45 -32.5 -76.5t-61 -52t-78 -29.5t-84.5 -9q-43 0 -80 10.5t-64 31.5t-41 52t-10 71h91q2 -39 35 -62.5t84 -23.5q27 0 51.5 5.5t44 16.5t32.5 28t16 39q3 18 -3.5 31t-25.5 24t-49.5 21t-75.5 21q-38 9 -68 21.5
t-49.5 31t-27.5 44t-1 61.5q7 39 31.5 69.5t59 52t75.5 32.5t83 11q40 0 76.5 -10.5t63 -31.5t40.5 -52t8 -72h-90q1 20 -7.5 36t-24 27t-36.5 17t-46 6q-24 0 -47 -6t-41.5 -17t-31 -26.5t-16.5 -35.5q-4 -22 9 -37t37 -26t58 -21t72 -22z" />
    <glyph glyph-name="uni0E24" unicode="&#xe24;" horiz-adv-x="617" 
d="M409 581q131 0 183.5 -58t32.5 -170l-97 -548h-100l96 539q14 78 -17.5 116.5t-113.5 38.5q-68 0 -117 -25.5t-73 -87.5h123l-7 -44q-51 -17 -85.5 -59.5t-45.5 -99.5q-6 -33 -2.5 -53.5t14.5 -32.5t28 -17t39 -6q13 -2 25.5 -1t28.5 3l-13 -72q-23 -6 -45 -8.5t-42 -2.5
q-35 1 -63.5 12t-47 32t-25.5 52.5t1 74.5q6 33 19.5 61t31.5 50t39 38t41 24h-113q21 121 99 182.5t206 61.5z" />
    <glyph glyph-name="uni0E25" unicode="&#xe25;" horiz-adv-x="595" 
d="M542 0h-100l45 262q-81 -3 -138.5 -8.5t-95 -17.5t-56.5 -32t-25 -51q-6 -34 11.5 -55.5t56.5 -21.5q16 -1 34.5 1t37.5 6l-12 -75q-59 -14 -110 -12q-30 1 -55.5 11.5t-42 29t-23 47t0.5 65.5q11 63 49 99.5t95.5 55.5t131.5 26t156 11q5 33 3.5 61.5t-14.5 49.5
t-40 33.5t-74 12.5q-48 0 -89 -23.5t-64 -66.5h-97q15 40 41.5 72t61.5 54.5t76.5 34.5t85.5 12q121 0 176 -56t34 -178z" />
    <glyph glyph-name="uni0E26" unicode="&#xe26;" horiz-adv-x="626" 
d="M419 581q130 0 182.5 -58t32.5 -170l-96 -548h-99l96 539q14 78 -18 116.5t-114 38.5q-69 0 -117.5 -25.5t-71.5 -87.5h130l-7 -42q-40 -14 -63.5 -46t-31.5 -77l-14 -76q-5 -30 -15 -57t-26.5 -47.5t-41 -33t-59.5 -12.5q-17 0 -34 1t-37 5l12 73q14 -3 23.5 -3.5
t19.5 0.5q27 4 41.5 22t20.5 52l14 75q6 37 29.5 69.5t59.5 47.5h-122q22 121 100 182.5t206 61.5z" />
    <glyph glyph-name="uni0E27" unicode="&#xe27;" horiz-adv-x="568" 
d="M373 581q120 0 173 -74.5t28 -217.5q-24 -142 -102.5 -217.5t-202.5 -75.5q-44 0 -81 12t-64 34t-42 54t-15 72h97q8 -43 39.5 -67.5t78.5 -24.5q44 0 77.5 18t57.5 47.5t39 68t22 79.5q7 40 5.5 77.5t-15 67t-40.5 47t-71 17.5q-47 0 -87.5 -23.5t-63.5 -66.5h-97
q15 40 41.5 72t61 54.5t76 34.5t85.5 12z" />
    <glyph glyph-name="uni0E28" unicode="&#xe28;" horiz-adv-x="626" 
d="M116 347q12 65 36.5 108t62 69.5t88 39.5t113.5 17q30 2 70 5.5t81.5 7.5t80.5 8t66 7l-13 -74l-163 -11v-1q34 -9 54.5 -25.5t29.5 -42t8.5 -60t-8.5 -81.5l-54 -314h-99l60 347q6 34 3.5 61.5t-16.5 47.5t-42 31t-73 11q-44 0 -76 -11.5t-54.5 -33t-36 -51.5t-20.5 -68
l-20 -117q28 45 73 65.5t90 20.5h48l-15 -83h-53q-30 0 -57.5 -9t-50 -24.5t-37.5 -36.5t-19 -45l-17 -105h-100z" />
    <glyph glyph-name="uni0E29" unicode="&#xe29;" horiz-adv-x="626" 
d="M416 383q-2 -13 -0.5 -22t8.5 -14.5t21 -7.5t38 -2h37l42 240h100l-43 -240h52l-12 -72h-52l-8 -41q-11 -63 -35.5 -107.5t-62 -72t-87 -40t-110.5 -12.5t-106 12.5t-73 40t-37 72t2 107.5l63 353h99l-60 -341q-6 -37 -3.5 -67.5t16.5 -52t42 -33t72 -11.5t75.5 11.5
t53.5 33t34.5 52t19.5 67.5l6 29h-51q-51 0 -80 9t-41.5 25t-12.5 37.5t6 46.5h87z" />
    <glyph glyph-name="uni0E2A" unicode="&#xe2a;" horiz-adv-x="599" 
d="M686 609l-12 -74l-164 -11v-1q34 -9 54.5 -25.5t30.5 -42t9.5 -60t-8.5 -81.5l-54 -314h-100l45 262q-81 -3 -138.5 -8.5t-95 -17.5t-56.5 -32t-25 -51q-6 -35 12 -56t56 -21q16 -1 34.5 1t37.5 6l-12 -75q-59 -14 -110 -12q-30 1 -55.5 11.5t-42 29t-23 47t0.5 65.5
q11 63 49 99.5t96 55.5t132 26t157 11q5 32 3.5 60.5t-14.5 50t-40.5 34t-74.5 12.5q-46 0 -88.5 -23.5t-65.5 -66.5h-97q34 85 101 124.5t165 48.5z" />
    <glyph glyph-name="uni0E2B" unicode="&#xe2b;" horiz-adv-x="589" 
d="M461 340q65 -5 92.5 -45.5t15.5 -110.5l-31 -184h-99l32 186q6 29 -0.5 47t-21 28.5t-34 14.5t-40.5 4h-172l-49 -280h-98l101 577h98l-38 -221h156l150 221h107z" />
    <glyph glyph-name="uni0E2C" unicode="&#xe2c;" horiz-adv-x="761" 
d="M898 708q-25 -68 -61.5 -99.5t-86.5 -42.5q36 -15 46 -50.5t-17 -102.5l-165 -413h-89l-65 448l-224 -448h-87l-30 577h101l9 -434l210 421h80l64 -421l107 276q11 31 16.5 55t1 40.5t-22 25t-51.5 9.5l10 50q35 0 61 5.5t45 18.5t33 33.5t25 51.5h90z" />
    <glyph glyph-name="uni0E2D" unicode="&#xe2d;" horiz-adv-x="596" 
d="M394 581q58 0 103 -19.5t73.5 -57t38 -92t-2.5 -125.5q-12 -70 -40 -124.5t-69 -92.5t-93 -58t-112 -20q-70 0 -117.5 26t-70.5 70t-21.5 102t28.5 122h196l-12 -72h-109q-10 -31 -6.5 -61t19.5 -54t43 -38.5t65 -14.5q47 0 81.5 18.5t59 48.5t39.5 69t22 80q8 45 3.5 83
t-20.5 66.5t-44 44.5t-69 16q-47 0 -91.5 -22.5t-69.5 -67.5h-94q14 41 42 73t64.5 54t78.5 34t85 12z" />
    <glyph glyph-name="uni0E2E" unicode="&#xe2e;" horiz-adv-x="596" 
d="M684 609l-13 -74l-163 -11v-1q60 -22 87.5 -81.5t10.5 -154.5q-12 -69 -40 -124t-68.5 -93t-92.5 -58t-112 -20q-70 0 -118 26t-71 70t-21.5 102t28.5 122h196l-12 -72h-108q-10 -31 -7 -61t19 -54t43 -38.5t65 -14.5q47 0 81.5 18.5t59 48.5t39.5 69t22 80
q7 42 4.5 80.5t-17.5 67t-43.5 45.5t-73.5 17q-51 0 -93.5 -23.5t-65.5 -66.5h-97q31 81 100 122t166 51z" />
    <glyph glyph-name="uni0E2F" unicode="&#xe2f;" horiz-adv-x="596" 
d="M426 0l60 341h-3q-29 -51 -80.5 -80.5t-132.5 -29.5q-34 0 -65 12t-52.5 35.5t-31.5 59t-2 81.5q8 44 26 74.5t44.5 50t58.5 28.5t67 9q17 0 32.5 -1.5t35.5 -6.5l-12 -64q-11 1 -19 2t-18 1q-39 0 -70.5 -22t-39.5 -68q-5 -28 0 -49t17.5 -35t32 -21t43.5 -7
q34 0 65.5 13t57 35t43 52.5t23.5 64.5l18 102h98l-101 -577h-95z" />
    <glyph glyph-name="uni0E30" unicode="&#xe30;" horiz-adv-x="386" 
d="M405 426l-13 -77h-125q-57 0 -88 11.5t-44 31.5t-12 46t9 56h82q-4 -19 -4 -32.5t7 -21t22 -11t42 -3.5h124zM353 138l-13 -77h-124q-57 0 -88.5 11.5t-44 31t-11 46t9.5 56.5h82q-10 -39 1 -53.5t64 -14.5h124z" />
    <glyph glyph-name="uni0E31" unicode="&#xe31;" 
d="M135 733l-12 -74h-243q-59 0 -91 10.5t-45 29t-11.5 44t9.5 54.5h86q-4 -19 -4 -32t7 -20.5t22 -10t42 -1.5h240z" />
    <glyph glyph-name="uni0E32" unicode="&#xe32;" horiz-adv-x="473" 
d="M318 0l70 396q5 28 -2 47.5t-21 31.5t-34.5 17.5t-43.5 6.5q-45 2 -85.5 -9t-88.5 -32l14 78q51 24 97.5 34.5t97.5 10.5q42 0 76 -10.5t57 -31.5t32.5 -53t2.5 -74l-72 -412h-100z" />
    <glyph glyph-name="uni0E33" unicode="&#xe33;" horiz-adv-x="473" 
d="M-5 816q46 0 70 -25.5t17 -67.5q-8 -41 -41 -67t-79 -26q-48 0 -72 25.5t-17 67.5q8 42 41 67.5t81 25.5zM-29 682q19 0 32 11.5t16 29.5q3 20 -7 30.5t-27 10.5q-19 0 -32.5 -10.5t-16.5 -30.5q-3 -18 7 -29.5t28 -11.5zM318 0l70 396q5 28 -2 47.5t-21 31.5t-34.5 17.5
t-43.5 6.5q-45 2 -85.5 -9t-88.5 -32l14 78q51 24 97.5 34.5t97.5 10.5q42 0 76 -10.5t57 -31.5t32.5 -53t2.5 -74l-72 -412h-100z" />
    <glyph glyph-name="uni0E34" unicode="&#xe34;" 
d="M63 659h-471l12 74h471z" />
    <glyph glyph-name="uni0E35" unicode="&#xe35;" 
d="M89 809l-26 -150h-471l12 74h384l12 76h89z" />
    <glyph glyph-name="uni0E36" unicode="&#xe36;" 
d="M11 817q42 0 60 -22.5t12 -56.5q-6 -35 -30 -57t-65 -22h-396l12 74h313q1 21 10.5 37t23 26.5t29.5 15.5t31 5zM-7 707q14 0 24.5 8.5t12.5 22.5t-5.5 23t-21.5 9t-24 -9t-12 -23t5 -22.5t21 -8.5z" />
    <glyph glyph-name="uni0E37" unicode="&#xe37;" 
d="M89 809l-26 -150h-470l13 74h256l14 76h76l-13 -76h61l14 76h75z" />
    <glyph glyph-name="uni0E38" unicode="&#xe38;" 
d="M-101 -252h-87l19 106h-85l11 65h172z" />
    <glyph glyph-name="uni0E39" unicode="&#xe39;" 
d="M-71 -81l-14 -77q-6 -35 -22.5 -56.5t-38 -33t-45.5 -15t-46 -3.5q-25 0 -47 4.5t-38 17.5t-22.5 36.5t-0.5 61.5h-55l11 65h132l-12 -68q-5 -32 6.5 -44.5t35.5 -12.5q30 0 43 14.5t20 57.5l10 53h83z" />
    <glyph glyph-name="uni0E3A" unicode="&#xe3a;" 
d="M-213 -150q5 29 29 49t53 20q30 0 47 -20t12 -49q-5 -30 -29.5 -51t-54.5 -21q-29 0 -45.5 21t-11.5 51z" />
    <glyph glyph-name="uni0E3F" unicode="&#xe3f;" horiz-adv-x="617" 
d="M476 355q73 -6 109.5 -51.5t23.5 -119.5q-16 -88 -88.5 -136t-184.5 -48h-4l-20 -104h-90l20 104h-190l123 700h189l18 98h90l-18 -99q98 -7 147 -48t35 -122q-6 -31 -19.5 -60t-33.5 -52t-46.5 -39t-58.5 -21zM364 385q67 0 111.5 34t53.5 89q10 52 -23 82.5t-101 30.5
h-143l-42 -236h144zM325 79q78 0 124.5 28.5t56.5 88.5q11 60 -28 89.5t-118 29.5h-153l-41 -236h159z" />
    <glyph glyph-name="uni0E40" unicode="&#xe40;" horiz-adv-x="322" 
d="M306 5q-19 -4 -36.5 -5t-34.5 -1q-85 0 -114 46.5t-12 145.5l68 386h100l-71 -402q-5 -30 -2.5 -49.5t11.5 -31t24 -15.5t34 -4q21 0 46 3z" />
    <glyph glyph-name="uni0E41" unicode="&#xe41;" horiz-adv-x="609" 
d="M306 5q-19 -4 -36.5 -5t-34.5 -1q-79 0 -111.5 43t-17.5 135l71 400h100l-71 -402q-5 -30 -2.5 -49.5t11.5 -31t24 -15.5t34 -4q21 0 46 3zM592 5q-18 -4 -36 -5t-35 -1q-79 0 -111 43t-17 135l71 400h100l-71 -402q-5 -30 -2.5 -49.5t11.5 -31t23.5 -15.5t33.5 -4
q20 0 47 3z" />
    <glyph glyph-name="uni0E42" unicode="&#xe42;" horiz-adv-x="368" 
d="M349 5q-20 -4 -37 -5t-34 -1q-80 0 -111 43.5t-16 134.5l59 332q5 26 5.5 47t-8.5 37.5t-31 30t-63 24.5l3 11q8 46 30.5 77.5t52.5 50.5t64 27.5t64 8.5q32 0 61.5 -8.5t52 -25t35.5 -40.5t11 -56h-83q-1 27 -28 42t-61 15q-44 0 -72 -20t-37 -44q42 -15 65.5 -34.5
t33.5 -42.5t10 -49.5t-5 -53.5l-59 -331q-5 -30 -2.5 -49.5t11.5 -31t23.5 -15.5t33.5 -4t46 3z" />
    <glyph glyph-name="uni0E43" unicode="&#xe43;" horiz-adv-x="360" 
d="M341 5q-18 -4 -36 -5t-35 -1q-79 0 -110 43t-15 135l49 276q6 30 20 54.5t33 45t39.5 38t38.5 33t30.5 30.5t15.5 31q5 29 -13 46.5t-59 17.5q-43 0 -66.5 -25t-30.5 -72h-85q11 81 63 126t134 45q38 0 68 -8t49 -25t26.5 -43.5t0.5 -64.5q-6 -37 -30 -61.5t-52 -48
t-52.5 -51t-31.5 -69.5l-49 -277q-5 -30 -2.5 -49.5t11 -31t23 -15.5t33.5 -4q20 0 47 3z" />
    <glyph glyph-name="uni0E44" unicode="&#xe44;" horiz-adv-x="360" 
d="M341 5q-18 -4 -36 -5t-35 -1q-80 0 -110.5 43.5t-14.5 134.5l56 313q8 47 33 81t52.5 60t50.5 47t27 42q3 20 -7 26.5t-24 6.5q-23 0 -43.5 -18.5t-31.5 -44.5h-67l-80 127h92l37 -73q16 35 44 57t69 22q24 0 44 -5t34 -15.5t20.5 -27.5t1.5 -41q-5 -27 -16.5 -45.5
t-26.5 -34.5t-32.5 -31t-33 -35t-28.5 -47.5t-20 -67.5l-53 -298q-5 -30 -2.5 -49.5t11 -31t23 -15.5t33.5 -4q20 0 47 3z" />
    <glyph glyph-name="uni0E45" unicode="&#xe45;" horiz-adv-x="473" 
d="M282 -195l106 591q5 28 -2 47.5t-21 31.5t-34.5 17.5t-43.5 6.5q-45 2 -85.5 -9t-88.5 -32l14 78q51 24 97.5 34.5t97.5 10.5q42 0 76 -10.5t57 -31.5t32.5 -53t2.5 -74l-108 -607h-100z" />
    <glyph glyph-name="uni0E46" unicode="&#xe46;" horiz-adv-x="592" 
d="M484 581q44 0 68.5 -10.5t35 -31.5t10 -53t-8.5 -74l-39 -220q-17 -97 -65 -145t-126 -52q-19 0 -40.5 0.5t-38.5 4.5l11 70q26 -3 43 -2q47 2 75.5 26.5t38.5 77.5l43 251q2 11 4 24t-1 24.5t-12 19t-29 7.5q-25 0 -41.5 -21.5t-26.5 -50.5h-62q-3 29 -12 50.5t-35 21.5
q-18 0 -29.5 -9.5t-18.5 -22.5t-10 -26t-4 -20q-11 -62 -1 -90.5t56 -30.5q14 -2 29 -1.5t35 5.5l-14 -71q-23 -4 -41 -5.5t-38 -1.5q-71 2 -105 44.5t-19 126.5l3 22q7 38 17.5 68t28.5 51t45 32.5t68 11.5q45 0 65 -23t21 -65q18 42 46.5 65t73.5 23z" />
    <glyph glyph-name="uni0E47" unicode="&#xe47;" 
d="M-190 820q-26 0 -41.5 -12t-20.5 -40q-5 -29 11 -39t38 -10q18 0 39 14t33 42h38l100 -57l-11 -68h-14l-95 54q-20 -28 -52.5 -40.5t-67.5 -12.5q-51 0 -81 28.5t-19 88.5q11 62 55 93t117 31h221l-14 -72h-236z" />
    <glyph glyph-name="uni0E48" unicode="&#xe48;" 
d="M94 857h-84l30 169h84z" />
    <glyph glyph-name="uni0E49" unicode="&#xe49;" 
d="M169 925l-12 -68h-303l8 45q25 6 41.5 14t27 17.5t15 19t6.5 17.5q2 11 -8 20t-33 9q-15 0 -31 -4l8 47q33 11 62 11q36 0 60.5 -16.5t18.5 -48.5q-3 -17 -17 -37t-35 -34q11 3 25 4.5t28 2t27 1t22 0.5h90z" />
    <glyph glyph-name="uni0E4A" unicode="&#xe4a;" 
d="M145 913l-10 -56h-127l14 79q3 16 -1 28.5t-24 12.5q-23 0 -34 -12t-16 -30h-49q1 24 -7.5 33.5t-25.5 9.5q-20 0 -29 -9t-12 -27q-4 -23 9.5 -29t45.5 -6l-10 -49q-9 -1 -17.5 -1h-16.5q-43 0 -67 17.5t-16 64.5l1 9q8 42 33 68t73 26q61 0 74 -47q31 47 87 47
q50 0 66 -26.5t8 -71.5l-7 -31h58z" />
    <glyph glyph-name="uni0E4B" unicode="&#xe4b;" 
d="M172 917h-72l-11 -60h-74l11 60h-72l9 52h72l10 58h74l-10 -58h72z" />
    <glyph glyph-name="uni0E4C" unicode="&#xe4c;" 
d="M156 892l-146 -15q-34 -3 -43.5 -17.5t-11.5 -40.5h-85q3 27 9 48t18.5 36t33 25t53.5 14l184 20z" />
    <glyph glyph-name="uni0E4D" unicode="&#xe4d;" 
d="M-5 816q46 0 70 -25.5t17 -67.5q-8 -41 -41 -67t-79 -26q-48 0 -72 25.5t-17 67.5q8 42 41 67.5t81 25.5zM-29 682q19 0 32 11.5t16 29.5q3 20 -7 30.5t-27 10.5q-19 0 -32.5 -10.5t-16.5 -30.5q-3 -18 7 -29.5t28 -11.5z" />
    <glyph glyph-name="uni0E4E" unicode="&#xe4e;" 
d="M-348 0v675h681v-675h-681zM306 22q6 0 6 7v619q0 6 -6 6h-627q-6 0 -6 -6v-619q0 -7 6 -7h627z" />
    <glyph glyph-name="uni0E4F" unicode="&#xe4f;" horiz-adv-x="539" 
d="M363 540q47 0 84.5 -17.5t63 -47.5t36 -70.5t2.5 -87.5t-33 -88.5t-61 -72t-80 -48t-91 -17.5q-46 0 -84 17.5t-63 48t-35 72t-2 88.5t32.5 87.5t60.5 70.5t80 47.5t90 17.5zM295 147q35 0 67.5 13.5t58.5 36.5t44.5 54t24.5 66t-1.5 65t-26 52.5t-46.5 35.5t-63 13
q-34 0 -67.5 -13t-60.5 -35.5t-46 -52.5t-25 -65t2 -66t27.5 -54t48 -36.5t63.5 -13.5zM347 442q26 0 46.5 -9.5t34.5 -26.5t19.5 -39.5t0.5 -49.5q-4 -26 -18 -49t-34 -40t-44 -27t-50 -10t-47 10t-35 27t-20 40t-2 49q5 27 19 49.5t34.5 39.5t45 26.5t50.5 9.5zM310 239
q16 0 31 6t27 16.5t20 25t10 30.5q7 32 -10.5 52.5t-50.5 20.5q-32 0 -58 -20.5t-32 -52.5q-5 -33 13 -55.5t50 -22.5z" />
    <glyph glyph-name="uni0E50" unicode="&#xe50;" horiz-adv-x="604" 
d="M392 517q56 0 102 -17.5t76.5 -51.5t42.5 -83t1 -111t-40.5 -110.5t-71.5 -82.5t-94.5 -51.5t-108.5 -17.5q-55 0 -101 17.5t-76 51.5t-42.5 82.5t-1.5 110.5t41 111t72 83t94 51.5t107 17.5zM312 70q35 0 68.5 12t61.5 35.5t48.5 58t28.5 78.5q8 45 -0.5 79.5t-28 58
t-49 35.5t-63.5 12t-67 -12t-60.5 -35.5t-47.5 -58t-28 -79.5q-8 -44 0 -78.5t27 -58t47.5 -35.5t62.5 -12z" />
    <glyph glyph-name="uni0E51" unicode="&#xe51;" horiz-adv-x="610" 
d="M308 91q-48 -4 -93 4.5t-77.5 31.5t-48.5 61t-6 93q11 63 40 107.5t70 73t92.5 42t106.5 13.5q56 0 102.5 -18.5t77.5 -54t44 -88t1 -121.5q-10 -59 -41 -117.5t-81 -104t-120 -69.5t-159 -14l12 75q62 -9 112 7.5t87 49.5t60.5 78.5t32.5 94.5q9 50 0.5 88t-28.5 63.5
t-50 39t-64 13.5t-66 -8.5t-59 -27.5t-46 -49t-27 -73q-6 -32 4.5 -55.5t31 -38t48.5 -20t58 -1.5z" />
    <glyph glyph-name="uni0E52" unicode="&#xe52;" horiz-adv-x="738" 
d="M173 682h94l-79 -446q-9 -49 6 -81t44 -50.5t67 -26t76 -7.5q40 0 81 7.5t76 26.5t60 50.5t34 80.5l22 123q2 11 3 24.5t-2 25t-12.5 19t-29.5 7.5q-28 0 -45 -21.5t-28 -50.5h-65q0 29 -8.5 50.5t-35.5 21.5q-19 0 -31.5 -7.5t-20 -19t-11 -24.5t-5.5 -25
q-11 -61 0.5 -87t52.5 -28q14 -1 30.5 0t36.5 4l-12 -67q-28 -5 -50.5 -6.5t-45.5 0.5q-57 4 -88 40.5t-18 107.5l9 50q13 72 48.5 108t104.5 36q45 0 66 -22.5t23 -64.5q17 42 45.5 64.5t73.5 22.5q42 0 66.5 -11t35.5 -33.5t11 -56t-8 -78.5l-19 -109q-11 -62 -44 -106.5
t-81 -73.5t-108.5 -43t-125.5 -14t-120 14t-92.5 43t-54.5 73.5t-6 106.5z" />
    <glyph glyph-name="uni0E53" unicode="&#xe53;" horiz-adv-x="654" 
d="M540 517q45 0 72 -10t40.5 -30.5t15 -51.5t-5.5 -73l-62 -352h-99l63 359q2 11 3 24.5t-3.5 25.5t-16.5 20t-35 8q-28 0 -46.5 -22.5t-28.5 -51.5h-74q0 29 -11.5 51.5t-39.5 22.5q-30 0 -50 -16.5t-34 -43t-22.5 -59.5t-14.5 -67q-6 -36 -5.5 -67.5t12.5 -56t38 -39
t70 -16.5q12 -1 28.5 -0.5t29.5 2.5l-12 -73q-14 -3 -31.5 -4t-31.5 -1q-56 -2 -99 11t-69 43t-34.5 77.5t3.5 116.5q11 60 28 110t43 86.5t62.5 56.5t87.5 20q45 0 71.5 -22.5t29.5 -64.5q16 42 50 64.5t78 22.5z" />
    <glyph glyph-name="uni0E54" unicode="&#xe54;" horiz-adv-x="647" 
d="M385 435q-32 0 -64 -12t-58.5 -35t-45.5 -56.5t-27 -77.5q-8 -43 -1 -77t25 -57.5t46 -35.5t61 -12q26 0 52 5t45 14q-11 16 -15.5 37.5t0.5 42.5q11 69 55 106.5t123 37.5q13 0 26.5 -1t28.5 -3l-12 -64q-56 9 -92.5 -14t-44.5 -65q-4 -27 4 -45.5t23.5 -30t35.5 -17
t39 -5.5h40l-11 -70h-35q-84 0 -133 37q-21 -19 -60.5 -30t-82.5 -11q-56 0 -101 17t-74 50t-40 81t-1 110q11 63 39.5 111.5t69.5 81t92 49.5t106 17h119q58 0 90 22.5t40 79.5h79q-4 -44 -21.5 -78t-44.5 -56.5t-61 -34t-70 -11.5h-144z" />
    <glyph glyph-name="uni0E55" unicode="&#xe55;" horiz-adv-x="647" 
d="M307 -4q-56 0 -101 17t-74 50t-40 81t-1 110q9 51 30.5 92.5t52 73t67.5 51.5t78 28q-8 13 -10 29t1 34q8 48 44.5 78.5t88.5 30.5q53 0 78.5 -30.5t17.5 -78.5q-4 -27 -25 -46q30 2 53 6.5t39.5 15.5t26.5 29.5t14 47.5h79q-4 -50 -24 -84.5t-51 -55.5t-70.5 -30.5
t-83.5 -9.5h-96q-35 0 -69 -10t-62.5 -31.5t-49.5 -56t-30 -83.5q-8 -43 -1 -77t25 -57.5t46 -35.5t61 -12q26 0 52 5t45 14q-11 16 -15.5 37.5t0.5 42.5q11 69 55 106.5t123 37.5q13 0 26.5 -1t28.5 -3l-12 -64q-56 9 -92.5 -14t-44.5 -65q-4 -27 4 -45.5t23.5 -30
t35.5 -17t39 -5.5h40l-11 -70h-35q-84 0 -133 37q-21 -19 -60.5 -30t-82.5 -11zM416 514q23 0 38.5 13.5t20.5 34.5q4 24 -7 37.5t-34 13.5t-39.5 -13.5t-20.5 -37.5q-5 -21 7 -34.5t35 -13.5z" />
    <glyph glyph-name="uni0E56" unicode="&#xe56;" horiz-adv-x="658" 
d="M345 248q-59 8 -96.5 -7t-46.5 -69q-5 -28 4.5 -47.5t30 -31.5t49 -17.5t61.5 -5.5q34 0 67.5 10.5t62.5 32.5t50 56.5t30 82.5q17 91 -23.5 139.5t-126.5 50.5q-38 2 -78 -12.5t-70 -39.5h-72l-93 238h97l61 -165q27 23 72 38.5t95 15.5q77 0 126.5 -20.5t76.5 -56.5
t33.5 -84t-3.5 -104q-12 -68 -42.5 -117.5t-73.5 -81t-95 -46.5t-108 -15q-55 0 -101 10t-77 32t-45 56t-5 82q8 42 24.5 70.5t40.5 45t55 23.5t66 7q16 0 32 -1t33 -3z" />
    <glyph glyph-name="uni0E57" unicode="&#xe57;" horiz-adv-x="860" 
d="M534 517q44 0 69 -11.5t36 -34t10 -56.5t-9 -79l-36 -198q-6 -35 11.5 -50.5t43.5 -15.5t48 15.5t28 50.5l97 544h94l-90 -506q-9 -53 -26 -87.5t-41 -55t-55 -29t-69 -8.5t-66 8.5t-45 29t-21.5 55.5t4.5 88l33 182q2 11 4 24.5t-1 25.5t-13.5 20t-34.5 8
q-28 0 -46.5 -22.5t-28.5 -51.5h-74q0 29 -11.5 51.5t-38.5 22.5q-30 0 -49 -16.5t-32 -43t-20.5 -59.5t-13.5 -67q-7 -37 -6 -69t14 -56.5t41 -38.5t74 -15q11 -1 24.5 -0.5t25.5 2.5l-12 -73q-14 -3 -31.5 -4t-31.5 -1q-55 -1 -98 11.5t-69.5 42t-35 77.5t3.5 117
q11 60 27 110t40.5 86.5t60 56.5t86.5 20q45 0 71.5 -22.5t29.5 -64.5q16 42 50 64.5t79 22.5z" />
    <glyph glyph-name="uni0E58" unicode="&#xe58;" horiz-adv-x="641" 
d="M87 257q11 64 38.5 112t67 80t89 48t106.5 16h107q64 0 99 21t45 81h77q-3 -44 -20.5 -78t-44.5 -56.5t-61 -34t-70 -11.5h-145q-74 0 -124.5 -48.5t-64.5 -129.5q-6 -31 -8.5 -61.5t1.5 -56t17 -42t40 -19.5q17 -3 31 3.5t24.5 18.5t18 28t13.5 33h74q0 -15 1.5 -30.5
t7 -28t15 -20.5t24.5 -8q25 0 40.5 8t24.5 20t12.5 25t5.5 23l7 37q6 39 -8.5 62t-59.5 24q-14 0 -28 -0.5t-32 -5.5l11 65q23 3 43.5 4.5t42.5 1.5q71 0 106.5 -40t21.5 -115q-8 -43 -20.5 -78t-34 -59t-53.5 -37t-78 -13q-44 0 -70.5 22.5t-28.5 64.5q-17 -42 -51 -65
t-79 -23q-49 0 -79 20t-45 55t-15.5 83t9.5 104z" />
    <glyph glyph-name="uni0E59" unicode="&#xe59;" horiz-adv-x="718" 
d="M607 367q2 9 0.5 20.5t-7.5 21.5t-17.5 17t-31.5 7q-32 0 -49.5 -18.5t-25.5 -44.5l111 -370h-100l-108 363q-4 13 -9 25.5t-12 22.5t-17.5 16t-26.5 6q-30 0 -50 -16t-33.5 -41.5t-22 -58t-14.5 -66.5q-7 -36 -6.5 -68t12.5 -56t37.5 -38.5t69.5 -16.5q12 -1 28 -0.5
t27 2.5l-13 -73q-13 -3 -29.5 -4t-30.5 -1q-55 -2 -97 11t-68.5 43t-34.5 77.5t4 116.5q11 60 28 110t44 86.5t64.5 56.5t89.5 20q45 0 74 -24t38 -66q17 46 53 68t73 22q40 0 66.5 -15t34.5 -49l98 138h90l-161 -224h-78z" />
    <glyph glyph-name="uni0E5A" unicode="&#xe5a;" horiz-adv-x="800" 
d="M426 0l60 341h-3q-29 -52 -80.5 -81t-132.5 -29q-34 0 -65 12t-52.5 35.5t-31.5 59t-2 81.5q8 44 26 74.5t44.5 50t58.5 28.5t67 9q17 0 32.5 -1.5t35.5 -6.5l-12 -64q-11 1 -19 2t-18 1q-39 0 -70.5 -22t-39.5 -68q-5 -28 0 -49t17.5 -35t32 -21t43.5 -7q34 0 65.5 13
t57 35t43 52.5t23.5 64.5l18 102h98l-101 -577h-95zM628 0l101 577h97l-101 -577h-97z" />
    <glyph glyph-name="uni0E5B" unicode="&#xe5b;" horiz-adv-x="804" 
d="M61 0v675h681v-675h-681zM715 22q7 0 7 7v619q0 6 -7 6h-626q-7 0 -7 -6v-619q0 -7 7 -7h626z" />
    <glyph glyph-name="uni200C" unicode="&#x200c;" 
 />
    <glyph glyph-name="uni200D" unicode="&#x200d;" 
 />
    <glyph glyph-name="uni200E" unicode="&#x200e;" 
 />
    <glyph glyph-name="uni200F" unicode="&#x200f;" 
 />
    <glyph glyph-name="endash" unicode="&#x2013;" horiz-adv-x="478" 
d="M479 276h-385l15 80h385z" />
    <glyph glyph-name="emdash" unicode="&#x2014;" horiz-adv-x="685" 
d="M686 276h-592l15 80h592z" />
    <glyph glyph-name="quoteleft" unicode="&#x2018;" horiz-adv-x="242" 
d="M300 484h-89l-70 216h107z" />
    <glyph glyph-name="quoteright" unicode="&#x2019;" horiz-adv-x="240" 
d="M111 484l126 216h108l-147 -216h-87z" />
    <glyph glyph-name="quotesinglbase" unicode="&#x201a;" horiz-adv-x="180" 
d="M-22 -123l93 224h101l-112 -224h-82z" />
    <glyph glyph-name="quotedblleft" unicode="&#x201c;" horiz-adv-x="407" 
d="M141 700h102l52 -216h-84zM311 700h102l52 -216h-83z" />
    <glyph glyph-name="quotedblright" unicode="&#x201d;" horiz-adv-x="405" 
d="M408 700h102l-146 -216h-83zM237 700h103l-146 -216h-83z" />
    <glyph glyph-name="quotedblbase" unicode="&#x201e;" horiz-adv-x="345" 
d="M166 101l-111 -224h-77l93 224h95zM337 101l-112 -224h-78l95 224h95z" />
    <glyph glyph-name="dagger" unicode="&#x2020;" horiz-adv-x="542" 
d="M310 509l34 191h99l-34 -191h164l-12 -75h-164l-76 -434h-100l76 434h-163l12 75h164z" />
    <glyph glyph-name="daggerdbl" unicode="&#x2021;" horiz-adv-x="542" 
d="M310 509l34 191h99l-34 -191h164l-12 -75h-164l-30 -168h164l-14 -75h-164l-32 -191h-100l33 191h-164l14 75h163l30 168h-163l12 75h164z" />
    <glyph glyph-name="bullet" unicode="&#x2022;" horiz-adv-x="392" 
d="M231 192q-26 0 -47 10t-35 27t-20 39.5t-2 48.5q5 26 18.5 48t34 38.5t45 26t49.5 9.5t45.5 -9.5t34 -26t19.5 -38.5t1 -48q-4 -24 -17.5 -47t-33 -40t-43.5 -27.5t-49 -10.5z" />
    <glyph glyph-name="ellipsis" unicode="&#x2026;" horiz-adv-x="594" 
d="M445 64q4 26 26 44.5t53 18.5t45.5 -18.5t10.5 -44.5q-5 -26 -26 -45t-52 -19t-46.5 19t-10.5 45zM35 64q5 26 26.5 44.5t53.5 18.5q29 0 44.5 -18.5t11.5 -44.5q-5 -26 -27 -45t-51 -19q-32 0 -47.5 19t-10.5 45zM242 64q4 26 25 44.5t52 18.5q30 0 45.5 -18.5
t10.5 -44.5t-26.5 -45t-51.5 -19t-45 19t-10 45z" />
    <glyph glyph-name="perthousand" unicode="&#x2030;" horiz-adv-x="1053" 
d="M420 549q-6 -36 -22 -65t-39.5 -49.5t-52 -31.5t-59.5 -11t-55.5 11t-40.5 31.5t-21.5 49.5t0.5 65q6 37 22.5 66.5t39.5 50t51.5 31.5t59.5 11t56 -11t40.5 -31.5t21.5 -50t-1 -66.5zM734 700l-536 -700h-92l537 700h91zM203 549q-6 -39 9 -62.5t47 -23.5
q33 0 56.5 23.5t29.5 62.5q8 40 -7.5 62.5t-48.5 22.5q-34 0 -56 -22t-30 -63zM589 307q32 0 57 -11t41 -31.5t21.5 -50t-0.5 -65.5q-7 -36 -23 -65t-39 -49.5t-51.5 -31.5t-60.5 -11q-31 0 -56 11t-40.5 31.5t-21 49.5t1.5 65q6 36 22 65.5t38.5 50t51 31.5t59.5 11z
M926 307q32 0 57 -11t41 -31.5t21.5 -50t-0.5 -65.5q-7 -36 -23 -65t-39 -49.5t-51.5 -31.5t-60.5 -11q-31 0 -56 11t-40.5 31.5t-21 49.5t1.5 65q6 36 22 65.5t38.5 50t51 31.5t59.5 11zM547 63q32 0 55.5 23t30.5 63q8 40 -8 63.5t-48 23.5t-55 -23t-31 -64
q-7 -40 8.5 -63t47.5 -23zM884 63q33 0 56 23t30 63q8 40 -7.5 63.5t-48.5 23.5q-32 0 -55 -23t-31 -64q-7 -40 8.5 -63t47.5 -23z" />
    <glyph glyph-name="minute" unicode="&#x2032;" horiz-adv-x="240" 
d="M111 484l126 217h108l-147 -217h-87z" />
    <glyph glyph-name="second" unicode="&#x2033;" horiz-adv-x="405" 
d="M510 701l-146 -217h-83l127 217h102zM340 701l-146 -217h-83l126 217h103z" />
    <glyph glyph-name="guilsinglleft" unicode="&#x2039;" horiz-adv-x="549" 
d="M98 284l13 65l498 273l-18 -97l-385 -207l-1 -1l312 -209l-16 -96z" />
    <glyph glyph-name="guilsinglright" unicode="&#x203a;" horiz-adv-x="549" 
d="M50 12l17 96l386 209l1 1l-313 207l17 97l403 -273l-12 -65z" />
    <glyph glyph-name="fraction" unicode="&#x2044;" horiz-adv-x="392" 
d="M497 700l-376 -700h-103l376 700h103z" />
    <glyph glyph-name="franc" unicode="&#x20a3;" horiz-adv-x="528" 
 />
    <glyph glyph-name="dong" unicode="&#x20ab;" horiz-adv-x="569" 
 />
    <glyph glyph-name="Euro" unicode="&#x20ac;" horiz-adv-x="738" 
d="M199 472q48 112 136.5 174t208.5 62q56 0 101.5 -16.5t77.5 -46t49.5 -70.5t17.5 -91h-102q-5 63 -47 101.5t-112 38.5q-75 0 -131.5 -39.5t-89.5 -112.5h221l-12 -67h-237q-8 -23 -13.5 -52.5t-5.5 -53.5h237l-12 -67h-221q8 -75 50.5 -116t117.5 -41q71 0 124.5 34.5
t82.5 97.5h102q-17 -49 -48.5 -89t-73.5 -68t-93.5 -43t-108.5 -15q-121 0 -188 62.5t-74 177.5h-89l12 67h77q1 14 3.5 26.5t4.5 26.5t5 27l6 26h-77l13 67h88z" />
    <glyph glyph-name="uni2113" unicode="&#x2113;" horiz-adv-x="480" 
 />
    <glyph glyph-name="trademark" unicode="&#x2122;" horiz-adv-x="907" 
d="M482 643h-126l-64 -362h-72l64 362h-126l10 57h323zM911 281h-72l53 307h-1l-179 -307h-38l-74 307h-1l-53 -307h-71l74 419h94l68 -311h3l176 311h95z" />
    <glyph glyph-name="uni2126" unicode="&#x2126;" horiz-adv-x="723" 
 />
    <glyph glyph-name="estimated" unicode="&#x212e;" horiz-adv-x="570" 
 />
    <glyph glyph-name="onethird" unicode="&#x2153;" horiz-adv-x="765" 
 />
    <glyph glyph-name="twothirds" unicode="&#x2154;" horiz-adv-x="832" 
 />
    <glyph glyph-name="uni2155" unicode="&#x2155;" horiz-adv-x="731" 
 />
    <glyph glyph-name="uni2156" unicode="&#x2156;" horiz-adv-x="776" 
 />
    <glyph glyph-name="uni2157" unicode="&#x2157;" horiz-adv-x="793" 
 />
    <glyph glyph-name="uni2158" unicode="&#x2158;" horiz-adv-x="770" 
 />
    <glyph glyph-name="uni2159" unicode="&#x2159;" horiz-adv-x="710" 
 />
    <glyph glyph-name="uni215A" unicode="&#x215a;" horiz-adv-x="759" 
 />
    <glyph glyph-name="oneeighth" unicode="&#x215b;" horiz-adv-x="765" 
 />
    <glyph glyph-name="threeeighths" unicode="&#x215c;" horiz-adv-x="765" 
 />
    <glyph glyph-name="fiveeighths" unicode="&#x215d;" horiz-adv-x="764" 
 />
    <glyph glyph-name="seveneighths" unicode="&#x215e;" horiz-adv-x="761" 
 />
    <glyph glyph-name="partialdiff" unicode="&#x2202;" horiz-adv-x="536" 
 />
    <glyph glyph-name="uni2206" unicode="&#x2206;" horiz-adv-x="536" 
 />
    <glyph glyph-name="product" unicode="&#x220f;" horiz-adv-x="617" 
d="M641 700l-154 -877h-90l142 805h-240l-142 -805h-90l154 877h420z" />
    <glyph glyph-name="summation" unicode="&#x2211;" horiz-adv-x="624" 
 />
    <glyph glyph-name="minus" unicode="&#x2212;" horiz-adv-x="478" 
d="M479 276h-385l15 80h385z" />
    <glyph glyph-name="radical" unicode="&#x221a;" horiz-adv-x="528" 
 />
    <glyph glyph-name="infinity" unicode="&#x221e;" horiz-adv-x="637" 
 />
    <glyph glyph-name="integral" unicode="&#x222b;" horiz-adv-x="357" 
 />
    <glyph glyph-name="approxequal" unicode="&#x2248;" horiz-adv-x="570" 
d="M262 426q-26 0 -48.5 -21t-30.5 -64h-77q14 79 54.5 121t105.5 42q32 0 54.5 -15t42 -32.5t39.5 -32.5t47 -15q29 0 53 24t32 69h77q-6 -38 -21 -70t-37 -54.5t-49 -35t-58 -12.5q-33 0 -56 15t-43.5 33t-40 33t-44.5 15zM225 224q-26 0 -48.5 -23t-30.5 -67h-76
q14 80 55 124.5t106 44.5q32 0 54 -15t41.5 -33t39.5 -33t47 -15q29 0 52.5 22t32.5 67h78q-14 -77 -58.5 -121.5t-106.5 -44.5q-33 0 -57 14.5t-44 32.5t-40 32.5t-45 14.5z" />
    <glyph glyph-name="notequal" unicode="&#x2260;" horiz-adv-x="527" 
 />
    <glyph glyph-name="lessequal" unicode="&#x2264;" horiz-adv-x="550" 
d="M123 416l488 217l-16 -93l-368 -161l-2 -1l313 -162l-15 -90l-414 214zM501 0h-452l12 74h452z" />
    <glyph glyph-name="greaterequal" unicode="&#x2265;" horiz-adv-x="550" 
d="M558 340l-487 -214l15 90l370 162l1 1l-314 161l17 93l412 -217zM61 74h452l-12 -74h-452z" />
    <glyph glyph-name="lozenge" unicode="&#x25ca;" horiz-adv-x="663" 
d="M475 813l200 -477l-369 -481l-201 481zM452 684l-269 -348l146 -351l269 351z" />
    <glyph glyph-name="uni25CC" unicode="&#x25cc;" horiz-adv-x="547" 
d="M355 458q-13 0 -20.5 9t-5.5 21q2 13 13 22t24 9q11 0 18 -9t5 -22q-2 -12 -12.5 -21t-21.5 -9zM224 405q-13 0 -20 9t-5 21q2 14 12.5 22t23.5 8q12 0 19 -8t5 -22q-2 -12 -12.5 -21t-22.5 -9zM465 405q-12 0 -19 9t-5 21q2 14 12.5 22t22.5 8q13 0 20 -8t5 -22
q-2 -12 -12.5 -21t-23.5 -9zM504 345q12 0 19 -9.5t5 -20.5q-2 -14 -12 -22.5t-23 -8.5t-20 8.5t-5 22.5q2 11 12.5 20.5t23.5 9.5zM164 345q11 0 18.5 -9.5t5.5 -20.5q-2 -14 -12.5 -22.5t-22.5 -8.5q-14 0 -20.5 8.5t-4.5 22.5q2 11 12 20.5t24 9.5zM192 227q13 0 20 -9
t5 -23q-2 -11 -12.5 -20t-23.5 -9q-12 0 -19 9t-5 20q2 14 12.5 23t22.5 9zM434 227q12 0 19 -9t5 -23q-2 -11 -12.5 -20t-22.5 -9t-19.5 9t-5.5 20q2 14 13 23t23 9zM304 173q11 0 19 -8.5t6 -21.5q-2 -12 -13.5 -21t-22.5 -9q-12 0 -19 9t-5 21q2 13 12.5 21.5t22.5 8.5z
" />
    <glyph glyph-name="uniF700" unicode="&#xf700;" horiz-adv-x="589" 
d="M595 310q-12 -65 -40 -121.5t-70 -98.5t-95 -66t-114 -24h-67l-47 237h-72l14 74h142l39 -232q47 2 82.5 22.5t62 52.5t43 73t24.5 83q6 38 2.5 72t-19.5 60t-44.5 41.5t-71.5 15.5q-22 0 -45.5 -6t-45.5 -17.5t-40.5 -28.5t-30.5 -39h-97q15 41 42 71.5t63 52t79.5 34
t91.5 15.5l296 28l-12 -74l-168 -12v-2q65 -23 88.5 -79t9.5 -132z" />
    <glyph glyph-name="uniF701" unicode="&#xf701;" 
d="M-98 659h-377l12 74h377z" />
    <glyph glyph-name="uniF702" unicode="&#xf702;" 
d="M-72 809l-26 -150h-377l12 74h288l14 76h89z" />
    <glyph glyph-name="uniF703" unicode="&#xf703;" 
d="M-150 817q42 0 60 -22.5t12 -56.5q-6 -35 -30.5 -57t-66.5 -22h-300l12 74h217q1 21 10.5 37t23 26.5t30 15.5t32.5 5zM-169 707q14 0 25 8.5t13 22.5t-5.5 23t-21.5 9t-24.5 -9t-12.5 -23t5 -22.5t21 -8.5z" />
    <glyph glyph-name="uniF704" unicode="&#xf704;" 
d="M-72 809l-26 -150h-377l12 74h168l14 76h74l-14 -76h63l13 76h73z" />
    <glyph glyph-name="uniF705" unicode="&#xf705;" 
d="M-127 659h-90l31 183h90z" />
    <glyph glyph-name="uniF706" unicode="&#xf706;" 
d="M-63 733l-12 -74h-296l8 46q27 7 44.5 16t27.5 19t14.5 20t6.5 19q2 12 -7.5 21.5t-32.5 9.5q-12 0 -34 -5l8 53q35 11 66 11q41 0 67.5 -17t21.5 -51q-5 -20 -18.5 -41t-37.5 -37q12 3 27 4.5l30 3t29 2t24 0.5h64z" />
    <glyph glyph-name="uniF707" unicode="&#xf707;" 
d="M-20 726l-11 -67h-130l18 102q4 22 -1 32.5t-27 10.5q-23 0 -31.5 -14t-15.5 -34h-52q0 26 -6.5 37.5t-23.5 11.5t-27.5 -9.5t-14.5 -32.5q-4 -20 3 -32.5t33 -12.5h19l-9 -56q-32 -1 -58.5 1.5t-44.5 13t-25.5 29.5t-2.5 49l1 9q4 23 13.5 43t24 35.5t35 24.5t46.5 9
q32 0 49.5 -12t26.5 -36q32 48 90 48q55 0 71.5 -29t8.5 -77l-9 -44h50z" />
    <glyph glyph-name="uniF708" unicode="&#xf708;" 
d="M-50 723h-82l-11 -64h-82l11 64h-81l11 66h81l12 64h82l-12 -64h81z" />
    <glyph glyph-name="uniF709" unicode="&#xf709;" 
d="M-75 834q21 2 45.5 4l49 4t46.5 4t39 3l-14 -78q-30 -2 -57 -4q-23 -2 -46.5 -3.5t-37.5 -3.5q-32 -2 -49.5 -6.5t-27 -12t-13 -19t-5.5 -27.5h-86q3 26 9 48.5t21.5 41t45 31.5t80.5 18z" />
    <glyph glyph-name="uniF70A" unicode="&#xf70a;" 
d="M57 659h-87l30 183h89z" />
    <glyph glyph-name="uniF70B" unicode="&#xf70b;" 
d="M111 733l-13 -74h-325l9 46q27 7 44 16t27 19t14 20t6 19q2 12 -7 21.5t-32 9.5q-11 0 -33 -5l8 53q35 11 66 11q41 0 67.5 -17t20.5 -51q-4 -20 -18 -41t-39 -37q25 5 57.5 7.5t51.5 2.5h96z" />
    <glyph glyph-name="uniF70C" unicode="&#xf70c;" 
d="M89 722l-11 -63h-142l18 102q4 22 -1 32.5t-27 10.5q-23 0 -33.5 -14t-18.5 -34h-51q0 49 -34 49q-18 0 -28 -9.5t-15 -32.5q-3 -20 4 -32.5t33 -12.5h19l-9 -56q-32 -1 -58.5 1.5t-44.5 13t-25.5 29.5t-2.5 49l1 9q4 23 13.5 43t24 35.5t35 24.5t46.5 9q62 0 80 -48
q32 48 94 48q54 0 70 -29t8 -77l-8 -48h63z" />
    <glyph glyph-name="uniF70D" unicode="&#xf70d;" 
d="M102 723h-82l-10 -64h-84l11 64h-82l11 66h82l12 64h84l-13 -64h82z" />
    <glyph glyph-name="uniF70E" unicode="&#xf70e;" 
d="M123 809l-14 -78l-142 -11q-31 -2 -49 -6.5t-27 -12.5t-12.5 -19.5t-5.5 -27.5h-86q3 26 8.5 49t21 41.5t45.5 31t81 17.5z" />
    <glyph glyph-name="uniF70F" unicode="&#xf70f;" horiz-adv-x="948" 
d="M584 235q-7 -37 -9 -67t7 -51.5t32.5 -33t67.5 -11.5t71 12.5t44 36.5t26 58t16 76l57 322h100l-63 -355q-11 -63 -32.5 -107t-54 -71.5t-77 -39.5t-102.5 -12q-62 0 -103 12t-63 39.5t-26 71.5t7 107l22 122q13 78 -14.5 116.5t-107.5 38.5q-67 0 -111 -25.5t-68 -87.5
h123l-7 -44q-51 -17 -85.5 -59.5t-45.5 -99.5q-6 -33 -2.5 -53.5t14 -32.5t28 -17t39.5 -6q13 -2 25.5 -1t28.5 3l-13 -72q-23 -6 -45 -8.5t-42 -2.5q-35 1 -63.5 11.5t-47 32t-25.5 53t1 74.5q6 33 19.5 61t31.5 50t39 38t41 24h-113q21 121 94.5 182.5t199.5 61.5
q128 0 177 -58t29 -170z" />
    <glyph glyph-name="uniF710" unicode="&#xf710;" 
d="M-67 733l-12 -74h-190q-55 0 -84.5 11t-41.5 30t-10.5 44t9.5 53h86q-4 -19 -4 -32t7 -20.5t22 -10t42 -1.5h176z" />
    <glyph glyph-name="uniF711" unicode="&#xf711;" 
d="M-166 816q48 0 72 -25.5t16 -67.5q-7 -41 -40 -67t-81 -26t-71.5 25.5t-16.5 67.5q8 42 41 67.5t80 25.5zM-190 682q19 0 33.5 11.5t17.5 29.5q3 20 -7.5 30.5t-29.5 10.5t-32.5 -10.5t-16.5 -30.5q-3 -18 7 -29.5t28 -11.5z" />
    <glyph glyph-name="uniF712" unicode="&#xf712;" 
d="M-266 820q-26 0 -42.5 -12t-21.5 -40q-5 -29 10.5 -39t37.5 -10q18 0 38.5 14t33.5 42h38l98 -57l-12 -68h-14l-92 54q-20 -28 -52.5 -40.5t-67.5 -12.5q-51 0 -79.5 28.5t-17.5 88.5q10 62 54 93t116 31h223l-14 -72h-236z" />
    <glyph glyph-name="uniF713" unicode="&#xf713;" 
d="M-65 857h-85l30 169h85z" />
    <glyph glyph-name="uniF714" unicode="&#xf714;" 
d="M94 925l-12 -68h-303l8 45q25 6 41.5 14t27 17.5t15 19t6.5 17.5q2 11 -8 20t-33 9q-15 0 -31 -4l8 47q33 11 62 11q37 0 61.5 -16.5t18.5 -48.5q-3 -17 -16.5 -37t-36.5 -34q12 3 26 4.5t28 2t26.5 1t21.5 0.5h90z" />
    <glyph glyph-name="uniF715" unicode="&#xf715;" 
d="M83 913l-9 -56h-127l13 79q4 16 0 28.5t-24 12.5q-23 0 -34.5 -12t-16.5 -30h-49q2 24 -7 33.5t-25 9.5q-20 0 -29 -9t-12 -27q-5 -24 9 -29.5t45 -5.5l-9 -49q-10 -1 -18.5 -1h-16.5q-43 0 -67 17.5t-16 64.5l2 9q7 42 32.5 68t73.5 26q29 0 47.5 -11.5t24.5 -35.5
q31 47 89 47q48 0 64.5 -26.5t9.5 -71.5l-7 -31h57z" />
    <glyph glyph-name="uniF716" unicode="&#xf716;" 
d="M11 917h-71l-11 -60h-74l11 60h-73l9 52h74l9 58h74l-9 -58h70z" />
    <glyph glyph-name="uniF717" unicode="&#xf717;" 
d="M93 892l-145 -15q-17 -1 -27.5 -5.5t-16.5 -12t-8.5 -17.5t-3.5 -23h-84q3 27 9 48t18 36t32.5 25t53.5 14l184 20z" />
    <glyph glyph-name="uniF718" unicode="&#xf718;" 
d="M-128 -405h-88l17 93h-85l12 66h172z" />
    <glyph glyph-name="uniF719" unicode="&#xf719;" 
d="M-100 -246l-12 -65q-6 -35 -22.5 -56t-38 -32.5t-46 -15.5t-46.5 -4q-24 0 -46 4.5t-38 16t-23.5 32.5t-2.5 54h-55l12 66h133l-10 -56q-6 -32 5 -44.5t36 -12.5q27 0 41 13.5t22 53.5l8 46h83z" />
    <glyph glyph-name="uniF71A" unicode="&#xf71a;" 
d="M-242 -317q5 30 29 50.5t53 20.5q30 0 47 -20.5t12 -50.5q-6 -29 -30.5 -50.5t-54.5 -21.5q-29 0 -45.5 21.5t-10.5 50.5z" />
    <glyph glyph-name="uniF71B" unicode="&#xf71b;" horiz-adv-x="626" 
d="M419 581q130 0 182.5 -58t32.5 -170l-96 -548h-80q-49 41 -94 59.5t-84 18.5q-48 0 -80.5 -22t-49.5 -56h-91q14 43 38 72t54 46t64 24.5t69 6.5q45 -2 90 -18t80 -44l80 452q13 78 -18 116.5t-113 38.5q-69 0 -117 -25.5t-72 -87.5h130l-7 -42q-40 -14 -63.5 -46
t-31.5 -77l-14 -76q-5 -29 -15 -56t-26.5 -48t-41 -33.5t-59.5 -12.5q-17 0 -34 1t-37 5l12 73q14 -3 23.5 -3.5t19.5 0.5q27 4 41.5 22t20.5 52l14 75q6 37 29.5 69.5t59.5 47.5h-122q24 121 101.5 182.5t204.5 61.5z" />
    <glyph glyph-name="uniF71C" unicode="&#xf71c;" horiz-adv-x="626" 
d="M419 581q130 0 182.5 -58t32.5 -170l-65 -372q-6 -36 -19.5 -68t-35 -56t-52 -38t-70.5 -14q-44 0 -81.5 20.5t-48.5 57.5l-201 -77h-20l14 73l211 80h45q5 -32 28 -53t54 -19q23 1 44.5 18t27.5 49l69 390q13 78 -18 116.5t-113 38.5q-69 0 -117 -25.5t-72 -87.5h130
l-7 -42q-43 -14 -66 -48.5t-31 -82.5l-8 -48q-6 -33 -15 -64t-25.5 -54.5t-42 -37.5t-63.5 -14q-17 0 -34 1t-37 5l12 73q14 -3 23.5 -3.5t19.5 0.5q27 4 41.5 22t20.5 52l14 75q6 37 29.5 69.5t59.5 47.5h-122q24 121 101.5 182.5t204.5 61.5z" />
    <glyph glyph-name="uniF71D" unicode="&#xf71d;" horiz-adv-x="753" 
d="M884 671q-25 -67 -61.5 -99t-85.5 -43q17 -7 29 -19t16 -30.5t0 -43.5t-18 -59l-150 -377h-89l-65 448l-224 -448h-87l-30 577h101l9 -434l210 421h80l64 -421l92 240q11 30 16.5 53t1 38.5t-22 23.5t-51.5 8l10 58q35 0 61 5.5t45.5 18t33.5 33t24 50.5h91z" />
    <glyph glyph-name="uni0E33.alt1" horiz-adv-x="473" 
d="M-166 816q48 0 72 -25.5t16 -67.5q-7 -41 -40 -67t-81 -26t-71.5 25.5t-16.5 67.5q8 42 41 67.5t80 25.5zM-190 682q19 0 33.5 11.5t17.5 29.5q3 20 -7.5 30.5t-29.5 10.5t-32.5 -10.5t-16.5 -30.5q-3 -18 7 -29.5t28 -11.5zM318 0l70 396q5 28 -2 47.5t-21 31.5
t-34.5 17.5t-43.5 6.5q-45 2 -85.5 -9t-88.5 -32l14 78q51 24 97.5 34.5t97.5 10.5q42 0 76 -10.5t57 -31.5t32.5 -53t2.5 -74l-72 -412h-100z" />
    <glyph glyph-name="uni00AD" horiz-adv-x="295" 
 />
    <glyph glyph-name="uni0E4E.alt1" 
d="M-348 0v675h681v-675h-681zM306 22q6 0 6 7v619q0 6 -6 6h-627q-6 0 -6 -6v-619q0 -7 6 -7h627z" />
    <glyph glyph-name="Fontcraft" horiz-adv-x="693" 
d="M347 667q60 0 113 -22.5t92.5 -62t63 -93t23.5 -114.5q0 -60 -23 -113t-62.5 -92.5t-92.5 -63t-114 -23.5q-60 0 -113.5 23t-93 62.5t-62.5 92.5t-23 114q0 60 23 113.5t62.5 93t93 62.5t113.5 23zM347 136q48 0 91.5 19t76 51t51.5 76t19 93q0 37 -10.5 69.5t-28.5 61.5
l-38 -166q-3 -16 -12.5 -32t-24 -28.5t-32.5 -20t-38 -7.5t-35 7.5t-26 20.5q-16 -13 -33.5 -20.5t-37.5 -7.5q-39 0 -60.5 25t-21.5 56q0 2 0.5 5t1.5 10t3.5 19t6.5 31q-10 -3 -20 7.5t-10 21.5t8.5 20t36.5 9q8 0 16.5 -1.5t15.5 -5.5t10.5 -11t1.5 -18l-15 -80
q-3 -13 3 -23t23 -10q20 0 34.5 14t19.5 31l17 79q2 11 9 16.5t17 5.5q12 0 19 -8.5t7 -17.5q0 -1 -0.5 -3.5t-2 -10.5t-5 -25t-10.5 -48q-2 -13 5 -23t22 -10q17 0 34.5 14t21.5 31l47 203q-32 27 -72.5 42.5t-84.5 15.5q-50 0 -93.5 -18.5t-76 -50.5t-51 -75.5
t-18.5 -93.5q0 -49 18.5 -93t51 -76t76 -51t93.5 -19zM624 30q8 0 8 -7q0 -8 -8 -8h-14l-7 -31q-1 -4 -1 -9q0 -2 0.5 -4t3.5 -2q2 0 3.5 0.5t4.5 0.5q7 0 7 -7q0 -4 -4.5 -6.5t-9.5 -2.5q-7 0 -13.5 6.5t-6.5 17.5q0 6 1 10l7 27h-22l-12 -53q-2 -14 -11 -23t-25 -9
q-3 0 -4.5 3t-1.5 6q0 6 4 6.5t8.5 1.5t9 4t5.5 14l11 50h-11q-7 0 -7 8q0 7 7 7h13l2 12q0 3 2 7.5t6 9.5t11 8.5t18 3.5q5 0 5 -7q0 -5 -3 -6t-7.5 -2t-9 -4t-6.5 -12l-3 -10h24l2 11q0 5 6 5q3 0 6 -1.5t3 -4.5q0 -2 -0.5 -3t-0.5 -7h10zM132 23q0 -8 -8 -8h-11l-12 -53
q-6 -32 -34 -32q-5 0 -7.5 3t-2.5 6q0 6 4 7t9 2t10 4t6 13l10 50h-9q-9 0 -9 8q0 7 9 7h11l3 12q6 29 35 29q10 0 10 -7t-4 -7.5t-9 -0.5t-10 -2.5t-7 -13.5l-1 -10h9q8 0 8 -7zM327 30q7 0 7 -7q0 -8 -7 -8h-15l-6 -31v-9q0 -6 2 -6t4 0.5t3 0.5q10 0 10 -5t-5.5 -8
t-9.5 -3q-11 0 -16 7t-5 17q0 2 1 4.5t1 5.5l5 27h-7q-8 0 -8 8q0 7 8 7h11l6 27q0 2 2 4t4 2q10 0 10 -8l-5 -25h10zM521 -31q-13 -13 -33 -13q-10 0 -18.5 7t-6.5 21q2 13 14 16.5t22 4.5h15v1l2 3q0 10 -12 10q-4 0 -11.5 -2t-12.5 -2t-5 4q0 8 11.5 11.5t19.5 3.5
q17 0 21 -8.5t4 -13.5q0 -2 -1 -4l-2 -4zM203 3q0 -20 -12.5 -34.5t-32.5 -14.5q-17 0 -23.5 9.5t-6.5 20.5q0 14 4.5 23.5t11.5 14.5t14.5 7t13.5 2q31 0 31 -28zM272 19q2 -6 2 -11q0 -1 -0.5 -2t-0.5 -3l-8 -41q-4 -8 -8 -8t-6.5 3t-2.5 5q0 1 2 3l8 42q0 7 -2 8t-4 3
q-2 0 -9.5 -2.5t-14.5 -10.5l-11 -43q0 -8 -7 -8q-3 0 -5 3t-2 5v3l13 61q1 5 8 5q8 0 8 -5q8 5 18 5q4 0 12 -1.5t10 -10.5zM415 15q0 -10 -7 -10q-6 0 -8.5 6.5t-13.5 6.5q-9 0 -17.5 -9t-8.5 -25q0 -15 14 -15q7 0 11 3t8 3q8 0 8 -9q0 -5 -10 -8.5t-17 -3.5
q-17 0 -23.5 9.5t-6.5 20.5q0 26 13.5 36.5t28.5 10.5q13 0 18.5 -4t8.5 -9zM465 25q0 -7 -8 -7q-14 0 -19 -17l-10 -41q0 -2 -1.5 -4t-3.5 -2q-4 0 -7 3t-3 5v3l10 38q3 17 12.5 22.5t21.5 5.5q8 0 8 -6zM187 -4q2 7 -1 14.5t-14 7.5q-14 0 -20.5 -11.5t-6.5 -25.5
q0 -2 2 -7t11 -5q13 0 19.5 7.5t9.5 19.5zM510 -10q-17 0 -24 -2t-8 -10q0 -5 5 -7t10 -2q9 0 13 2z" />
    </font>
</defs>
</svg>
