<svg width="18" height="18" viewBox="0 0 18 18" fill="none" xmlns="http://www.w3.org/2000/svg">
<path d="M8.99992 2.42386C11.1419 2.42386 11.3954 2.43196 12.2414 2.47036C13.0235 2.50606 13.4483 2.63656 13.7309 2.74666C14.1056 2.89216 14.3726 3.06586 14.6534 3.34666C14.9342 3.62746 15.1079 3.89446 15.2534 4.26916C15.3635 4.55176 15.494 4.97656 15.5297 5.75866C15.5684 6.60466 15.5762 6.85816 15.5762 9.00016C15.5762 11.1422 15.5681 11.3957 15.5297 12.2417C15.494 13.0238 15.3635 13.4486 15.2534 13.7312C15.1079 14.1059 14.9342 14.3729 14.6534 14.6537C14.3726 14.9345 14.1056 15.1082 13.7309 15.2537C13.4483 15.3638 13.0235 15.4943 12.2414 15.5297C11.3954 15.5684 11.1419 15.5762 8.99992 15.5762C6.85791 15.5762 6.60441 15.5681 5.75842 15.5297C4.97632 15.494 4.55152 15.3635 4.26892 15.2537C3.89422 15.1079 3.62722 14.9345 3.34642 14.6537C3.06562 14.3729 2.89192 14.1059 2.74642 13.7312C2.63632 13.4486 2.50582 13.0238 2.47012 12.2417C2.43142 11.3957 2.42362 11.1422 2.42362 9.00016C2.42362 6.85816 2.43172 6.60466 2.47012 5.75866C2.50582 4.97656 2.63632 4.55176 2.74642 4.26916C2.89192 3.89446 3.06562 3.62746 3.34642 3.34666C3.62722 3.06586 3.89422 2.89216 4.26892 2.74666C4.55152 2.63656 4.97632 2.50606 5.75842 2.47036C6.60441 2.43196 6.85791 2.42386 8.99992 2.42386ZM8.99992 0.97876C6.82131 0.97876 6.54802 0.988059 5.69272 1.02706C4.83862 1.06606 4.25602 1.20166 3.74572 1.39996C3.21802 1.60516 2.77101 1.87936 2.32491 2.32516C1.87911 2.77096 1.60431 3.21826 1.39971 3.74596C1.20141 4.25626 1.06582 4.83946 1.02682 5.69296C0.987815 6.54856 0.978516 6.82186 0.978516 9.00016C0.978516 11.1785 0.987815 11.4521 1.02682 12.3077C1.06582 13.1615 1.20141 13.7444 1.39971 14.2547C1.60491 14.7824 1.87911 15.2294 2.32491 15.6755C2.77071 16.1213 3.21832 16.3958 3.74572 16.6007C4.25602 16.799 4.83922 16.9346 5.69272 16.9736C6.54832 17.0126 6.82161 17.0219 8.99992 17.0219C11.1782 17.0219 11.4518 17.0126 12.3074 16.9736C13.1612 16.9346 13.7441 16.799 14.2544 16.6007C14.7821 16.3955 15.2291 16.1213 15.6752 15.6755C16.121 15.2297 16.3955 14.7821 16.6004 14.2547C16.7987 13.7444 16.9343 13.1612 16.9733 12.3077C17.0123 11.4521 17.0216 11.1788 17.0216 9.00016C17.0216 6.82156 17.0123 6.54826 16.9733 5.69296C16.9343 4.83886 16.7987 4.25626 16.6004 3.74596C16.3952 3.21826 16.121 2.77126 15.6752 2.32516C15.2294 1.87936 14.7818 1.60486 14.2544 1.39996C13.7441 1.20166 13.1609 1.06606 12.3074 1.02706C11.4518 0.988059 11.1785 0.97876 8.99992 0.97876ZM8.99992 4.88116C6.72501 4.88116 4.88092 6.72526 4.88092 9.00016C4.88092 11.2751 6.72501 13.1195 8.99992 13.1195C11.2748 13.1195 13.1192 11.2754 13.1192 9.00016C13.1192 6.72496 11.2751 4.88116 8.99992 4.88116ZM8.99992 11.6744C7.52331 11.6744 6.32602 10.4774 6.32602 9.00046C6.32602 7.52356 7.52331 6.32656 8.99992 6.32656C10.4765 6.32656 11.6738 7.52356 11.6738 9.00046C11.6738 10.4774 10.4765 11.6744 8.99992 11.6744ZM13.2818 3.75586C12.7499 3.75586 12.3191 4.18666 12.3191 4.71856C12.3191 5.25046 12.7499 5.68126 13.2818 5.68126C13.8137 5.68126 14.2445 5.25046 14.2445 4.71856C14.2445 4.18666 13.8137 3.75586 13.2818 3.75586Z" fill="white"/>
</svg>
